Playwrite-Th00ShortSlow.ufo
<glyph name="ampersand" format="2">
  <advance width="865"/>
  <unicode hex="0026"/>
  <outline>
    <contour>
      <point x="355" y="-19" type="curve" smooth="yes"/>
      <point x="457" y="-19"/>
      <point x="554" y="29"/>
      <point x="625" y="113" type="curve"/>
      <point x="746" y="-12" type="line" smooth="yes"/>
      <point x="755" y="-22"/>
      <point x="765" y="-20"/>
      <point x="772" y="-11" type="curve"/>
      <point x="782" y="-2"/>
      <point x="782" y="4"/>
      <point x="775" y="13" type="curve"/>
      <point x="648" y="144" type="line"/>
      <point x="704" y="222"/>
      <point x="738" y="326"/>
      <point x="738" y="446" type="curve" smooth="yes"/>
      <point x="738" y="458"/>
      <point x="733" y="461"/>
      <point x="720" y="461" type="curve" smooth="yes"/>
      <point x="706" y="461"/>
      <point x="701" y="458"/>
      <point x="701" y="446" type="curve" smooth="yes"/>
      <point x="701" y="336"/>
      <point x="670" y="242"/>
      <point x="622" y="171" type="curve"/>
      <point x="329" y="473" type="line"/>
      <point x="440" y="532"/>
      <point x="560" y="581"/>
      <point x="560" y="711" type="curve" smooth="yes"/>
      <point x="560" y="825"/>
      <point x="471" y="890"/>
      <point x="370" y="890" type="curve" smooth="yes"/>
      <point x="253" y="890"/>
      <point x="171" y="804"/>
      <point x="171" y="689" type="curve" smooth="yes"/>
      <point x="171" y="588"/>
      <point x="216" y="535"/>
      <point x="270" y="480" type="curve"/>
      <point x="182" y="430"/>
      <point x="105" y="364"/>
      <point x="105" y="236" type="curve" smooth="yes"/>
      <point x="105" y="85"/>
      <point x="205" y="-19"/>
    </contour>
    <contour>
      <point x="355" y="19" type="curve" smooth="yes"/>
      <point x="230" y="19"/>
      <point x="145" y="101"/>
      <point x="145" y="236" type="curve" smooth="yes"/>
      <point x="145" y="347"/>
      <point x="213" y="407"/>
      <point x="295" y="454" type="curve"/>
      <point x="599" y="140" type="line"/>
      <point x="534" y="63"/>
      <point x="445" y="19"/>
    </contour>
    <contour>
      <point x="304" y="498" type="curve"/>
      <point x="257" y="549"/>
      <point x="211" y="603"/>
      <point x="211" y="689" type="curve" smooth="yes"/>
      <point x="211" y="778"/>
      <point x="261" y="853"/>
      <point x="370" y="853" type="curve" smooth="yes"/>
      <point x="461" y="853"/>
      <point x="520" y="799"/>
      <point x="520" y="711" type="curve" smooth="yes"/>
      <point x="520" y="598"/>
      <point x="411" y="554"/>
    </contour>
  </outline>
</glyph>
<glyph name="quotesingle" format="2">
  <advance width="169"/>
  <unicode hex="0027"/>
  <outline>
    <contour>
      <point x="84" y="645" type="curve" smooth="yes"/>
      <point x="95" y="645"/>
      <point x="102" y="654"/>
      <point x="103" y="668" type="curve" smooth="yes"/>
      <point x="113" y="869" type="line" smooth="yes"/>
      <point x="114" y="883"/>
      <point x="104" y="894"/>
      <point x="84" y="894" type="curve" smooth="yes"/>
      <point x="65" y="894"/>
      <point x="55" y="883"/>
      <point x="56" y="869" type="curve" smooth="yes"/>
      <point x="66" y="665" type="line" smooth="yes"/>
      <point x="67" y="653"/>
      <point x="74" y="645"/>
    </contour>
  </outline>
</glyph>
<glyph name="one" format="2">
  <advance width="450"/>
  <unicode hex="0031"/>
  <outline>
    <contour>
      <point x="243" y="-14" type="curve" smooth="yes"/>
      <point x="256" y="-14"/>
      <point x="261" y="-10"/>
      <point x="261" y="1" type="curve" smooth="yes"/>
      <point x="261" y="875" type="line" smooth="yes"/>
      <point x="261" y="886"/>
      <point x="256" y="890"/>
      <point x="243" y="890" type="curve" smooth="yes"/>
      <point x="229" y="890"/>
      <point x="224" y="888"/>
      <point x="218" y="881" type="curve" smooth="yes"/>
      <point x="161" y="821"/>
      <point x="94" y="768"/>
      <point x="39" y="735" type="curve" smooth="yes"/>
      <point x="28" y="728"/>
      <point x="25" y="723"/>
      <point x="33" y="710" type="curve" smooth="yes"/>
      <point x="40" y="699"/>
      <point x="50" y="700"/>
      <point x="61" y="708" type="curve" smooth="yes"/>
      <point x="108" y="735"/>
      <point x="171" y="783"/>
      <point x="224" y="834" type="curve"/>
      <point x="224" y="1" type="line" smooth="yes"/>
      <point x="224" y="-10"/>
      <point x="229" y="-14"/>
    </contour>
  </outline>
</glyph>
<glyph name="two" format="2">
  <advance width="663"/>
  <unicode hex="0032"/>
  <outline>
    <contour>
      <point x="76" y="0" type="curve" smooth="yes"/>
      <point x="568" y="0" type="line" smooth="yes"/>
      <point x="574" y="0"/>
      <point x="579" y="6"/>
      <point x="579" y="19" type="curve" smooth="yes"/>
      <point x="579" y="31"/>
      <point x="574" y="35"/>
      <point x="568" y="35" type="curve" smooth="yes"/>
      <point x="123" y="35" type="line"/>
      <point x="238" y="150" type="line" smooth="yes"/>
      <point x="398" y="310"/>
      <point x="565" y="504"/>
      <point x="565" y="668" type="curve" smooth="yes"/>
      <point x="565" y="820"/>
      <point x="460" y="890"/>
      <point x="326" y="890" type="curve" smooth="yes"/>
      <point x="223" y="890"/>
      <point x="130" y="845"/>
      <point x="84" y="791" type="curve" smooth="yes"/>
      <point x="79" y="785"/>
      <point x="71" y="775"/>
      <point x="85" y="765" type="curve" smooth="yes"/>
      <point x="96" y="756"/>
      <point x="105" y="760"/>
      <point x="113" y="768" type="curve" smooth="yes"/>
      <point x="171" y="821"/>
      <point x="236" y="853"/>
      <point x="326" y="853" type="curve" smooth="yes"/>
      <point x="444" y="853"/>
      <point x="525" y="798"/>
      <point x="525" y="665" type="curve" smooth="yes"/>
      <point x="525" y="516"/>
      <point x="375" y="339"/>
      <point x="220" y="183" type="curve" smooth="yes"/>
      <point x="61" y="23" type="line"/>
      <point x="56" y="16"/>
      <point x="59" y="0"/>
    </contour>
  </outline>
</glyph>
<glyph name="three" format="2">
  <advance width="663"/>
  <unicode hex="0033"/>
  <outline>
    <contour>
      <point x="315" y="-19" type="curve" smooth="yes"/>
      <point x="484" y="-19"/>
      <point x="580" y="91"/>
      <point x="580" y="250" type="curve" smooth="yes"/>
      <point x="580" y="361"/>
      <point x="515" y="446"/>
      <point x="386" y="473" type="curve"/>
      <point x="498" y="506"/>
      <point x="543" y="596"/>
      <point x="543" y="679" type="curve" smooth="yes"/>
      <point x="543" y="824"/>
      <point x="439" y="890"/>
      <point x="310" y="890" type="curve" smooth="yes"/>
      <point x="210" y="890"/>
      <point x="126" y="848"/>
      <point x="76" y="795" type="curve" smooth="yes"/>
      <point x="71" y="789"/>
      <point x="63" y="781"/>
      <point x="76" y="769" type="curve" smooth="yes"/>
      <point x="86" y="759"/>
      <point x="98" y="764"/>
      <point x="105" y="771" type="curve" smooth="yes"/>
      <point x="166" y="825"/>
      <point x="225" y="853"/>
      <point x="310" y="853" type="curve" smooth="yes"/>
      <point x="413" y="853"/>
      <point x="503" y="801"/>
      <point x="503" y="680" type="curve" smooth="yes"/>
      <point x="503" y="584"/>
      <point x="443" y="489"/>
      <point x="306" y="489" type="curve" smooth="yes"/>
      <point x="238" y="489" type="line" smooth="yes"/>
      <point x="231" y="489"/>
      <point x="226" y="484"/>
      <point x="226" y="471" type="curve" smooth="yes"/>
      <point x="226" y="459"/>
      <point x="231" y="454"/>
      <point x="238" y="454" type="curve" smooth="yes"/>
      <point x="303" y="454" type="line" smooth="yes"/>
      <point x="446" y="454"/>
      <point x="539" y="375"/>
      <point x="539" y="254" type="curve" smooth="yes"/>
      <point x="539" y="110"/>
      <point x="456" y="19"/>
      <point x="314" y="19" type="curve" smooth="yes"/>
      <point x="221" y="19"/>
      <point x="153" y="55"/>
      <point x="79" y="143" type="curve" smooth="yes"/>
      <point x="69" y="154"/>
      <point x="63" y="154"/>
      <point x="53" y="145" type="curve" smooth="yes"/>
      <point x="41" y="136"/>
      <point x="44" y="128"/>
      <point x="54" y="115" type="curve" smooth="yes"/>
      <point x="134" y="15"/>
      <point x="223" y="-19"/>
    </contour>
  </outline>
</glyph>
<glyph name="five" format="2">
  <advance width="663"/>
  <unicode hex="0035"/>
  <outline>
    <contour>
      <point x="328" y="-19" type="curve" smooth="yes"/>
      <point x="490" y="-19"/>
      <point x="594" y="89"/>
      <point x="594" y="271" type="curve" smooth="yes"/>
      <point x="594" y="431"/>
      <point x="495" y="540"/>
      <point x="333" y="540" type="curve" smooth="yes"/>
      <point x="264" y="540"/>
      <point x="199" y="513"/>
      <point x="156" y="478" type="curve"/>
      <point x="170" y="840" type="line"/>
      <point x="544" y="840" type="line" smooth="yes"/>
      <point x="550" y="840"/>
      <point x="555" y="846"/>
      <point x="555" y="859" type="curve" smooth="yes"/>
      <point x="555" y="871"/>
      <point x="550" y="875"/>
      <point x="544" y="875" type="curve" smooth="yes"/>
      <point x="155" y="875" type="line" smooth="yes"/>
      <point x="141" y="875"/>
      <point x="135" y="871"/>
      <point x="135" y="860" type="curve" smooth="yes"/>
      <point x="119" y="434" type="line" smooth="yes"/>
      <point x="119" y="421"/>
      <point x="140" y="414"/>
      <point x="148" y="423" type="curve" smooth="yes"/>
      <point x="195" y="481"/>
      <point x="260" y="504"/>
      <point x="331" y="504" type="curve" smooth="yes"/>
      <point x="466" y="504"/>
      <point x="553" y="406"/>
      <point x="553" y="271" type="curve" smooth="yes"/>
      <point x="553" y="113"/>
      <point x="473" y="18"/>
      <point x="333" y="18" type="curve" smooth="yes"/>
      <point x="240" y="18"/>
      <point x="173" y="55"/>
      <point x="104" y="143" type="curve" smooth="yes"/>
      <point x="95" y="154"/>
      <point x="88" y="153"/>
      <point x="79" y="145" type="curve" smooth="yes"/>
      <point x="66" y="136"/>
      <point x="70" y="128"/>
      <point x="79" y="115" type="curve" smooth="yes"/>
      <point x="140" y="25"/>
      <point x="235" y="-19"/>
    </contour>
  </outline>
</glyph>
<glyph name="six" format="2">
  <advance width="713"/>
  <unicode hex="0036"/>
  <guideline x="290"/>
  <outline>
    <contour>
      <point x="375" y="-19" type="curve" smooth="yes"/>
      <point x="538" y="-19"/>
      <point x="638" y="98"/>
      <point x="638" y="268" type="curve" smooth="yes"/>
      <point x="638" y="431"/>
      <point x="540" y="528"/>
      <point x="383" y="528" type="curve" smooth="yes"/>
      <point x="264" y="528"/>
      <point x="154" y="449"/>
      <point x="120" y="341" type="curve"/>
      <point x="128" y="291" type="line"/>
      <point x="158" y="404"/>
      <point x="265" y="491"/>
      <point x="381" y="491" type="curve" smooth="yes"/>
      <point x="514" y="491"/>
      <point x="596" y="406"/>
      <point x="596" y="268" type="curve" smooth="yes"/>
      <point x="596" y="120"/>
      <point x="514" y="19"/>
      <point x="375" y="19" type="curve" smooth="yes"/>
      <point x="244" y="19"/>
      <point x="141" y="130"/>
      <point x="141" y="343" type="curve" smooth="yes"/>
      <point x="141" y="614"/>
      <point x="218" y="833"/>
      <point x="530" y="858" type="curve" smooth="yes"/>
      <point x="543" y="859"/>
      <point x="544" y="866"/>
      <point x="543" y="876" type="curve" smooth="yes"/>
      <point x="541" y="891"/>
      <point x="535" y="891"/>
      <point x="515" y="890" type="curve" smooth="yes"/>
      <point x="195" y="866"/>
      <point x="100" y="630"/>
      <point x="100" y="350" type="curve" smooth="yes"/>
      <point x="100" y="130"/>
      <point x="196" y="-19"/>
    </contour>
  </outline>
</glyph>
<glyph name="seven" format="2">
  <advance width="538"/>
  <unicode hex="0037"/>
  <outline>
    <contour>
      <point x="145" y="-12" type="curve" smooth="yes"/>
      <point x="159" y="-17"/>
      <point x="164" y="-14"/>
      <point x="170" y="3" type="curve" smooth="yes"/>
      <point x="515" y="856" type="line" smooth="yes"/>
      <point x="520" y="869"/>
      <point x="511" y="875"/>
      <point x="503" y="875" type="curve" smooth="yes"/>
      <point x="31" y="875" type="line" smooth="yes"/>
      <point x="25" y="875"/>
      <point x="20" y="871"/>
      <point x="20" y="859" type="curve" smooth="yes"/>
      <point x="20" y="846"/>
      <point x="25" y="840"/>
      <point x="31" y="840" type="curve" smooth="yes"/>
      <point x="471" y="840" type="line"/>
      <point x="135" y="9" type="line" smooth="yes"/>
      <point x="131" y="-2"/>
      <point x="133" y="-7"/>
    </contour>
  </outline>
</glyph>
<glyph name="less" format="2">
  <advance width="763"/>
  <unicode hex="003C"/>
  <outline>
    <contour>
      <point x="640" y="179" type="line" smooth="yes"/>
      <point x="651" y="174"/>
      <point x="659" y="175"/>
      <point x="663" y="186" type="curve" smooth="yes"/>
      <point x="666" y="196"/>
      <point x="666" y="205"/>
      <point x="655" y="210" type="curve" smooth="yes"/>
      <point x="146" y="436" type="line"/>
      <point x="655" y="663" type="line" smooth="yes"/>
      <point x="666" y="668"/>
      <point x="666" y="676"/>
      <point x="663" y="686" type="curve" smooth="yes"/>
      <point x="659" y="698"/>
      <point x="651" y="699"/>
      <point x="640" y="694" type="curve" smooth="yes"/>
      <point x="131" y="468" type="line" smooth="yes"/>
      <point x="109" y="458"/>
      <point x="100" y="454"/>
      <point x="100" y="436" type="curve" smooth="yes"/>
      <point x="100" y="420"/>
      <point x="109" y="415"/>
      <point x="131" y="405" type="curve" smooth="yes"/>
    </contour>
  </outline>
</glyph>
<glyph name="question" format="2">
  <advance width="498"/>
  <unicode hex="003F"/>
  <outline>
    <contour>
      <point x="195" y="216" type="curve" smooth="yes"/>
      <point x="209" y="216"/>
      <point x="214" y="219"/>
      <point x="214" y="231" type="curve" smooth="yes"/>
      <point x="214" y="388" type="line"/>
      <point x="343" y="398"/>
      <point x="466" y="460"/>
      <point x="466" y="644" type="curve" smooth="yes"/>
      <point x="466" y="806"/>
      <point x="366" y="890"/>
      <point x="248" y="890" type="curve" smooth="yes"/>
      <point x="153" y="890"/>
      <point x="71" y="849"/>
      <point x="25" y="795" type="curve" smooth="yes"/>
      <point x="20" y="789"/>
      <point x="15" y="780"/>
      <point x="26" y="769" type="curve" smooth="yes"/>
      <point x="36" y="759"/>
      <point x="46" y="764"/>
      <point x="54" y="771" type="curve" smooth="yes"/>
      <point x="111" y="825"/>
      <point x="168" y="853"/>
      <point x="248" y="853" type="curve" smooth="yes"/>
      <point x="341" y="853"/>
      <point x="426" y="784"/>
      <point x="426" y="646" type="curve" smooth="yes"/>
      <point x="426" y="469"/>
      <point x="304" y="424"/>
      <point x="189" y="423" type="curve" smooth="yes"/>
      <point x="181" y="423"/>
      <point x="176" y="418"/>
      <point x="176" y="405" type="curve" smooth="yes"/>
      <point x="176" y="233" type="line" smooth="yes"/>
      <point x="176" y="219"/>
      <point x="181" y="216"/>
    </contour>
    <contour>
      <point x="195" y="-14" type="curve" smooth="yes"/>
      <point x="221" y="-14"/>
      <point x="235" y="1"/>
      <point x="235" y="31" type="curve" smooth="yes"/>
      <point x="235" y="61"/>
      <point x="221" y="76"/>
      <point x="195" y="76" type="curve" smooth="yes"/>
      <point x="169" y="76"/>
      <point x="155" y="61"/>
      <point x="155" y="31" type="curve" smooth="yes"/>
      <point x="155" y="1"/>
      <point x="169" y="-14"/>
    </contour>
  </outline>
</glyph>
<glyph name="C" format="2">
  <advance width="775"/>
  <unicode hex="0043"/>
  <anchor x="440" y="0" name="bottom"/>
  <anchor x="456" y="838" name="top"/>
  <outline>
    <contour>
      <point x="448" y="-19" type="curve" smooth="yes"/>
      <point x="555" y="-19"/>
      <point x="643" y="31"/>
      <point x="720" y="118" type="curve" smooth="yes"/>
      <point x="730" y="129"/>
      <point x="730" y="135"/>
      <point x="720" y="144" type="curve" smooth="yes"/>
      <point x="709" y="154"/>
      <point x="703" y="151"/>
      <point x="691" y="139" type="curve" smooth="yes"/>
      <point x="628" y="68"/>
      <point x="554" y="19"/>
      <point x="448" y="19" type="curve" smooth="yes"/>
      <point x="256" y="19"/>
      <point x="135" y="181"/>
      <point x="135" y="436" type="curve" smooth="yes"/>
      <point x="135" y="691"/>
      <point x="274" y="853"/>
      <point x="466" y="853" type="curve" smooth="yes"/>
      <point x="544" y="853"/>
      <point x="621" y="828"/>
      <point x="671" y="770" type="curve" smooth="yes"/>
      <point x="683" y="758"/>
      <point x="689" y="755"/>
      <point x="700" y="765" type="curve" smooth="yes"/>
      <point x="710" y="774"/>
      <point x="710" y="780"/>
      <point x="700" y="791" type="curve" smooth="yes"/>
      <point x="645" y="858"/>
      <point x="555" y="890"/>
      <point x="466" y="890" type="curve" smooth="yes"/>
      <point x="250" y="890"/>
      <point x="94" y="713"/>
      <point x="94" y="436" type="curve" smooth="yes"/>
      <point x="94" y="159"/>
      <point x="233" y="-19"/>
    </contour>
  </outline>
</glyph>
<glyph name="I" format="2">
  <advance width="338"/>
  <unicode hex="0049"/>
  <anchor x="169" y="0" name="bottom"/>
  <anchor x="188" y="-5" name="ogonek"/>
  <anchor x="169" y="838" name="top"/>
  <outline>
    <contour>
      <point x="169" y="-14" type="curve" smooth="yes"/>
      <point x="183" y="-14"/>
      <point x="188" y="-10"/>
      <point x="188" y="1" type="curve" smooth="yes"/>
      <point x="188" y="875" type="line" smooth="yes"/>
      <point x="188" y="886"/>
      <point x="181" y="890"/>
      <point x="169" y="890" type="curve" smooth="yes"/>
      <point x="155" y="890"/>
      <point x="150" y="886"/>
      <point x="150" y="875" type="curve" smooth="yes"/>
      <point x="150" y="1" type="line" smooth="yes"/>
      <point x="150" y="-10"/>
      <point x="155" y="-14"/>
    </contour>
  </outline>
</glyph>
<glyph name="J" format="2">
  <advance width="650"/>
  <unicode hex="004A"/>
  <anchor x="300" y="0" name="bottom"/>
  <anchor x="500" y="838" name="top"/>
  <outline>
    <contour>
      <point x="289" y="-19" type="curve" smooth="yes"/>
      <point x="439" y="-19"/>
      <point x="519" y="76"/>
      <point x="519" y="263" type="curve" smooth="yes"/>
      <point x="519" y="875" type="line" smooth="yes"/>
      <point x="519" y="886"/>
      <point x="514" y="890"/>
      <point x="500" y="890" type="curve" smooth="yes"/>
      <point x="486" y="890"/>
      <point x="481" y="886"/>
      <point x="481" y="875" type="curve" smooth="yes"/>
      <point x="481" y="260" type="line" smooth="yes"/>
      <point x="481" y="100"/>
      <point x="419" y="19"/>
      <point x="289" y="19" type="curve" smooth="yes"/>
      <point x="179" y="19"/>
      <point x="130" y="59"/>
      <point x="99" y="160" type="curve" smooth="yes"/>
      <point x="94" y="176"/>
      <point x="90" y="181"/>
      <point x="75" y="176" type="curve" smooth="yes"/>
      <point x="63" y="173"/>
      <point x="60" y="168"/>
      <point x="64" y="153" type="curve" smooth="yes"/>
      <point x="93" y="38"/>
      <point x="166" y="-19"/>
    </contour>
  </outline>
</glyph>
<glyph name="M" format="2">
  <advance width="1050"/>
  <unicode hex="004D"/>
  <anchor x="525" y="0" name="bottom"/>
  <anchor x="525" y="838" name="top"/>
  <outline>
    <contour>
      <point x="169" y="-14" type="curve" smooth="yes"/>
      <point x="183" y="-14"/>
      <point x="188" y="-10"/>
      <point x="188" y="1" type="curve" smooth="yes"/>
      <point x="188" y="819" type="line"/>
      <point x="501" y="280" type="line" smooth="yes"/>
      <point x="509" y="268"/>
      <point x="514" y="265"/>
      <point x="525" y="265" type="curve" smooth="yes"/>
      <point x="535" y="265"/>
      <point x="541" y="266"/>
      <point x="549" y="280" type="curve" smooth="yes"/>
      <point x="863" y="819" type="line"/>
      <point x="863" y="1" type="line" smooth="yes"/>
      <point x="863" y="-10"/>
      <point x="868" y="-14"/>
      <point x="881" y="-14" type="curve" smooth="yes"/>
      <point x="895" y="-14"/>
      <point x="900" y="-10"/>
      <point x="900" y="1" type="curve" smooth="yes"/>
      <point x="900" y="875" type="line" smooth="yes"/>
      <point x="900" y="886"/>
      <point x="895" y="890"/>
      <point x="881" y="890" type="curve" smooth="yes"/>
      <point x="865" y="890"/>
      <point x="861" y="888"/>
      <point x="855" y="878" type="curve" smooth="yes"/>
      <point x="525" y="306" type="line"/>
      <point x="195" y="878" type="line" smooth="yes"/>
      <point x="189" y="888"/>
      <point x="184" y="890"/>
      <point x="170" y="890" type="curve" smooth="yes"/>
      <point x="156" y="890"/>
      <point x="150" y="886"/>
      <point x="150" y="875" type="curve" smooth="yes"/>
      <point x="150" y="1" type="line" smooth="yes"/>
      <point x="150" y="-10"/>
      <point x="155" y="-14"/>
    </contour>
  </outline>
</glyph>
<glyph name="P" format="2">
  <advance width="700"/>
  <unicode hex="0050"/>
  <outline>
    <contour>
      <point x="169" y="-14" type="curve" smooth="yes"/>
      <point x="183" y="-14"/>
      <point x="188" y="-10"/>
      <point x="188" y="1" type="curve" smooth="yes"/>
      <point x="188" y="368" type="line"/>
      <point x="235" y="370"/>
      <point x="284" y="374"/>
      <point x="331" y="379" type="curve" smooth="yes"/>
      <point x="524" y="399"/>
      <point x="650" y="489"/>
      <point x="650" y="656" type="curve" smooth="yes"/>
      <point x="650" y="814"/>
      <point x="550" y="875"/>
      <point x="360" y="875" type="curve" smooth="yes"/>
      <point x="170" y="875" type="line" smooth="yes"/>
      <point x="156" y="875"/>
      <point x="150" y="871"/>
      <point x="150" y="860" type="curve" smooth="yes"/>
      <point x="150" y="1" type="line" smooth="yes"/>
      <point x="150" y="-10"/>
      <point x="155" y="-14"/>
    </contour>
    <contour>
      <point x="188" y="403" type="curve"/>
      <point x="188" y="840" type="line"/>
      <point x="360" y="840" type="line" smooth="yes"/>
      <point x="525" y="840"/>
      <point x="610" y="789"/>
      <point x="610" y="655" type="curve" smooth="yes"/>
      <point x="610" y="510"/>
      <point x="500" y="431"/>
      <point x="331" y="414" type="curve" smooth="yes"/>
      <point x="284" y="409"/>
      <point x="235" y="405"/>
    </contour>
  </outline>
</glyph>
<glyph name="Q" format="2">
  <advance width="925"/>
  <unicode hex="0051"/>
  <anchor x="463" y="0" name="bottom"/>
  <anchor x="463" y="438" name="center"/>
  <anchor x="591" y="6" name="ogonek"/>
  <anchor x="463" y="838" name="top"/>
  <anchor x="568" y="875" name="topright"/>
  <outline>
    <contour>
      <point x="695" y="-156" type="curve" smooth="yes"/>
      <point x="704" y="-149"/>
      <point x="706" y="-144"/>
      <point x="700" y="-134" type="curve" smooth="yes"/>
      <point x="493" y="159" type="line" smooth="yes"/>
      <point x="486" y="168"/>
      <point x="479" y="168"/>
      <point x="470" y="160" type="curve" smooth="yes"/>
      <point x="459" y="151"/>
      <point x="456" y="146"/>
      <point x="463" y="136" type="curve" smooth="yes"/>
      <point x="671" y="-156" type="line" smooth="yes"/>
      <point x="678" y="-164"/>
      <point x="684" y="-164"/>
    </contour>
    <component base="O"/>
  </outline>
</glyph>
<glyph name="S" format="2">
  <advance width="688"/>
  <unicode hex="0053"/>
  <anchor x="344" y="0" name="bottom"/>
  <anchor x="361" y="838" name="top"/>
  <outline>
    <contour>
      <point x="336" y="-19" type="curve" smooth="yes"/>
      <point x="496" y="-19"/>
      <point x="606" y="84"/>
      <point x="606" y="226" type="curve" smooth="yes"/>
      <point x="606" y="374"/>
      <point x="489" y="418"/>
      <point x="376" y="460" type="curve" smooth="yes"/>
      <point x="268" y="501"/>
      <point x="160" y="544"/>
      <point x="160" y="678" type="curve" smooth="yes"/>
      <point x="160" y="784"/>
      <point x="236" y="853"/>
      <point x="355" y="853" type="curve" smooth="yes"/>
      <point x="439" y="853"/>
      <point x="503" y="820"/>
      <point x="559" y="774" type="curve" smooth="yes"/>
      <point x="573" y="763"/>
      <point x="579" y="759"/>
      <point x="590" y="770" type="curve" smooth="yes"/>
      <point x="599" y="779"/>
      <point x="599" y="785"/>
      <point x="588" y="795" type="curve" smooth="yes"/>
      <point x="535" y="843"/>
      <point x="461" y="890"/>
      <point x="355" y="890" type="curve" smooth="yes"/>
      <point x="229" y="890"/>
      <point x="120" y="810"/>
      <point x="120" y="678" type="curve" smooth="yes"/>
      <point x="120" y="523"/>
      <point x="238" y="475"/>
      <point x="355" y="429" type="curve" smooth="yes"/>
      <point x="463" y="386"/>
      <point x="566" y="348"/>
      <point x="566" y="226" type="curve" smooth="yes"/>
      <point x="566" y="100"/>
      <point x="471" y="19"/>
      <point x="336" y="19" type="curve" smooth="yes"/>
      <point x="246" y="19"/>
      <point x="166" y="46"/>
      <point x="115" y="101" type="curve" smooth="yes"/>
      <point x="103" y="115"/>
      <point x="95" y="114"/>
      <point x="86" y="106" type="curve" smooth="yes"/>
      <point x="76" y="98"/>
      <point x="76" y="90"/>
      <point x="88" y="78" type="curve" smooth="yes"/>
      <point x="144" y="13"/>
      <point x="239" y="-19"/>
    </contour>
  </outline>
</glyph>
<glyph name="Y" format="2">
  <advance width="613"/>
  <unicode hex="0059"/>
  <anchor x="300" y="0" name="bottom"/>
  <anchor x="306" y="838" name="top"/>
  <outline>
    <contour>
      <point x="300" y="-14" type="curve" smooth="yes"/>
      <point x="314" y="-14"/>
      <point x="319" y="-10"/>
      <point x="319" y="1" type="curve" smooth="yes"/>
      <point x="319" y="386" type="line"/>
      <point x="595" y="868" type="line" smooth="yes"/>
      <point x="600" y="878"/>
      <point x="599" y="883"/>
      <point x="586" y="889" type="curve" smooth="yes"/>
      <point x="575" y="894"/>
      <point x="570" y="890"/>
      <point x="561" y="874" type="curve" smooth="yes"/>
      <point x="300" y="416" type="line"/>
      <point x="51" y="874" type="line" smooth="yes"/>
      <point x="43" y="890"/>
      <point x="40" y="894"/>
      <point x="26" y="889" type="curve" smooth="yes"/>
      <point x="15" y="884"/>
      <point x="13" y="878"/>
      <point x="18" y="868" type="curve" smooth="yes"/>
      <point x="281" y="384" type="line"/>
      <point x="281" y="1" type="line" smooth="yes"/>
      <point x="281" y="-10"/>
      <point x="286" y="-14"/>
    </contour>
  </outline>
</glyph>
<glyph name="bracketright" format="2">
  <advance width="375"/>
  <unicode hex="005D"/>
  <outline>
    <contour>
      <point x="50" y="-57" type="curve" smooth="yes"/>
      <point x="50" y="-70"/>
      <point x="55" y="-75"/>
      <point x="61" y="-75" type="curve" smooth="yes"/>
      <point x="206" y="-75" type="line" smooth="yes"/>
      <point x="220" y="-75"/>
      <point x="225" y="-71"/>
      <point x="225" y="-60" type="curve" smooth="yes"/>
      <point x="225" y="935" type="line" smooth="yes"/>
      <point x="225" y="946"/>
      <point x="220" y="950"/>
      <point x="206" y="950" type="curve" smooth="yes"/>
      <point x="61" y="950" type="line" smooth="yes"/>
      <point x="55" y="950"/>
      <point x="50" y="945"/>
      <point x="50" y="933" type="curve" smooth="yes"/>
      <point x="50" y="920"/>
      <point x="55" y="915"/>
      <point x="61" y="915" type="curve" smooth="yes"/>
      <point x="188" y="915" type="line"/>
      <point x="188" y="-40" type="line"/>
      <point x="61" y="-40" type="line" smooth="yes"/>
      <point x="55" y="-40"/>
      <point x="50" y="-45"/>
    </contour>
  </outline>
</glyph>
<glyph name="asciicircum" format="2">
  <advance width="763"/>
  <unicode hex="005E"/>
  <outline>
    <contour>
      <point x="129" y="500" type="line" smooth="yes"/>
      <point x="123" y="490"/>
      <point x="123" y="483"/>
      <point x="134" y="475" type="curve" smooth="yes"/>
      <point x="146" y="468"/>
      <point x="154" y="471"/>
      <point x="160" y="481" type="curve" smooth="yes"/>
      <point x="381" y="850" type="line"/>
      <point x="603" y="481" type="line" smooth="yes"/>
      <point x="609" y="471"/>
      <point x="616" y="468"/>
      <point x="628" y="475" type="curve" smooth="yes"/>
      <point x="640" y="483"/>
      <point x="640" y="490"/>
      <point x="634" y="500" type="curve" smooth="yes"/>
      <point x="418" y="859" type="line" smooth="yes"/>
      <point x="405" y="880"/>
      <point x="399" y="890"/>
      <point x="381" y="890" type="curve" smooth="yes"/>
      <point x="365" y="890"/>
      <point x="358" y="880"/>
      <point x="345" y="859" type="curve" smooth="yes"/>
    </contour>
  </outline>
</glyph>
<glyph name="c" format="2">
  <advance width="523"/>
  <unicode hex="0063"/>
  <anchor x="286" y="0" name="bottom"/>
  <anchor x="283" y="500" name="top"/>
  <outline>
    <contour>
      <point x="298" y="-19" type="curve" smooth="yes"/>
      <point x="360" y="-19"/>
      <point x="433" y="11"/>
      <point x="475" y="74" type="curve" smooth="yes"/>
      <point x="480" y="81"/>
      <point x="476" y="89"/>
      <point x="469" y="94" type="curve" smooth="yes"/>
      <point x="461" y="99"/>
      <point x="453" y="100"/>
      <point x="446" y="93" type="curve" smooth="yes"/>
      <point x="400" y="36"/>
      <point x="359" y="15"/>
      <point x="299" y="15" type="curve" smooth="yes"/>
      <point x="170" y="15"/>
      <point x="114" y="111"/>
      <point x="114" y="243" type="curve" smooth="yes"/>
      <point x="114" y="396"/>
      <point x="185" y="485"/>
      <point x="293" y="485" type="curve" smooth="yes"/>
      <point x="353" y="485"/>
      <point x="388" y="464"/>
      <point x="428" y="424" type="curve" smooth="yes"/>
      <point x="433" y="419"/>
      <point x="441" y="415"/>
      <point x="450" y="424" type="curve" smooth="yes"/>
      <point x="461" y="435"/>
      <point x="460" y="441"/>
      <point x="455" y="448" type="curve" smooth="yes"/>
      <point x="421" y="486"/>
      <point x="358" y="519"/>
      <point x="296" y="519" type="curve" smooth="yes"/>
      <point x="154" y="519"/>
      <point x="75" y="401"/>
      <point x="75" y="239" type="curve" smooth="yes"/>
      <point x="75" y="76"/>
      <point x="160" y="-19"/>
    </contour>
  </outline>
</glyph>
<glyph name="l" format="2">
  <advance width="300"/>
  <unicode hex="006C"/>
  <anchor x="178" y="438" name="CAT"/>
  <anchor x="201" y="0" name="bottom"/>
  <anchor x="135" y="638" name="center"/>
  <anchor x="131" y="838" name="top"/>
  <anchor x="150" y="875" name="topright"/>
  <outline>
    <contour>
      <point x="191" y="-17" type="curve" smooth="yes"/>
      <point x="229" y="-17"/>
      <point x="267" y="4"/>
      <point x="290" y="35" type="curve" smooth="yes"/>
      <point x="295" y="43"/>
      <point x="292" y="49"/>
      <point x="286" y="55" type="curve" smooth="yes"/>
      <point x="279" y="63"/>
      <point x="271" y="61"/>
      <point x="265" y="53" type="curve" smooth="yes"/>
      <point x="242" y="26"/>
      <point x="219" y="18"/>
      <point x="197" y="18" type="curve" smooth="yes"/>
      <point x="162" y="18"/>
      <point x="150" y="45"/>
      <point x="150" y="93" type="curve" smooth="yes"/>
      <point x="150" y="875" type="line" smooth="yes"/>
      <point x="150" y="886"/>
      <point x="144" y="890"/>
      <point x="131" y="890" type="curve" smooth="yes"/>
      <point x="119" y="890"/>
      <point x="114" y="886"/>
      <point x="114" y="875" type="curve" smooth="yes"/>
      <point x="114" y="80" type="line" smooth="yes"/>
      <point x="114" y="14"/>
      <point x="145" y="-17"/>
    </contour>
  </outline>
</glyph>
<glyph name="v" format="2">
  <advance width="509"/>
  <unicode hex="0076"/>
  <outline>
    <contour>
      <point x="254" y="-15" type="curve" smooth="yes"/>
      <point x="266" y="-15"/>
      <point x="268" y="-10"/>
      <point x="271" y="0" type="curve" smooth="yes"/>
      <point x="469" y="493" type="line" smooth="yes"/>
      <point x="475" y="508"/>
      <point x="468" y="515"/>
      <point x="451" y="515" type="curve" smooth="yes"/>
      <point x="439" y="515"/>
      <point x="435" y="510"/>
      <point x="431" y="500" type="curve" smooth="yes"/>
      <point x="255" y="45" type="line"/>
      <point x="76" y="500" type="line" smooth="yes"/>
      <point x="73" y="510"/>
      <point x="69" y="515"/>
      <point x="56" y="515" type="curve" smooth="yes"/>
      <point x="41" y="515"/>
      <point x="34" y="504"/>
      <point x="39" y="493" type="curve" smooth="yes"/>
      <point x="236" y="0" type="line" smooth="yes"/>
      <point x="240" y="-10"/>
      <point x="241" y="-15"/>
    </contour>
  </outline>
</glyph>
<glyph name="braceright" format="2">
  <advance width="329"/>
  <unicode hex="007D"/>
  <outline>
    <contour>
      <point x="61" y="-75" type="curve" smooth="yes"/>
      <point x="166" y="-75"/>
      <point x="229" y="-20"/>
      <point x="229" y="66" type="curve" smooth="yes"/>
      <point x="229" y="168"/>
      <point x="149" y="195"/>
      <point x="149" y="305" type="curve" smooth="yes"/>
      <point x="149" y="371"/>
      <point x="183" y="406"/>
      <point x="266" y="420" type="curve" smooth="yes"/>
      <point x="274" y="421"/>
      <point x="279" y="425"/>
      <point x="279" y="438" type="curve" smooth="yes"/>
      <point x="279" y="450"/>
      <point x="274" y="454"/>
      <point x="266" y="455" type="curve" smooth="yes"/>
      <point x="183" y="469"/>
      <point x="149" y="504"/>
      <point x="149" y="570" type="curve" smooth="yes"/>
      <point x="149" y="680"/>
      <point x="229" y="708"/>
      <point x="229" y="809" type="curve" smooth="yes"/>
      <point x="229" y="895"/>
      <point x="166" y="950"/>
      <point x="61" y="950" type="curve" smooth="yes"/>
      <point x="55" y="950"/>
      <point x="50" y="945"/>
      <point x="50" y="933" type="curve" smooth="yes"/>
      <point x="50" y="920"/>
      <point x="55" y="915"/>
      <point x="61" y="915" type="curve" smooth="yes"/>
      <point x="145" y="915"/>
      <point x="191" y="874"/>
      <point x="191" y="808" type="curve" smooth="yes"/>
      <point x="191" y="729"/>
      <point x="113" y="681"/>
      <point x="113" y="570" type="curve" smooth="yes"/>
      <point x="113" y="515"/>
      <point x="143" y="454"/>
      <point x="225" y="438" type="curve"/>
      <point x="143" y="421"/>
      <point x="113" y="360"/>
      <point x="113" y="305" type="curve" smooth="yes"/>
      <point x="113" y="194"/>
      <point x="191" y="146"/>
      <point x="191" y="68" type="curve" smooth="yes"/>
      <point x="191" y="1"/>
      <point x="145" y="-40"/>
      <point x="61" y="-40" type="curve" smooth="yes"/>
      <point x="55" y="-40"/>
      <point x="50" y="-45"/>
      <point x="50" y="-57" type="curve" smooth="yes"/>
      <point x="50" y="-70"/>
      <point x="55" y="-75"/>
    </contour>
  </outline>
</glyph>
<glyph name="asciitilde" format="2">
  <advance width="763"/>
  <unicode hex="007E"/>
  <outline>
    <contour>
      <point x="516" y="341" type="curve" smooth="yes"/>
      <point x="594" y="341"/>
      <point x="660" y="399"/>
      <point x="663" y="513" type="curve" smooth="yes"/>
      <point x="663" y="523"/>
      <point x="658" y="526"/>
      <point x="645" y="526" type="curve" smooth="yes"/>
      <point x="633" y="526"/>
      <point x="628" y="523"/>
      <point x="628" y="514" type="curve" smooth="yes"/>
      <point x="625" y="414"/>
      <point x="573" y="375"/>
      <point x="516" y="375" type="curve" smooth="yes"/>
      <point x="459" y="375"/>
      <point x="428" y="411"/>
      <point x="394" y="449" type="curve" smooth="yes"/>
      <point x="359" y="490"/>
      <point x="320" y="531"/>
      <point x="248" y="531" type="curve" smooth="yes"/>
      <point x="170" y="531"/>
      <point x="103" y="474"/>
      <point x="100" y="360" type="curve" smooth="yes"/>
      <point x="100" y="350"/>
      <point x="105" y="346"/>
      <point x="118" y="346" type="curve" smooth="yes"/>
      <point x="130" y="346"/>
      <point x="135" y="350"/>
      <point x="135" y="359" type="curve" smooth="yes"/>
      <point x="138" y="459"/>
      <point x="191" y="498"/>
      <point x="248" y="498" type="curve" smooth="yes"/>
      <point x="305" y="498"/>
      <point x="336" y="461"/>
      <point x="369" y="424" type="curve" smooth="yes"/>
      <point x="405" y="384"/>
      <point x="443" y="341"/>
    </contour>
  </outline>
</glyph>
<glyph name="cent" format="2">
  <advance width="530"/>
  <unicode hex="00A2"/>
  <outline>
    <contour>
      <point x="285" y="-19" type="curve" smooth="yes"/>
      <point x="348" y="-19"/>
      <point x="420" y="11"/>
      <point x="463" y="74" type="curve" smooth="yes"/>
      <point x="468" y="81"/>
      <point x="464" y="89"/>
      <point x="456" y="94" type="curve" smooth="yes"/>
      <point x="449" y="99"/>
      <point x="440" y="100"/>
      <point x="434" y="93" type="curve" smooth="yes"/>
      <point x="388" y="36"/>
      <point x="346" y="15"/>
      <point x="286" y="15" type="curve" smooth="yes"/>
      <point x="158" y="15"/>
      <point x="101" y="111"/>
      <point x="101" y="243" type="curve" smooth="yes"/>
      <point x="101" y="396"/>
      <point x="173" y="485"/>
      <point x="280" y="485" type="curve" smooth="yes"/>
      <point x="340" y="485"/>
      <point x="375" y="464"/>
      <point x="415" y="424" type="curve" smooth="yes"/>
      <point x="420" y="419"/>
      <point x="429" y="415"/>
      <point x="438" y="424" type="curve" smooth="yes"/>
      <point x="449" y="435"/>
      <point x="448" y="441"/>
      <point x="443" y="448" type="curve" smooth="yes"/>
      <point x="409" y="486"/>
      <point x="345" y="519"/>
      <point x="284" y="519" type="curve" smooth="yes"/>
      <point x="141" y="519"/>
      <point x="63" y="401"/>
      <point x="63" y="239" type="curve" smooth="yes"/>
      <point x="63" y="76"/>
      <point x="148" y="-19"/>
    </contour>
    <contour>
      <point x="275" y="-126" type="curve" smooth="yes"/>
      <point x="289" y="-126"/>
      <point x="294" y="-122"/>
      <point x="294" y="-111" type="curve" smooth="yes"/>
      <point x="294" y="625" type="line" smooth="yes"/>
      <point x="294" y="636"/>
      <point x="288" y="640"/>
      <point x="275" y="640" type="curve" smooth="yes"/>
      <point x="261" y="640"/>
      <point x="256" y="636"/>
      <point x="256" y="625" type="curve" smooth="yes"/>
      <point x="256" y="-111" type="line" smooth="yes"/>
      <point x="256" y="-122"/>
      <point x="261" y="-126"/>
    </contour>
  </outline>
</glyph>
<glyph name="sterling" format="2">
  <advance width="675"/>
  <unicode hex="00A3"/>
  <outline>
    <contour>
      <point x="59" y="0" type="curve" smooth="yes"/>
      <point x="633" y="0" type="line" smooth="yes"/>
      <point x="639" y="0"/>
      <point x="644" y="6"/>
      <point x="644" y="19" type="curve" smooth="yes"/>
      <point x="644" y="31"/>
      <point x="639" y="35"/>
      <point x="633" y="35" type="curve" smooth="yes"/>
      <point x="246" y="35" type="line"/>
      <point x="246" y="360" type="line"/>
      <point x="475" y="360" type="line" smooth="yes"/>
      <point x="481" y="360"/>
      <point x="486" y="366"/>
      <point x="486" y="379" type="curve" smooth="yes"/>
      <point x="486" y="391"/>
      <point x="481" y="395"/>
      <point x="475" y="395" type="curve" smooth="yes"/>
      <point x="246" y="395" type="line"/>
      <point x="246" y="669" type="line" smooth="yes"/>
      <point x="246" y="788"/>
      <point x="311" y="853"/>
      <point x="416" y="853" type="curve" smooth="yes"/>
      <point x="479" y="853"/>
      <point x="533" y="836"/>
      <point x="598" y="786" type="curve" smooth="yes"/>
      <point x="608" y="779"/>
      <point x="616" y="778"/>
      <point x="626" y="789" type="curve" smooth="yes"/>
      <point x="636" y="800"/>
      <point x="631" y="808"/>
      <point x="623" y="815" type="curve" smooth="yes"/>
      <point x="561" y="866"/>
      <point x="495" y="890"/>
      <point x="416" y="890" type="curve" smooth="yes"/>
      <point x="295" y="890"/>
      <point x="209" y="810"/>
      <point x="209" y="671" type="curve" smooth="yes"/>
      <point x="209" y="395" type="line"/>
      <point x="86" y="395" type="line" smooth="yes"/>
      <point x="80" y="395"/>
      <point x="75" y="390"/>
      <point x="75" y="378" type="curve" smooth="yes"/>
      <point x="75" y="365"/>
      <point x="80" y="360"/>
      <point x="86" y="360" type="curve" smooth="yes"/>
      <point x="209" y="360" type="line"/>
      <point x="209" y="35" type="line"/>
      <point x="59" y="35" type="line" smooth="yes"/>
      <point x="53" y="35"/>
      <point x="48" y="31"/>
      <point x="48" y="19" type="curve" smooth="yes"/>
      <point x="48" y="6"/>
      <point x="53" y="0"/>
    </contour>
  </outline>
</glyph>
<glyph name="section" format="2">
  <advance width="666"/>
  <unicode hex="00A7"/>
  <outline>
    <contour>
      <point x="321" y="-394" type="curve" smooth="yes"/>
      <point x="445" y="-394"/>
      <point x="564" y="-310"/>
      <point x="564" y="-162" type="curve" smooth="yes"/>
      <point x="564" y="-76"/>
      <point x="526" y="-22"/>
      <point x="472" y="18" type="curve"/>
      <point x="545" y="68"/>
      <point x="598" y="139"/>
      <point x="598" y="236" type="curve" smooth="yes"/>
      <point x="598" y="525"/>
      <point x="161" y="440"/>
      <point x="161" y="684" type="curve" smooth="yes"/>
      <point x="161" y="786"/>
      <point x="228" y="853"/>
      <point x="343" y="853" type="curve" smooth="yes"/>
      <point x="421" y="853"/>
      <point x="481" y="823"/>
      <point x="538" y="776" type="curve" smooth="yes"/>
      <point x="551" y="765"/>
      <point x="558" y="761"/>
      <point x="569" y="773" type="curve" smooth="yes"/>
      <point x="578" y="781"/>
      <point x="578" y="788"/>
      <point x="566" y="798" type="curve" smooth="yes"/>
      <point x="514" y="845"/>
      <point x="444" y="890"/>
      <point x="343" y="890" type="curve" smooth="yes"/>
      <point x="220" y="890"/>
      <point x="121" y="813"/>
      <point x="121" y="684" type="curve" smooth="yes"/>
      <point x="121" y="608"/>
      <point x="155" y="560"/>
      <point x="205" y="523" type="curve"/>
      <point x="132" y="472"/>
      <point x="80" y="403"/>
      <point x="80" y="305" type="curve" smooth="yes"/>
      <point x="80" y="20"/>
      <point x="524" y="104"/>
      <point x="524" y="-162" type="curve" smooth="yes"/>
      <point x="524" y="-284"/>
      <point x="428" y="-356"/>
      <point x="321" y="-356" type="curve" smooth="yes"/>
      <point x="233" y="-356"/>
      <point x="168" y="-327"/>
      <point x="111" y="-276" type="curve" smooth="yes"/>
      <point x="98" y="-264"/>
      <point x="93" y="-261"/>
      <point x="81" y="-272" type="curve" smooth="yes"/>
      <point x="73" y="-281"/>
      <point x="75" y="-291"/>
      <point x="86" y="-301" type="curve" smooth="yes"/>
      <point x="145" y="-357"/>
      <point x="216" y="-394"/>
    </contour>
    <contour>
      <point x="441" y="38" type="curve"/>
      <point x="310" y="117"/>
      <point x="120" y="141"/>
      <point x="120" y="305" type="curve" smooth="yes"/>
      <point x="120" y="390"/>
      <point x="169" y="457"/>
      <point x="237" y="503" type="curve"/>
      <point x="366" y="427"/>
      <point x="558" y="403"/>
      <point x="558" y="236" type="curve" smooth="yes"/>
      <point x="558" y="150"/>
      <point x="509" y="83"/>
    </contour>
  </outline>
</glyph>
<glyph name="copyright" format="2">
  <advance width="905"/>
  <unicode hex="00A9"/>
  <outline>
    <contour>
      <point x="453" y="73" type="curve" smooth="yes"/>
      <point x="653" y="73"/>
      <point x="811" y="231"/>
      <point x="811" y="431" type="curve" smooth="yes"/>
      <point x="811" y="631"/>
      <point x="653" y="790"/>
      <point x="453" y="790" type="curve" smooth="yes"/>
      <point x="253" y="790"/>
      <point x="94" y="631"/>
      <point x="94" y="431" type="curve" smooth="yes"/>
      <point x="94" y="231"/>
      <point x="253" y="73"/>
    </contour>
    <contour>
      <point x="453" y="103" type="curve" smooth="yes"/>
      <point x="271" y="103"/>
      <point x="124" y="250"/>
      <point x="124" y="431" type="curve" smooth="yes"/>
      <point x="124" y="613"/>
      <point x="271" y="760"/>
      <point x="453" y="760" type="curve" smooth="yes"/>
      <point x="634" y="760"/>
      <point x="781" y="613"/>
      <point x="781" y="431" type="curve" smooth="yes"/>
      <point x="781" y="250"/>
      <point x="634" y="103"/>
    </contour>
    <contour>
      <point x="459" y="229" type="curve" smooth="yes"/>
      <point x="504" y="229"/>
      <point x="548" y="250"/>
      <point x="584" y="300" type="curve" smooth="yes"/>
      <point x="588" y="305"/>
      <point x="586" y="311"/>
      <point x="580" y="316" type="curve" smooth="yes"/>
      <point x="573" y="323"/>
      <point x="565" y="324"/>
      <point x="561" y="319" type="curve" smooth="yes"/>
      <point x="529" y="283"/>
      <point x="496" y="264"/>
      <point x="459" y="264" type="curve" smooth="yes"/>
      <point x="381" y="264"/>
      <point x="326" y="326"/>
      <point x="326" y="434" type="curve" smooth="yes"/>
      <point x="326" y="540"/>
      <point x="383" y="604"/>
      <point x="460" y="604" type="curve" smooth="yes"/>
      <point x="495" y="604"/>
      <point x="529" y="590"/>
      <point x="550" y="569" type="curve" smooth="yes"/>
      <point x="555" y="563"/>
      <point x="561" y="561"/>
      <point x="570" y="569" type="curve" smooth="yes"/>
      <point x="576" y="574"/>
      <point x="579" y="579"/>
      <point x="574" y="586" type="curve" smooth="yes"/>
      <point x="545" y="626"/>
      <point x="503" y="638"/>
      <point x="460" y="638" type="curve" smooth="yes"/>
      <point x="356" y="638"/>
      <point x="289" y="553"/>
      <point x="289" y="434" type="curve" smooth="yes"/>
      <point x="289" y="314"/>
      <point x="355" y="229"/>
    </contour>
  </outline>
</glyph>
<glyph name="ordfeminine" format="2">
  <advance width="479"/>
  <unicode hex="00AA"/>
  <outline>
    <contour>
      <point x="205" y="486" type="curve" smooth="yes"/>
      <point x="254" y="486"/>
      <point x="305" y="508"/>
      <point x="338" y="574" type="curve"/>
      <point x="338" y="569"/>
      <point x="338" y="563"/>
      <point x="338" y="558" type="curve" smooth="yes"/>
      <point x="338" y="513"/>
      <point x="363" y="486"/>
      <point x="403" y="486" type="curve" smooth="yes"/>
      <point x="430" y="486"/>
      <point x="459" y="503"/>
      <point x="476" y="526" type="curve" smooth="yes"/>
      <point x="480" y="531"/>
      <point x="479" y="540"/>
      <point x="474" y="545" type="curve" smooth="yes"/>
      <point x="468" y="551"/>
      <point x="461" y="550"/>
      <point x="456" y="545" type="curve" smooth="yes"/>
      <point x="440" y="526"/>
      <point x="423" y="518"/>
      <point x="408" y="518" type="curve" smooth="yes"/>
      <point x="383" y="518"/>
      <point x="371" y="535"/>
      <point x="371" y="569" type="curve" smooth="yes"/>
      <point x="371" y="884" type="line" smooth="yes"/>
      <point x="371" y="893"/>
      <point x="368" y="896"/>
      <point x="355" y="896" type="curve" smooth="yes"/>
      <point x="344" y="896"/>
      <point x="338" y="893"/>
      <point x="338" y="884" type="curve" smooth="yes"/>
      <point x="338" y="869" type="line"/>
      <point x="303" y="890"/>
      <point x="268" y="900"/>
      <point x="235" y="900" type="curve" smooth="yes"/>
      <point x="120" y="900"/>
      <point x="56" y="810"/>
      <point x="56" y="684" type="curve" smooth="yes"/>
      <point x="56" y="558"/>
      <point x="120" y="486"/>
    </contour>
    <contour>
      <point x="94" y="686" type="curve" smooth="yes"/>
      <point x="94" y="803"/>
      <point x="149" y="868"/>
      <point x="234" y="868" type="curve" smooth="yes"/>
      <point x="266" y="868"/>
      <point x="300" y="860"/>
      <point x="338" y="835" type="curve"/>
      <point x="338" y="641" type="line"/>
      <point x="314" y="549"/>
      <point x="261" y="519"/>
      <point x="213" y="519" type="curve" smooth="yes"/>
      <point x="134" y="519"/>
      <point x="94" y="589"/>
    </contour>
  </outline>
</glyph>
<glyph name="registered" format="2">
  <advance width="683"/>
  <unicode hex="00AE"/>
  <outline>
    <contour>
      <point x="341" y="428" type="curve" smooth="yes"/>
      <point x="499" y="428"/>
      <point x="623" y="551"/>
      <point x="623" y="709" type="curve" smooth="yes"/>
      <point x="623" y="866"/>
      <point x="499" y="990"/>
      <point x="341" y="990" type="curve" smooth="yes"/>
      <point x="184" y="990"/>
      <point x="60" y="866"/>
      <point x="60" y="709" type="curve" smooth="yes"/>
      <point x="60" y="551"/>
      <point x="184" y="428"/>
    </contour>
    <contour>
      <point x="341" y="458" type="curve" smooth="yes"/>
      <point x="201" y="458"/>
      <point x="90" y="569"/>
      <point x="90" y="709" type="curve" smooth="yes"/>
      <point x="90" y="849"/>
      <point x="201" y="960"/>
      <point x="341" y="960" type="curve" smooth="yes"/>
      <point x="481" y="960"/>
      <point x="593" y="849"/>
      <point x="593" y="709" type="curve" smooth="yes"/>
      <point x="593" y="569"/>
      <point x="481" y="458"/>
    </contour>
    <contour>
      <point x="261" y="536" type="curve" smooth="yes"/>
      <point x="271" y="536"/>
      <point x="279" y="539"/>
      <point x="279" y="546" type="curve" smooth="yes"/>
      <point x="279" y="694" type="line"/>
      <point x="324" y="641"/>
      <point x="373" y="591"/>
      <point x="436" y="539" type="curve" smooth="yes"/>
      <point x="444" y="533"/>
      <point x="451" y="534"/>
      <point x="458" y="540" type="curve" smooth="yes"/>
      <point x="466" y="549"/>
      <point x="464" y="558"/>
      <point x="459" y="561" type="curve" smooth="yes"/>
      <point x="405" y="604"/>
      <point x="363" y="645"/>
      <point x="315" y="699" type="curve"/>
      <point x="401" y="705"/>
      <point x="449" y="749"/>
      <point x="449" y="806" type="curve" smooth="yes"/>
      <point x="449" y="869"/>
      <point x="410" y="891"/>
      <point x="328" y="891" type="curve" smooth="yes"/>
      <point x="263" y="891" type="line" smooth="yes"/>
      <point x="250" y="891"/>
      <point x="245" y="888"/>
      <point x="245" y="881" type="curve" smooth="yes"/>
      <point x="245" y="546" type="line" smooth="yes"/>
      <point x="245" y="539"/>
      <point x="251" y="536"/>
    </contour>
    <contour>
      <point x="279" y="725" type="curve"/>
      <point x="279" y="861" type="line"/>
      <point x="333" y="861" type="line" smooth="yes"/>
      <point x="389" y="861"/>
      <point x="414" y="846"/>
      <point x="414" y="806" type="curve" smooth="yes"/>
      <point x="414" y="754"/>
      <point x="370" y="726"/>
    </contour>
  </outline>
</glyph>
<glyph name="plusminus" format="2">
  <advance width="763"/>
  <unicode hex="00B1"/>
  <outline>
    <contour>
      <point x="380" y="230" type="curve" smooth="yes"/>
      <point x="393" y="230"/>
      <point x="399" y="234"/>
      <point x="399" y="245" type="curve" smooth="yes"/>
      <point x="399" y="703" type="line" smooth="yes"/>
      <point x="399" y="714"/>
      <point x="393" y="718"/>
      <point x="380" y="718" type="curve" smooth="yes"/>
      <point x="369" y="718"/>
      <point x="364" y="714"/>
      <point x="364" y="703" type="curve" smooth="yes"/>
      <point x="364" y="245" type="line" smooth="yes"/>
      <point x="364" y="234"/>
      <point x="369" y="230"/>
    </contour>
    <component base="minus" yOffset="-315"/>
    <component base="minus" yOffset="38"/>
  </outline>
</glyph>
<glyph name="AE" format="2">
  <advance width="964"/>
  <unicode hex="00C6"/>
  <anchor x="669" y="838" name="top"/>
  <outline>
    <contour>
      <point x="903" y="0" type="line" smooth="yes"/>
      <point x="909" y="0"/>
      <point x="914" y="5"/>
      <point x="914" y="18" type="curve" smooth="yes"/>
      <point x="914" y="30"/>
      <point x="909" y="35"/>
      <point x="903" y="35" type="curve" smooth="yes"/>
      <point x="539" y="35" type="line"/>
      <point x="539" y="420" type="line"/>
      <point x="840" y="420" type="line" smooth="yes"/>
      <point x="846" y="420"/>
      <point x="851" y="425"/>
      <point x="851" y="438" type="curve" smooth="yes"/>
      <point x="851" y="450"/>
      <point x="846" y="455"/>
      <point x="840" y="455" type="curve" smooth="yes"/>
      <point x="539" y="455" type="line"/>
      <point x="539" y="840" type="line"/>
      <point x="903" y="840" type="line" smooth="yes"/>
      <point x="909" y="840"/>
      <point x="914" y="845"/>
      <point x="914" y="858" type="curve" smooth="yes"/>
      <point x="914" y="870"/>
      <point x="909" y="875"/>
      <point x="903" y="875" type="curve" smooth="yes"/>
      <point x="499" y="875" type="line" smooth="yes"/>
      <point x="485" y="875"/>
      <point x="479" y="871"/>
      <point x="473" y="860" type="curve" smooth="yes"/>
      <point x="30" y="16" type="line" smooth="yes"/>
      <point x="23" y="3"/>
      <point x="24" y="-4"/>
      <point x="35" y="-10" type="curve" smooth="yes"/>
      <point x="48" y="-16"/>
      <point x="55" y="-14"/>
      <point x="63" y="1" type="curve" smooth="yes"/>
      <point x="282" y="420" type="line"/>
      <point x="501" y="420" type="line"/>
      <point x="501" y="15" type="line" smooth="yes"/>
      <point x="501" y="4"/>
      <point x="506" y="0"/>
      <point x="520" y="0" type="curve" smooth="yes"/>
    </contour>
    <contour>
      <point x="300" y="455" type="line"/>
      <point x="501" y="839" type="line"/>
      <point x="501" y="455" type="line"/>
    </contour>
  </outline>
</glyph>
<glyph name="multiply" format="2">
  <advance width="763"/>
  <unicode hex="00D7"/>
  <outline>
    <contour>
      <point x="581" y="238" type="curve" smooth="yes"/>
      <point x="590" y="246"/>
      <point x="591" y="254"/>
      <point x="584" y="261" type="curve" smooth="yes"/>
      <point x="407" y="437" type="line"/>
      <point x="583" y="613" type="line" smooth="yes"/>
      <point x="590" y="620"/>
      <point x="589" y="628"/>
      <point x="580" y="636" type="curve" smooth="yes"/>
      <point x="571" y="644"/>
      <point x="566" y="645"/>
      <point x="558" y="638" type="curve" smooth="yes"/>
      <point x="382" y="462" type="line"/>
      <point x="206" y="638" type="line" smooth="yes"/>
      <point x="199" y="646"/>
      <point x="191" y="644"/>
      <point x="183" y="635" type="curve" smooth="yes"/>
      <point x="175" y="628"/>
      <point x="174" y="621"/>
      <point x="183" y="614" type="curve"/>
      <point x="358" y="438" type="line"/>
      <point x="181" y="260" type="line" smooth="yes"/>
      <point x="174" y="253"/>
      <point x="174" y="246"/>
      <point x="183" y="239" type="curve"/>
      <point x="191" y="230"/>
      <point x="198" y="228"/>
      <point x="206" y="236" type="curve" smooth="yes"/>
      <point x="383" y="413" type="line"/>
      <point x="559" y="236" type="line" smooth="yes"/>
      <point x="566" y="229"/>
      <point x="573" y="230"/>
    </contour>
  </outline>
</glyph>
<glyph name="eth" format="2">
  <advance width="603"/>
  <unicode hex="00F0"/>
  <outline>
    <contour>
      <point x="294" y="-19" type="curve" smooth="yes"/>
      <point x="420" y="-19"/>
      <point x="526" y="90"/>
      <point x="526" y="296" type="curve" smooth="yes"/>
      <point x="526" y="549"/>
      <point x="414" y="709"/>
      <point x="223" y="888" type="curve" smooth="yes"/>
      <point x="216" y="894"/>
      <point x="209" y="894"/>
      <point x="200" y="885" type="curve" smooth="yes"/>
      <point x="191" y="876"/>
      <point x="189" y="870"/>
      <point x="198" y="861" type="curve" smooth="yes"/>
      <point x="341" y="726"/>
      <point x="439" y="598"/>
      <point x="474" y="434" type="curve"/>
      <point x="429" y="490"/>
      <point x="373" y="519"/>
      <point x="304" y="519" type="curve" smooth="yes"/>
      <point x="178" y="519"/>
      <point x="88" y="408"/>
      <point x="88" y="250" type="curve" smooth="yes"/>
      <point x="88" y="90"/>
      <point x="159" y="-19"/>
    </contour>
    <contour>
      <point x="294" y="16" type="curve" smooth="yes"/>
      <point x="185" y="16"/>
      <point x="126" y="113"/>
      <point x="126" y="250" type="curve" smooth="yes"/>
      <point x="126" y="385"/>
      <point x="193" y="484"/>
      <point x="304" y="484" type="curve" smooth="yes"/>
      <point x="378" y="484"/>
      <point x="438" y="443"/>
      <point x="484" y="371" type="curve"/>
      <point x="487" y="347"/>
      <point x="488" y="322"/>
      <point x="488" y="296" type="curve" smooth="yes"/>
      <point x="488" y="105"/>
      <point x="396" y="16"/>
    </contour>
    <contour>
      <point x="229" y="625" type="curve" smooth="yes"/>
      <point x="501" y="750" type="line" smooth="yes"/>
      <point x="511" y="755"/>
      <point x="513" y="761"/>
      <point x="509" y="773" type="curve" smooth="yes"/>
      <point x="504" y="785"/>
      <point x="496" y="789"/>
      <point x="486" y="784" type="curve" smooth="yes"/>
      <point x="215" y="659" type="line" smooth="yes"/>
      <point x="204" y="654"/>
      <point x="203" y="646"/>
      <point x="206" y="636" type="curve" smooth="yes"/>
      <point x="211" y="624"/>
      <point x="219" y="620"/>
    </contour>
  </outline>
</glyph>
<glyph name="thorn" format="2">
  <advance width="598"/>
  <unicode hex="00FE"/>
  <outline>
    <contour>
      <point x="136" y="-390" type="curve" smooth="yes"/>
      <point x="149" y="-390"/>
      <point x="155" y="-386"/>
      <point x="155" y="-375" type="curve" smooth="yes"/>
      <point x="155" y="33" type="line"/>
      <point x="200" y="-1"/>
      <point x="243" y="-17"/>
      <point x="293" y="-17" type="curve" smooth="yes"/>
      <point x="441" y="-17"/>
      <point x="523" y="93"/>
      <point x="523" y="266" type="curve" smooth="yes"/>
      <point x="523" y="436"/>
      <point x="445" y="519"/>
      <point x="335" y="519" type="curve" smooth="yes"/>
      <point x="274" y="519"/>
      <point x="203" y="498"/>
      <point x="155" y="401" type="curve"/>
      <point x="155" y="875" type="line" smooth="yes"/>
      <point x="155" y="886"/>
      <point x="150" y="890"/>
      <point x="138" y="890" type="curve" smooth="yes"/>
      <point x="125" y="890"/>
      <point x="119" y="886"/>
      <point x="119" y="875" type="curve" smooth="yes"/>
      <point x="119" y="-375" type="line" smooth="yes"/>
      <point x="119" y="-386"/>
      <point x="124" y="-390"/>
    </contour>
    <contour>
      <point x="155" y="70" type="curve"/>
      <point x="155" y="328" type="line"/>
      <point x="193" y="441"/>
      <point x="256" y="484"/>
      <point x="328" y="484" type="curve" smooth="yes"/>
      <point x="433" y="484"/>
      <point x="483" y="400"/>
      <point x="483" y="263" type="curve" smooth="yes"/>
      <point x="483" y="98"/>
      <point x="409" y="16"/>
      <point x="296" y="16" type="curve" smooth="yes"/>
      <point x="249" y="16"/>
      <point x="204" y="31"/>
    </contour>
  </outline>
</glyph>
<glyph name="eng" format="2">
  <advance width="613"/>
  <unicode hex="014B"/>
  <outline>
    <contour>
      <point x="503" y="-122" type="curve" smooth="yes"/>
      <point x="503" y="334" type="line" smooth="yes"/>
      <point x="503" y="465"/>
      <point x="433" y="519"/>
      <point x="341" y="519" type="curve" smooth="yes"/>
      <point x="275" y="519"/>
      <point x="193" y="496"/>
      <point x="149" y="395" type="curve"/>
      <point x="149" y="500" type="line" smooth="yes"/>
      <point x="149" y="511"/>
      <point x="143" y="515"/>
      <point x="130" y="515" type="curve" smooth="yes"/>
      <point x="118" y="515"/>
      <point x="113" y="511"/>
      <point x="113" y="500" type="curve" smooth="yes"/>
      <point x="113" y="0" type="line" smooth="yes"/>
      <point x="113" y="-11"/>
      <point x="118" y="-15"/>
      <point x="130" y="-15" type="curve" smooth="yes"/>
      <point x="143" y="-15"/>
      <point x="149" y="-11"/>
      <point x="149" y="0" type="curve" smooth="yes"/>
      <point x="149" y="309" type="line"/>
      <point x="176" y="441"/>
      <point x="255" y="484"/>
      <point x="336" y="484" type="curve" smooth="yes"/>
      <point x="429" y="484"/>
      <point x="466" y="425"/>
      <point x="466" y="326" type="curve" smooth="yes"/>
      <point x="466" y="-120" type="line" smooth="yes"/>
      <point x="466" y="-180"/>
      <point x="454" y="-220"/>
      <point x="394" y="-220" type="curve" smooth="yes"/>
      <point x="359" y="-220"/>
      <point x="338" y="-200"/>
      <point x="323" y="-171" type="curve" smooth="yes"/>
      <point x="318" y="-162"/>
      <point x="311" y="-160"/>
      <point x="300" y="-166" type="curve" smooth="yes"/>
      <point x="291" y="-171"/>
      <point x="291" y="-180"/>
      <point x="294" y="-187" type="curve" smooth="yes"/>
      <point x="308" y="-226"/>
      <point x="345" y="-255"/>
      <point x="393" y="-255" type="curve" smooth="yes"/>
      <point x="471" y="-255"/>
      <point x="503" y="-201"/>
    </contour>
  </outline>
</glyph>
<glyph name="OE" format="2">
  <advance width="1278"/>
  <unicode hex="0152"/>
  <anchor x="700" y="838" name="top"/>
  <outline>
    <contour>
      <point x="445" y="-19" type="curve" smooth="yes"/>
      <point x="663" y="-19"/>
      <point x="796" y="159"/>
      <point x="796" y="436" type="curve" smooth="yes"/>
      <point x="796" y="713"/>
      <point x="673" y="890"/>
      <point x="450" y="890" type="curve" smooth="yes"/>
      <point x="238" y="890"/>
      <point x="94" y="713"/>
      <point x="94" y="436" type="curve" smooth="yes"/>
      <point x="94" y="159"/>
      <point x="233" y="-19"/>
    </contour>
    <contour>
      <point x="445" y="19" type="curve" smooth="yes"/>
      <point x="256" y="19"/>
      <point x="135" y="181"/>
      <point x="135" y="436" type="curve" smooth="yes"/>
      <point x="135" y="691"/>
      <point x="261" y="853"/>
      <point x="450" y="853" type="curve" smooth="yes"/>
      <point x="644" y="853"/>
      <point x="765" y="691"/>
      <point x="765" y="436" type="curve" smooth="yes"/>
      <point x="765" y="181"/>
      <point x="634" y="19"/>
    </contour>
    <contour>
      <point x="784" y="0" type="curve" smooth="yes"/>
      <point x="1216" y="0" type="line" smooth="yes"/>
      <point x="1223" y="0"/>
      <point x="1228" y="5"/>
      <point x="1228" y="18" type="curve" smooth="yes"/>
      <point x="1228" y="30"/>
      <point x="1223" y="35"/>
      <point x="1216" y="35" type="curve" smooth="yes"/>
      <point x="803" y="35" type="line"/>
      <point x="803" y="445" type="line"/>
      <point x="1154" y="445" type="line" smooth="yes"/>
      <point x="1160" y="445"/>
      <point x="1165" y="450"/>
      <point x="1165" y="463" type="curve" smooth="yes"/>
      <point x="1165" y="475"/>
      <point x="1160" y="480"/>
      <point x="1154" y="480" type="curve" smooth="yes"/>
      <point x="803" y="480" type="line"/>
      <point x="803" y="840" type="line"/>
      <point x="1216" y="840" type="line" smooth="yes"/>
      <point x="1223" y="840"/>
      <point x="1228" y="845"/>
      <point x="1228" y="858" type="curve" smooth="yes"/>
      <point x="1228" y="870"/>
      <point x="1223" y="875"/>
      <point x="1216" y="875" type="curve" smooth="yes"/>
      <point x="785" y="875" type="line" smooth="yes"/>
      <point x="771" y="875"/>
      <point x="765" y="871"/>
      <point x="765" y="860" type="curve" smooth="yes"/>
      <point x="765" y="15" type="line" smooth="yes"/>
      <point x="765" y="4"/>
      <point x="770" y="0"/>
    </contour>
  </outline>
</glyph>
<glyph name="oe" format="2">
  <advance width="901"/>
  <unicode hex="0153"/>
  <anchor x="484" y="500" name="top"/>
  <outline>
    <contour>
      <point x="291" y="-19" type="curve" smooth="yes"/>
      <point x="418" y="-19"/>
      <point x="499" y="90"/>
      <point x="499" y="250" type="curve" smooth="yes"/>
      <point x="499" y="410"/>
      <point x="414" y="519"/>
      <point x="291" y="519" type="curve" smooth="yes"/>
      <point x="166" y="519"/>
      <point x="75" y="410"/>
      <point x="75" y="250" type="curve" smooth="yes"/>
      <point x="75" y="90"/>
      <point x="155" y="-19"/>
    </contour>
    <contour>
      <point x="291" y="16" type="curve" smooth="yes"/>
      <point x="181" y="16"/>
      <point x="114" y="113"/>
      <point x="114" y="250" type="curve" smooth="yes"/>
      <point x="114" y="388"/>
      <point x="181" y="484"/>
      <point x="291" y="484" type="curve" smooth="yes"/>
      <point x="399" y="484"/>
      <point x="465" y="388"/>
      <point x="465" y="250" type="curve" smooth="yes"/>
      <point x="465" y="113"/>
      <point x="399" y="16"/>
    </contour>
    <contour>
      <point x="670" y="-17" type="curve" smooth="yes"/>
      <point x="771" y="-17"/>
      <point x="825" y="38"/>
      <point x="849" y="73" type="curve" smooth="yes"/>
      <point x="855" y="81"/>
      <point x="849" y="89"/>
      <point x="843" y="94" type="curve" smooth="yes"/>
      <point x="835" y="99"/>
      <point x="828" y="101"/>
      <point x="821" y="94" type="curve" smooth="yes"/>
      <point x="794" y="60"/>
      <point x="759" y="16"/>
      <point x="674" y="16" type="curve" smooth="yes"/>
      <point x="584" y="16"/>
      <point x="499" y="78"/>
      <point x="499" y="238" type="curve" smooth="yes"/>
      <point x="499" y="413"/>
      <point x="590" y="485"/>
      <point x="683" y="485" type="curve" smooth="yes"/>
      <point x="755" y="485"/>
      <point x="796" y="454"/>
      <point x="796" y="395" type="curve" smooth="yes"/>
      <point x="796" y="288"/>
      <point x="653" y="241"/>
      <point x="493" y="243" type="curve"/>
      <point x="493" y="209" type="line"/>
      <point x="684" y="210"/>
      <point x="836" y="270"/>
      <point x="836" y="396" type="curve" smooth="yes"/>
      <point x="836" y="456"/>
      <point x="796" y="519"/>
      <point x="686" y="519" type="curve" smooth="yes"/>
      <point x="548" y="519"/>
      <point x="465" y="403"/>
      <point x="465" y="229" type="curve" smooth="yes"/>
      <point x="465" y="89"/>
      <point x="544" y="-17"/>
    </contour>
  </outline>
</glyph>
<glyph name="ohorn" format="2">
  <advance width="589"/>
  <unicode hex="01A1"/>
  <anchor x="295" y="0" name="bottom"/>
  <anchor x="295" y="250" name="center"/>
  <anchor x="385" y="0" name="ogonek"/>
  <anchor x="295" y="500" name="top"/>
  <outline>
    <contour>
      <point x="295" y="-19" type="curve" smooth="yes"/>
      <point x="430" y="-19"/>
      <point x="514" y="90"/>
      <point x="514" y="250" type="curve" smooth="yes"/>
      <point x="514" y="354"/>
      <point x="476" y="437"/>
      <point x="414" y="482" type="curve"/>
      <point x="526" y="497"/>
      <point x="562" y="598"/>
      <point x="498" y="689" type="curve" smooth="yes"/>
      <point x="484" y="707"/>
      <point x="449" y="681"/>
      <point x="461" y="664" type="curve" smooth="yes"/>
      <point x="515" y="588"/>
      <point x="493" y="512"/>
      <point x="368" y="506" type="curve"/>
      <point x="346" y="515"/>
      <point x="321" y="519"/>
      <point x="295" y="519" type="curve" smooth="yes"/>
      <point x="168" y="519"/>
      <point x="75" y="410"/>
      <point x="75" y="250" type="curve" smooth="yes"/>
      <point x="75" y="90"/>
      <point x="156" y="-19"/>
    </contour>
    <contour>
      <point x="295" y="16" type="curve" smooth="yes"/>
      <point x="183" y="16"/>
      <point x="114" y="113"/>
      <point x="114" y="250" type="curve" smooth="yes"/>
      <point x="114" y="388"/>
      <point x="183" y="484"/>
      <point x="295" y="484" type="curve" smooth="yes"/>
      <point x="406" y="484"/>
      <point x="475" y="388"/>
      <point x="475" y="250" type="curve" smooth="yes"/>
      <point x="475" y="113"/>
      <point x="406" y="16"/>
    </contour>
  </outline>
</glyph>
<glyph name="tildecomb" format="2">
  <unicode hex="0303"/>
  <anchor x="0" y="500" name="_top"/>
  <anchor x="0" y="755" name="top"/>
  <outline>
    <contour>
      <point x="-155" y="655" type="curve" smooth="yes"/>
      <point x="-142" y="655"/>
      <point x="-139" y="659"/>
      <point x="-137" y="671" type="curve" smooth="yes"/>
      <point x="-134" y="721"/>
      <point x="-116" y="746"/>
      <point x="-85" y="746" type="curve" smooth="yes"/>
      <point x="-25" y="746"/>
      <point x="8" y="658"/>
      <point x="83" y="658" type="curve" smooth="yes"/>
      <point x="135" y="658"/>
      <point x="169" y="698"/>
      <point x="173" y="765" type="curve" smooth="yes"/>
      <point x="173" y="779"/>
      <point x="169" y="783"/>
      <point x="155" y="783" type="curve" smooth="yes"/>
      <point x="143" y="783"/>
      <point x="138" y="779"/>
      <point x="136" y="766" type="curve" smooth="yes"/>
      <point x="134" y="718"/>
      <point x="116" y="693"/>
      <point x="84" y="693" type="curve" smooth="yes"/>
      <point x="25" y="693"/>
      <point x="-6" y="781"/>
      <point x="-85" y="781" type="curve" smooth="yes"/>
      <point x="-135" y="781"/>
      <point x="-169" y="739"/>
      <point x="-172" y="673" type="curve" smooth="yes"/>
      <point x="-172" y="661"/>
      <point x="-166" y="655"/>
    </contour>
  </outline>
</glyph>
<glyph name="ogonekcomb" format="2">
  <unicode hex="0328"/>
  <anchor x="66" y="0" name="_ogonek"/>
  <outline>
    <contour>
      <point x="-22" y="-257" type="curve" smooth="yes"/>
      <point x="16" y="-257"/>
      <point x="63" y="-235"/>
      <point x="89" y="-199" type="curve" smooth="yes"/>
      <point x="95" y="-190"/>
      <point x="95" y="-182"/>
      <point x="86" y="-175" type="curve" smooth="yes"/>
      <point x="81" y="-170"/>
      <point x="73" y="-170"/>
      <point x="65" y="-179" type="curve" smooth="yes"/>
      <point x="38" y="-211"/>
      <point x="1" y="-225"/>
      <point x="-20" y="-225" type="curve" smooth="yes"/>
      <point x="-50" y="-225"/>
      <point x="-66" y="-204"/>
      <point x="-66" y="-167" type="curve" smooth="yes"/>
      <point x="-66" y="-106"/>
      <point x="1" y="-45"/>
      <point x="66" y="1" type="curve"/>
      <point x="66" y="5" type="line"/>
      <point x="30" y="5" type="line"/>
      <point x="-42" y="-45"/>
      <point x="-102" y="-107"/>
      <point x="-102" y="-170" type="curve" smooth="yes"/>
      <point x="-102" y="-227"/>
      <point x="-70" y="-257"/>
    </contour>
  </outline>
</glyph>
<glyph name="slashlongcomb" format="2">
  <unicode hex="0338"/>
  <anchor x="0" y="268" name="_center"/>
  <outline>
    <contour>
      <point x="-152" y="-41" type="curve" smooth="yes"/>
      <point x="186" y="555" type="line" smooth="yes"/>
      <point x="191" y="565"/>
      <point x="189" y="570"/>
      <point x="179" y="576" type="curve" smooth="yes"/>
      <point x="169" y="583"/>
      <point x="160" y="583"/>
      <point x="155" y="573" type="curve" smooth="yes"/>
      <point x="-184" y="-24" type="line" smooth="yes"/>
      <point x="-189" y="-32"/>
      <point x="-185" y="-40"/>
      <point x="-175" y="-46" type="curve" smooth="yes"/>
      <point x="-165" y="-51"/>
      <point x="-159" y="-51"/>
    </contour>
  </outline>
</glyph>
<glyph name="quoteleft" format="2">
  <advance width="181"/>
  <unicode hex="2018"/>
  <outline>
    <contour>
      <point x="93" y="645" type="curve" smooth="yes"/>
      <point x="112" y="645"/>
      <point x="119" y="656"/>
      <point x="119" y="670" type="curve" smooth="yes"/>
      <point x="119" y="780"/>
      <point x="124" y="804"/>
      <point x="153" y="860" type="curve" smooth="yes"/>
      <point x="157" y="868"/>
      <point x="161" y="873"/>
      <point x="161" y="878" type="curve" smooth="yes"/>
      <point x="161" y="886"/>
      <point x="147" y="894"/>
      <point x="137" y="894" type="curve" smooth="yes"/>
      <point x="130" y="894"/>
      <point x="124" y="888"/>
      <point x="118" y="880" type="curve" smooth="yes"/>
      <point x="80" y="823"/>
      <point x="65" y="761"/>
      <point x="65" y="673" type="curve" smooth="yes"/>
      <point x="65" y="659"/>
      <point x="72" y="645"/>
    </contour>
  </outline>
</glyph>
<glyph name="quoteright" format="2">
  <advance width="206"/>
  <unicode hex="2019"/>
  <outline>
    <contour>
      <point x="113" y="894" type="curve" smooth="yes"/>
      <point x="92" y="894"/>
      <point x="85" y="883"/>
      <point x="85" y="869" type="curve" smooth="yes"/>
      <point x="85" y="769"/>
      <point x="80" y="745"/>
      <point x="51" y="694" type="curve" smooth="yes"/>
      <point x="47" y="686"/>
      <point x="43" y="681"/>
      <point x="43" y="676" type="curve" smooth="yes"/>
      <point x="43" y="668"/>
      <point x="60" y="660"/>
      <point x="70" y="660" type="curve" smooth="yes"/>
      <point x="77" y="660"/>
      <point x="83" y="666"/>
      <point x="88" y="674" type="curve" smooth="yes"/>
      <point x="127" y="726"/>
      <point x="143" y="788"/>
      <point x="143" y="866" type="curve" smooth="yes"/>
      <point x="143" y="880"/>
      <point x="136" y="894"/>
    </contour>
  </outline>
</glyph>
<glyph name="A.cur_locl" format="2">
  <advance width="979"/>
  <guideline y="-11"/>
  <guideline x="606"/>
  <anchor x="390" y="0" name="bottom"/>
  <anchor x="915" y="13" name="ogonek"/>
  <anchor x="459" y="838" name="top"/>
  <outline>
    <contour>
      <point x="390" y="-17" type="curve" smooth="yes"/>
      <point x="541" y="-17"/>
      <point x="660" y="111"/>
      <point x="713" y="326" type="curve"/>
      <point x="713" y="139" type="line" smooth="yes"/>
      <point x="713" y="31"/>
      <point x="749" y="-17"/>
      <point x="828" y="-17" type="curve" smooth="yes"/>
      <point x="883" y="-17"/>
      <point x="923" y="8"/>
      <point x="958" y="65" type="curve" smooth="yes"/>
      <point x="963" y="73"/>
      <point x="960" y="81"/>
      <point x="951" y="86" type="curve"/>
      <point x="943" y="94"/>
      <point x="933" y="93"/>
      <point x="928" y="85" type="curve" smooth="yes"/>
      <point x="893" y="34"/>
      <point x="870" y="18"/>
      <point x="831" y="18" type="curve" smooth="yes"/>
      <point x="775" y="18"/>
      <point x="749" y="56"/>
      <point x="749" y="139" type="curve" smooth="yes"/>
      <point x="750" y="875" type="line" smooth="yes"/>
      <point x="750" y="886"/>
      <point x="745" y="890"/>
      <point x="731" y="890" type="curve" smooth="yes"/>
      <point x="718" y="890"/>
      <point x="713" y="886"/>
      <point x="713" y="874" type="curve" smooth="yes"/>
      <point x="713" y="755" type="line"/>
      <point x="655" y="839"/>
      <point x="561" y="890"/>
      <point x="461" y="890" type="curve" smooth="yes"/>
      <point x="240" y="890"/>
      <point x="81" y="694"/>
      <point x="81" y="420" type="curve" smooth="yes"/>
      <point x="81" y="146"/>
      <point x="198" y="-17"/>
    </contour>
    <contour>
      <point x="123" y="420" type="curve" smooth="yes"/>
      <point x="123" y="673"/>
      <point x="264" y="853"/>
      <point x="461" y="853" type="curve" smooth="yes"/>
      <point x="568" y="853"/>
      <point x="663" y="789"/>
      <point x="713" y="685" type="curve"/>
      <point x="713" y="476" type="line"/>
      <point x="676" y="194"/>
      <point x="555" y="20"/>
      <point x="394" y="20" type="curve" smooth="yes"/>
      <point x="223" y="20"/>
      <point x="123" y="168"/>
    </contour>
  </outline>
</glyph>
<glyph name="A.dec_locl" format="2">
  <advance width="1063"/>
  <anchor x="538" y="0" name="bottom"/>
  <anchor x="946" y="0" name="ogonek"/>
  <anchor x="563" y="838" name="top"/>
  <outline>
    <contour>
      <point x="136" y="-17" type="curve" smooth="yes"/>
      <point x="241" y="-17"/>
      <point x="333" y="53"/>
      <point x="424" y="303" type="curve"/>
      <point x="677" y="303" type="line"/>
      <point x="682" y="287"/>
      <point x="688" y="271"/>
      <point x="693" y="255" type="curve" smooth="yes"/>
      <point x="765" y="40"/>
      <point x="810" y="-17"/>
      <point x="884" y="-17" type="curve" smooth="yes"/>
      <point x="970" y="-17"/>
      <point x="1021" y="65"/>
      <point x="1035" y="228" type="curve" smooth="yes"/>
      <point x="1036" y="235"/>
      <point x="1029" y="243"/>
      <point x="1019" y="243" type="curve" smooth="yes"/>
      <point x="1005" y="243"/>
      <point x="1000" y="239"/>
      <point x="999" y="229" type="curve" smooth="yes"/>
      <point x="986" y="90"/>
      <point x="949" y="19"/>
      <point x="886" y="19" type="curve" smooth="yes"/>
      <point x="830" y="19"/>
      <point x="794" y="71"/>
      <point x="729" y="266" type="curve" smooth="yes"/>
      <point x="655" y="486"/>
      <point x="599" y="790"/>
      <point x="584" y="868" type="curve" smooth="yes"/>
      <point x="581" y="883"/>
      <point x="574" y="890"/>
      <point x="559" y="890" type="curve" smooth="yes"/>
      <point x="544" y="890"/>
      <point x="535" y="881"/>
      <point x="533" y="868" type="curve" smooth="yes"/>
      <point x="385" y="159"/>
      <point x="273" y="20"/>
      <point x="131" y="20" type="curve" smooth="yes"/>
      <point x="103" y="20"/>
      <point x="79" y="25"/>
      <point x="58" y="34" type="curve" smooth="yes"/>
      <point x="50" y="38"/>
      <point x="41" y="34"/>
      <point x="36" y="21" type="curve" smooth="yes"/>
      <point x="31" y="9"/>
      <point x="39" y="1"/>
      <point x="46" y="-2" type="curve" smooth="yes"/>
      <point x="66" y="-11"/>
      <point x="99" y="-17"/>
    </contour>
    <contour>
      <point x="435" y="335" type="line"/>
      <point x="476" y="454"/>
      <point x="517" y="611"/>
      <point x="558" y="814" type="curve"/>
      <point x="578" y="714"/>
      <point x="615" y="513"/>
      <point x="668" y="335" type="curve"/>
    </contour>
  </outline>
</glyph>
<glyph name="A.dec_locl.ini" format="2">
  <advance width="975"/>
  <anchor x="538" y="0" name="bottom"/>
  <anchor x="975" y="0" name="cnct"/>
  <anchor x="963" y="0" name="ogonek"/>
  <anchor x="563" y="838" name="top"/>
  <outline>
    <contour>
      <point x="136" y="-17" type="curve" smooth="yes"/>
      <point x="241" y="-17"/>
      <point x="333" y="53"/>
      <point x="424" y="303" type="curve"/>
      <point x="679" y="303" type="line"/>
      <point x="693" y="258"/>
      <point x="707" y="212"/>
      <point x="723" y="165" type="curve" smooth="yes"/>
      <point x="763" y="44"/>
      <point x="828" y="-17"/>
      <point x="915" y="-17" type="curve" smooth="yes"/>
      <point x="940" y="-17"/>
      <point x="940" y="18"/>
      <point x="915" y="18" type="curve" smooth="yes"/>
      <point x="848" y="18"/>
      <point x="796" y="65"/>
      <point x="759" y="176" type="curve" smooth="yes"/>
      <point x="655" y="486"/>
      <point x="599" y="790"/>
      <point x="584" y="868" type="curve" smooth="yes"/>
      <point x="581" y="883"/>
      <point x="574" y="890"/>
      <point x="559" y="890" type="curve" smooth="yes"/>
      <point x="544" y="890"/>
      <point x="535" y="881"/>
      <point x="533" y="868" type="curve" smooth="yes"/>
      <point x="385" y="159"/>
      <point x="273" y="20"/>
      <point x="131" y="20" type="curve" smooth="yes"/>
      <point x="103" y="20"/>
      <point x="79" y="25"/>
      <point x="58" y="34" type="curve" smooth="yes"/>
      <point x="50" y="38"/>
      <point x="41" y="34"/>
      <point x="36" y="21" type="curve" smooth="yes"/>
      <point x="31" y="9"/>
      <point x="39" y="1"/>
      <point x="46" y="-2" type="curve" smooth="yes"/>
      <point x="66" y="-11"/>
      <point x="99" y="-17"/>
    </contour>
    <contour>
      <point x="435" y="335" type="line"/>
      <point x="476" y="454"/>
      <point x="517" y="611"/>
      <point x="558" y="814" type="curve"/>
      <point x="576" y="722"/>
      <point x="611" y="542"/>
      <point x="670" y="335" type="curve"/>
    </contour>
  </outline>
</glyph>
<glyph name="AE.cur" format="2">
  <advance width="1289"/>
  <anchor x="763" y="838" name="top"/>
  <outline>
    <contour>
      <point x="109" y="-17" type="curve" smooth="yes"/>
      <point x="192" y="-17"/>
      <point x="258" y="31"/>
      <point x="382" y="288" type="curve"/>
      <point x="675" y="288" type="line"/>
      <point x="681" y="249"/>
      <point x="688" y="211"/>
      <point x="696" y="173" type="curve" smooth="yes"/>
      <point x="699" y="163"/>
      <point x="705" y="161"/>
      <point x="719" y="164" type="curve" smooth="yes"/>
      <point x="731" y="168"/>
      <point x="735" y="171"/>
      <point x="733" y="181" type="curve" smooth="yes"/>
      <point x="689" y="403"/>
      <point x="658" y="654"/>
      <point x="645" y="865" type="curve" smooth="yes"/>
      <point x="644" y="883"/>
      <point x="635" y="890"/>
      <point x="619" y="890" type="curve" smooth="yes"/>
      <point x="606" y="890"/>
      <point x="599" y="884"/>
      <point x="594" y="871" type="curve" smooth="yes"/>
      <point x="291" y="125"/>
      <point x="211" y="20"/>
      <point x="111" y="20" type="curve" smooth="yes"/>
      <point x="95" y="20"/>
      <point x="76" y="24"/>
      <point x="58" y="31" type="curve" smooth="yes"/>
      <point x="50" y="34"/>
      <point x="41" y="31"/>
      <point x="36" y="19" type="curve" smooth="yes"/>
      <point x="31" y="6"/>
      <point x="39" y="-1"/>
      <point x="46" y="-5" type="curve"/>
      <point x="64" y="-12"/>
      <point x="84" y="-17"/>
    </contour>
    <contour>
      <point x="398" y="320" type="line"/>
      <point x="455" y="441"/>
      <point x="524" y="604"/>
      <point x="611" y="822" type="curve"/>
      <point x="620" y="668"/>
      <point x="640" y="491"/>
      <point x="669" y="320" type="curve"/>
    </contour>
    <contour>
      <point x="944" y="-19" type="curve" smooth="yes"/>
      <point x="1059" y="-19"/>
      <point x="1158" y="25"/>
      <point x="1230" y="115" type="curve" smooth="yes"/>
      <point x="1241" y="129"/>
      <point x="1241" y="138"/>
      <point x="1231" y="145" type="curve" smooth="yes"/>
      <point x="1221" y="154"/>
      <point x="1215" y="154"/>
      <point x="1205" y="143" type="curve" smooth="yes"/>
      <point x="1131" y="55"/>
      <point x="1048" y="19"/>
      <point x="945" y="19" type="curve" smooth="yes"/>
      <point x="793" y="19"/>
      <point x="733" y="108"/>
      <point x="733" y="245" type="curve" smooth="yes"/>
      <point x="733" y="369"/>
      <point x="828" y="441"/>
      <point x="969" y="441" type="curve" smooth="yes"/>
      <point x="1084" y="441" type="line" smooth="yes"/>
      <point x="1091" y="441"/>
      <point x="1095" y="448"/>
      <point x="1095" y="459" type="curve" smooth="yes"/>
      <point x="1095" y="470"/>
      <point x="1091" y="476"/>
      <point x="1084" y="476" type="curve" smooth="yes"/>
      <point x="965" y="476" type="line" smooth="yes"/>
      <point x="846" y="476"/>
      <point x="781" y="554"/>
      <point x="781" y="671" type="curve" smooth="yes"/>
      <point x="781" y="780"/>
      <point x="864" y="853"/>
      <point x="979" y="853" type="curve" smooth="yes"/>
      <point x="1051" y="853"/>
      <point x="1111" y="829"/>
      <point x="1178" y="771" type="curve" smooth="yes"/>
      <point x="1189" y="763"/>
      <point x="1198" y="760"/>
      <point x="1206" y="769" type="curve" smooth="yes"/>
      <point x="1220" y="783"/>
      <point x="1211" y="789"/>
      <point x="1206" y="795" type="curve" smooth="yes"/>
      <point x="1149" y="855"/>
      <point x="1063" y="890"/>
      <point x="981" y="890" type="curve" smooth="yes"/>
      <point x="844" y="890"/>
      <point x="741" y="800"/>
      <point x="741" y="670" type="curve" smooth="yes"/>
      <point x="741" y="569"/>
      <point x="788" y="490"/>
      <point x="885" y="460" type="curve"/>
      <point x="766" y="435"/>
      <point x="691" y="356"/>
      <point x="691" y="241" type="curve" smooth="yes"/>
      <point x="691" y="85"/>
      <point x="769" y="-19"/>
    </contour>
  </outline>
</glyph>
<glyph name="B.cur" format="2">
  <advance width="894"/>
  <anchor x="491" y="0" name="bottom"/>
  <anchor x="299" y="258" name="center"/>
  <anchor x="491" y="838" name="top"/>
  <outline>
    <contour>
      <point x="526" y="-12" type="curve" smooth="yes"/>
      <point x="691" y="-12"/>
      <point x="819" y="113"/>
      <point x="819" y="274" type="curve" smooth="yes"/>
      <point x="819" y="399"/>
      <point x="729" y="479"/>
      <point x="585" y="480" type="curve"/>
      <point x="585" y="481" type="line"/>
      <point x="698" y="508"/>
      <point x="768" y="578"/>
      <point x="768" y="684" type="curve" smooth="yes"/>
      <point x="768" y="820"/>
      <point x="653" y="890"/>
      <point x="459" y="890" type="curve" smooth="yes"/>
      <point x="289" y="890"/>
      <point x="159" y="835"/>
      <point x="89" y="745" type="curve" smooth="yes"/>
      <point x="83" y="736"/>
      <point x="84" y="730"/>
      <point x="94" y="723" type="curve" smooth="yes"/>
      <point x="104" y="715"/>
      <point x="111" y="716"/>
      <point x="118" y="724" type="curve" smooth="yes"/>
      <point x="181" y="809"/>
      <point x="305" y="854"/>
      <point x="454" y="854" type="curve" smooth="yes"/>
      <point x="629" y="854"/>
      <point x="728" y="800"/>
      <point x="728" y="683" type="curve" smooth="yes"/>
      <point x="728" y="580"/>
      <point x="651" y="514"/>
      <point x="533" y="495" type="curve"/>
      <point x="518" y="501"/>
      <point x="501" y="504"/>
      <point x="483" y="504" type="curve"/>
      <point x="454" y="503"/>
      <point x="435" y="489"/>
      <point x="435" y="470" type="curve" smooth="yes"/>
      <point x="435" y="453"/>
      <point x="451" y="441"/>
      <point x="474" y="443" type="curve"/>
      <point x="490" y="443"/>
      <point x="513" y="448"/>
      <point x="534" y="458" type="curve"/>
      <point x="690" y="458"/>
      <point x="778" y="391"/>
      <point x="778" y="271" type="curve" smooth="yes"/>
      <point x="778" y="135"/>
      <point x="664" y="23"/>
      <point x="526" y="23" type="curve" smooth="yes"/>
      <point x="476" y="23"/>
      <point x="438" y="31"/>
      <point x="395" y="54" type="curve" smooth="yes"/>
      <point x="388" y="58"/>
      <point x="378" y="54"/>
      <point x="373" y="45" type="curve" smooth="yes"/>
      <point x="366" y="36"/>
      <point x="369" y="25"/>
      <point x="378" y="21" type="curve"/>
      <point x="415" y="0"/>
      <point x="471" y="-12"/>
    </contour>
    <contour>
      <point x="186" y="-17" type="curve" smooth="yes"/>
      <point x="269" y="-17"/>
      <point x="319" y="39"/>
      <point x="319" y="130" type="curve" smooth="yes"/>
      <point x="319" y="746" type="line" smooth="yes"/>
      <point x="319" y="756"/>
      <point x="314" y="761"/>
      <point x="301" y="761" type="curve" smooth="yes"/>
      <point x="288" y="761"/>
      <point x="281" y="758"/>
      <point x="281" y="746" type="curve" smooth="yes"/>
      <point x="281" y="139" type="line" smooth="yes"/>
      <point x="281" y="63"/>
      <point x="248" y="18"/>
      <point x="189" y="18" type="curve" smooth="yes"/>
      <point x="140" y="18"/>
      <point x="101" y="40"/>
      <point x="70" y="86" type="curve" smooth="yes"/>
      <point x="65" y="94"/>
      <point x="55" y="95"/>
      <point x="46" y="88" type="curve"/>
      <point x="38" y="83"/>
      <point x="35" y="74"/>
      <point x="40" y="66" type="curve" smooth="yes"/>
      <point x="73" y="13"/>
      <point x="125" y="-17"/>
    </contour>
  </outline>
</glyph>
<glyph name="B.dec" format="2">
  <advance width="919"/>
  <anchor x="510" y="0" name="bottom"/>
  <anchor x="259" y="258" name="center"/>
  <anchor x="510" y="838" name="top"/>
  <outline>
    <contour>
      <point x="551" y="-12" type="curve" smooth="yes"/>
      <point x="716" y="-12"/>
      <point x="844" y="113"/>
      <point x="844" y="274" type="curve" smooth="yes"/>
      <point x="844" y="399"/>
      <point x="754" y="479"/>
      <point x="610" y="480" type="curve"/>
      <point x="610" y="481" type="line"/>
      <point x="723" y="508"/>
      <point x="793" y="570"/>
      <point x="793" y="689" type="curve" smooth="yes"/>
      <point x="793" y="806"/>
      <point x="716" y="890"/>
      <point x="569" y="890" type="curve" smooth="yes"/>
      <point x="441" y="890"/>
      <point x="329" y="819"/>
      <point x="276" y="666" type="curve"/>
      <point x="276" y="873" type="line" smooth="yes"/>
      <point x="276" y="883"/>
      <point x="270" y="888"/>
      <point x="259" y="888" type="curve" smooth="yes"/>
      <point x="248" y="888"/>
      <point x="238" y="883"/>
      <point x="236" y="875" type="curve" smooth="yes"/>
      <point x="209" y="750"/>
      <point x="155" y="663"/>
      <point x="43" y="606" type="curve" smooth="yes"/>
      <point x="35" y="603"/>
      <point x="33" y="596"/>
      <point x="39" y="584" type="curve" smooth="yes"/>
      <point x="44" y="574"/>
      <point x="49" y="571"/>
      <point x="59" y="576" type="curve" smooth="yes"/>
      <point x="153" y="626"/>
      <point x="205" y="685"/>
      <point x="239" y="776" type="curve"/>
      <point x="239" y="1" type="line" smooth="yes"/>
      <point x="239" y="-9"/>
      <point x="245" y="-14"/>
      <point x="258" y="-14" type="curve" smooth="yes"/>
      <point x="271" y="-14"/>
      <point x="276" y="-9"/>
      <point x="276" y="1" type="curve" smooth="yes"/>
      <point x="276" y="465" type="line" smooth="yes"/>
      <point x="276" y="725"/>
      <point x="413" y="855"/>
      <point x="564" y="855" type="curve" smooth="yes"/>
      <point x="693" y="855"/>
      <point x="753" y="786"/>
      <point x="753" y="688" type="curve" smooth="yes"/>
      <point x="753" y="573"/>
      <point x="676" y="514"/>
      <point x="558" y="495" type="curve"/>
      <point x="543" y="501"/>
      <point x="526" y="504"/>
      <point x="508" y="504" type="curve" smooth="yes"/>
      <point x="479" y="503"/>
      <point x="460" y="489"/>
      <point x="460" y="470" type="curve" smooth="yes"/>
      <point x="460" y="453"/>
      <point x="476" y="441"/>
      <point x="499" y="443" type="curve" smooth="yes"/>
      <point x="515" y="443"/>
      <point x="538" y="448"/>
      <point x="559" y="458" type="curve"/>
      <point x="715" y="458"/>
      <point x="803" y="391"/>
      <point x="803" y="271" type="curve" smooth="yes"/>
      <point x="803" y="135"/>
      <point x="689" y="23"/>
      <point x="551" y="23" type="curve" smooth="yes"/>
      <point x="501" y="23"/>
      <point x="463" y="31"/>
      <point x="420" y="54" type="curve" smooth="yes"/>
      <point x="413" y="58"/>
      <point x="403" y="54"/>
      <point x="398" y="45" type="curve" smooth="yes"/>
      <point x="391" y="36"/>
      <point x="394" y="25"/>
      <point x="403" y="21" type="curve" smooth="yes"/>
      <point x="440" y="0"/>
      <point x="496" y="-12"/>
    </contour>
  </outline>
</glyph>
<glyph name="C.cur" format="2">
  <advance width="775"/>
  <anchor x="440" y="0" name="bottom"/>
  <anchor x="456" y="838" name="top"/>
  <outline>
    <contour>
      <point x="448" y="-19" type="curve" smooth="yes"/>
      <point x="550" y="-19"/>
      <point x="638" y="25"/>
      <point x="720" y="118" type="curve" smooth="yes"/>
      <point x="730" y="129"/>
      <point x="730" y="135"/>
      <point x="720" y="144" type="curve" smooth="yes"/>
      <point x="710" y="154"/>
      <point x="704" y="153"/>
      <point x="691" y="139" type="curve" smooth="yes"/>
      <point x="618" y="56"/>
      <point x="541" y="19"/>
      <point x="448" y="19" type="curve" smooth="yes"/>
      <point x="256" y="19"/>
      <point x="135" y="181"/>
      <point x="135" y="436" type="curve" smooth="yes"/>
      <point x="135" y="685"/>
      <point x="269" y="853"/>
      <point x="466" y="853" type="curve" smooth="yes"/>
      <point x="564" y="853"/>
      <point x="643" y="809"/>
      <point x="705" y="721" type="curve" smooth="yes"/>
      <point x="715" y="708"/>
      <point x="723" y="705"/>
      <point x="735" y="713" type="curve" smooth="yes"/>
      <point x="746" y="720"/>
      <point x="746" y="728"/>
      <point x="735" y="743" type="curve" smooth="yes"/>
      <point x="668" y="839"/>
      <point x="575" y="890"/>
      <point x="466" y="890" type="curve" smooth="yes"/>
      <point x="245" y="890"/>
      <point x="94" y="706"/>
      <point x="94" y="436" type="curve" smooth="yes"/>
      <point x="94" y="159"/>
      <point x="233" y="-19"/>
    </contour>
  </outline>
</glyph>
<glyph name="C.cur.ini" format="2">
  <advance width="775"/>
  <anchor x="440" y="0" name="bottom"/>
  <anchor x="775" y="0" name="cnct"/>
  <anchor x="456" y="838" name="top"/>
  <outline>
    <contour>
      <point x="478" y="-17" type="curve" smooth="yes"/>
      <point x="498" y="-17"/>
      <point x="498" y="16"/>
      <point x="478" y="16" type="curve" smooth="yes"/>
      <point x="268" y="16"/>
      <point x="135" y="179"/>
      <point x="135" y="436" type="curve" smooth="yes"/>
      <point x="135" y="685"/>
      <point x="269" y="853"/>
      <point x="466" y="853" type="curve" smooth="yes"/>
      <point x="564" y="853"/>
      <point x="643" y="809"/>
      <point x="705" y="721" type="curve" smooth="yes"/>
      <point x="715" y="708"/>
      <point x="723" y="705"/>
      <point x="735" y="713" type="curve" smooth="yes"/>
      <point x="746" y="720"/>
      <point x="746" y="728"/>
      <point x="735" y="743" type="curve" smooth="yes"/>
      <point x="668" y="839"/>
      <point x="575" y="890"/>
      <point x="466" y="890" type="curve" smooth="yes"/>
      <point x="245" y="890"/>
      <point x="94" y="706"/>
      <point x="94" y="436" type="curve" smooth="yes"/>
      <point x="94" y="160"/>
      <point x="245" y="-17"/>
    </contour>
  </outline>
</glyph>
<glyph name="D.cur" format="2">
  <advance width="1000"/>
  <anchor x="526" y="-12" name="bottom"/>
  <anchor x="363" y="425" name="center"/>
  <anchor x="538" y="825" name="top"/>
  <outline>
    <contour>
      <point x="523" y="-12" type="curve" smooth="yes"/>
      <point x="753" y="-12"/>
      <point x="906" y="181"/>
      <point x="906" y="471" type="curve" smooth="yes"/>
      <point x="906" y="733"/>
      <point x="743" y="890"/>
      <point x="471" y="890" type="curve" smooth="yes"/>
      <point x="299" y="890"/>
      <point x="159" y="835"/>
      <point x="89" y="745" type="curve" smooth="yes"/>
      <point x="83" y="736"/>
      <point x="84" y="730"/>
      <point x="94" y="723" type="curve" smooth="yes"/>
      <point x="104" y="715"/>
      <point x="111" y="716"/>
      <point x="118" y="724" type="curve" smooth="yes"/>
      <point x="181" y="809"/>
      <point x="318" y="856"/>
      <point x="470" y="856" type="curve" smooth="yes"/>
      <point x="715" y="856"/>
      <point x="865" y="713"/>
      <point x="865" y="471" type="curve" smooth="yes"/>
      <point x="865" y="204"/>
      <point x="728" y="23"/>
      <point x="523" y="23" type="curve" smooth="yes"/>
      <point x="474" y="23"/>
      <point x="435" y="31"/>
      <point x="396" y="51" type="curve" smooth="yes"/>
      <point x="389" y="55"/>
      <point x="379" y="51"/>
      <point x="374" y="43" type="curve" smooth="yes"/>
      <point x="368" y="34"/>
      <point x="370" y="23"/>
      <point x="379" y="19" type="curve"/>
      <point x="413" y="0"/>
      <point x="470" y="-12"/>
    </contour>
    <contour>
      <point x="186" y="-17" type="curve" smooth="yes"/>
      <point x="269" y="-17"/>
      <point x="319" y="39"/>
      <point x="319" y="130" type="curve" smooth="yes"/>
      <point x="319" y="755" type="line" smooth="yes"/>
      <point x="319" y="765"/>
      <point x="314" y="770"/>
      <point x="301" y="770" type="curve" smooth="yes"/>
      <point x="288" y="770"/>
      <point x="281" y="766"/>
      <point x="281" y="755" type="curve" smooth="yes"/>
      <point x="281" y="139" type="line" smooth="yes"/>
      <point x="281" y="63"/>
      <point x="248" y="18"/>
      <point x="189" y="18" type="curve" smooth="yes"/>
      <point x="140" y="18"/>
      <point x="101" y="40"/>
      <point x="70" y="86" type="curve" smooth="yes"/>
      <point x="65" y="94"/>
      <point x="55" y="95"/>
      <point x="46" y="88" type="curve" smooth="yes"/>
      <point x="39" y="81"/>
      <point x="36" y="73"/>
      <point x="40" y="66" type="curve" smooth="yes"/>
      <point x="73" y="13"/>
      <point x="125" y="-17"/>
    </contour>
  </outline>
</glyph>
<glyph name="D.dec" format="2">
  <advance width="1015"/>
  <anchor x="526" y="-12" name="bottom"/>
  <anchor x="363" y="425" name="center"/>
  <anchor x="538" y="825" name="top"/>
  <outline>
    <contour>
      <point x="200" y="-21" type="curve" smooth="yes"/>
      <point x="281" y="-21"/>
      <point x="334" y="50"/>
      <point x="334" y="161" type="curve" smooth="yes"/>
      <point x="334" y="755" type="line" smooth="yes"/>
      <point x="334" y="765"/>
      <point x="329" y="770"/>
      <point x="316" y="770" type="curve" smooth="yes"/>
      <point x="303" y="770"/>
      <point x="296" y="766"/>
      <point x="296" y="755" type="curve" smooth="yes"/>
      <point x="296" y="161" type="line" smooth="yes"/>
      <point x="296" y="74"/>
      <point x="258" y="13"/>
      <point x="203" y="13" type="curve" smooth="yes"/>
      <point x="166" y="13"/>
      <point x="143" y="31"/>
      <point x="143" y="60" type="curve" smooth="yes"/>
      <point x="143" y="88"/>
      <point x="165" y="105"/>
      <point x="203" y="105" type="curve" smooth="yes"/>
      <point x="291" y="105"/>
      <point x="361" y="-11"/>
      <point x="545" y="-11" type="curve" smooth="yes"/>
      <point x="763" y="-11"/>
      <point x="921" y="144"/>
      <point x="921" y="434" type="curve" smooth="yes"/>
      <point x="921" y="716"/>
      <point x="730" y="890"/>
      <point x="423" y="890" type="curve" smooth="yes"/>
      <point x="253" y="890"/>
      <point x="110" y="829"/>
      <point x="80" y="670" type="curve" smooth="yes"/>
      <point x="79" y="661"/>
      <point x="85" y="655"/>
      <point x="96" y="654" type="curve" smooth="yes"/>
      <point x="108" y="653"/>
      <point x="114" y="658"/>
      <point x="116" y="668" type="curve" smooth="yes"/>
      <point x="146" y="806"/>
      <point x="271" y="855"/>
      <point x="420" y="855" type="curve" smooth="yes"/>
      <point x="700" y="855"/>
      <point x="880" y="700"/>
      <point x="880" y="434" type="curve" smooth="yes"/>
      <point x="880" y="166"/>
      <point x="738" y="23"/>
      <point x="545" y="23" type="curve" smooth="yes"/>
      <point x="389" y="23"/>
      <point x="313" y="140"/>
      <point x="200" y="140" type="curve" smooth="yes"/>
      <point x="141" y="140"/>
      <point x="101" y="106"/>
      <point x="101" y="56" type="curve" smooth="yes"/>
      <point x="101" y="10"/>
      <point x="141" y="-21"/>
    </contour>
  </outline>
</glyph>
<glyph name="E.cur.ini" format="2">
  <advance width="690"/>
  <anchor x="368" y="0" name="bottom"/>
  <anchor x="690" y="0" name="cnct"/>
  <anchor x="486" y="0" name="ogonek"/>
  <anchor x="386" y="838" name="top"/>
  <outline>
    <contour>
      <point x="392" y="-17" type="curve" smooth="yes"/>
      <point x="412" y="-17"/>
      <point x="413" y="16"/>
      <point x="393" y="16" type="curve" smooth="yes"/>
      <point x="235" y="16"/>
      <point x="140" y="96"/>
      <point x="140" y="226" type="curve" smooth="yes"/>
      <point x="140" y="332"/>
      <point x="225" y="441"/>
      <point x="378" y="441" type="curve" smooth="yes"/>
      <point x="493" y="441" type="line" smooth="yes"/>
      <point x="500" y="441"/>
      <point x="504" y="448"/>
      <point x="504" y="459" type="curve" smooth="yes"/>
      <point x="504" y="470"/>
      <point x="500" y="476"/>
      <point x="493" y="476" type="curve" smooth="yes"/>
      <point x="374" y="476" type="line" smooth="yes"/>
      <point x="255" y="476"/>
      <point x="178" y="554"/>
      <point x="178" y="671" type="curve" smooth="yes"/>
      <point x="178" y="780"/>
      <point x="259" y="853"/>
      <point x="381" y="853" type="curve" smooth="yes"/>
      <point x="461" y="853"/>
      <point x="520" y="829"/>
      <point x="586" y="771" type="curve"/>
      <point x="598" y="763"/>
      <point x="606" y="760"/>
      <point x="615" y="769" type="curve" smooth="yes"/>
      <point x="629" y="783"/>
      <point x="620" y="789"/>
      <point x="615" y="795" type="curve" smooth="yes"/>
      <point x="558" y="855"/>
      <point x="473" y="890"/>
      <point x="384" y="890" type="curve" smooth="yes"/>
      <point x="239" y="890"/>
      <point x="138" y="800"/>
      <point x="138" y="670" type="curve" smooth="yes"/>
      <point x="138" y="569"/>
      <point x="196" y="490"/>
      <point x="294" y="460" type="curve"/>
      <point x="168" y="432"/>
      <point x="99" y="325"/>
      <point x="99" y="223" type="curve" smooth="yes"/>
      <point x="99" y="74"/>
      <point x="209" y="-17"/>
    </contour>
  </outline>
</glyph>
<glyph name="F.cur" format="2">
  <advance width="741"/>
  <outline>
    <contour>
      <point x="189" y="-17" type="curve" smooth="yes"/>
      <point x="268" y="-17"/>
      <point x="321" y="35"/>
      <point x="321" y="135" type="curve" smooth="yes"/>
      <point x="321" y="420" type="line"/>
      <point x="643" y="420" type="line" smooth="yes"/>
      <point x="650" y="420"/>
      <point x="654" y="426"/>
      <point x="654" y="438" type="curve" smooth="yes"/>
      <point x="654" y="449"/>
      <point x="650" y="455"/>
      <point x="643" y="455" type="curve" smooth="yes"/>
      <point x="321" y="455" type="line"/>
      <point x="321" y="840" type="line"/>
      <point x="705" y="840" type="line" smooth="yes"/>
      <point x="713" y="840"/>
      <point x="716" y="846"/>
      <point x="716" y="858" type="curve" smooth="yes"/>
      <point x="716" y="869"/>
      <point x="713" y="875"/>
      <point x="705" y="875" type="curve" smooth="yes"/>
      <point x="266" y="875" type="line" smooth="yes"/>
      <point x="163" y="875"/>
      <point x="95" y="829"/>
      <point x="49" y="774" type="curve" smooth="yes"/>
      <point x="40" y="764"/>
      <point x="41" y="756"/>
      <point x="51" y="748" type="curve" smooth="yes"/>
      <point x="63" y="740"/>
      <point x="69" y="741"/>
      <point x="78" y="751" type="curve" smooth="yes"/>
      <point x="119" y="801"/>
      <point x="175" y="841"/>
      <point x="266" y="841" type="curve" smooth="yes"/>
      <point x="284" y="841" type="line"/>
      <point x="284" y="139" type="line" smooth="yes"/>
      <point x="284" y="58"/>
      <point x="246" y="18"/>
      <point x="191" y="18" type="curve" smooth="yes"/>
      <point x="155" y="18"/>
      <point x="111" y="29"/>
      <point x="73" y="86" type="curve" smooth="yes"/>
      <point x="66" y="95"/>
      <point x="56" y="94"/>
      <point x="49" y="88" type="curve" smooth="yes"/>
      <point x="43" y="83"/>
      <point x="38" y="74"/>
      <point x="43" y="66" type="curve" smooth="yes"/>
      <point x="78" y="9"/>
      <point x="131" y="-17"/>
    </contour>
  </outline>
</glyph>
<glyph name="F.dec" format="2">
  <advance width="931"/>
  <outline>
    <contour>
      <point x="356" y="-17" type="curve" smooth="yes"/>
      <point x="508" y="-17"/>
      <point x="641" y="85"/>
      <point x="641" y="338" type="curve" smooth="yes"/>
      <point x="641" y="431" type="line"/>
      <point x="780" y="431" type="line" smooth="yes"/>
      <point x="788" y="431"/>
      <point x="791" y="439"/>
      <point x="791" y="450" type="curve" smooth="yes"/>
      <point x="791" y="461"/>
      <point x="788" y="466"/>
      <point x="780" y="466" type="curve" smooth="yes"/>
      <point x="641" y="466" type="line"/>
      <point x="641" y="784" type="line"/>
      <point x="650" y="783"/>
      <point x="660" y="783"/>
      <point x="670" y="783" type="curve" smooth="yes"/>
      <point x="761" y="783"/>
      <point x="830" y="806"/>
      <point x="891" y="848" type="curve" smooth="yes"/>
      <point x="900" y="854"/>
      <point x="901" y="861"/>
      <point x="895" y="871" type="curve" smooth="yes"/>
      <point x="888" y="884"/>
      <point x="880" y="884"/>
      <point x="871" y="878" type="curve" smooth="yes"/>
      <point x="819" y="843"/>
      <point x="751" y="816"/>
      <point x="676" y="816" type="curve" smooth="yes"/>
      <point x="525" y="816"/>
      <point x="444" y="890"/>
      <point x="315" y="890" type="curve" smooth="yes"/>
      <point x="184" y="890"/>
      <point x="123" y="798"/>
      <point x="123" y="699" type="curve" smooth="yes"/>
      <point x="123" y="689"/>
      <point x="129" y="684"/>
      <point x="141" y="684" type="curve" smooth="yes"/>
      <point x="155" y="684"/>
      <point x="160" y="689"/>
      <point x="160" y="699" type="curve" smooth="yes"/>
      <point x="160" y="781"/>
      <point x="206" y="856"/>
      <point x="314" y="856" type="curve" smooth="yes"/>
      <point x="416" y="856"/>
      <point x="486" y="803"/>
      <point x="604" y="788" type="curve"/>
      <point x="604" y="466" type="line"/>
      <point x="438" y="466" type="line" smooth="yes"/>
      <point x="430" y="466"/>
      <point x="426" y="461"/>
      <point x="426" y="450" type="curve" smooth="yes"/>
      <point x="426" y="439"/>
      <point x="430" y="431"/>
      <point x="438" y="431" type="curve" smooth="yes"/>
      <point x="604" y="431" type="line"/>
      <point x="604" y="338" type="line" smooth="yes"/>
      <point x="604" y="111"/>
      <point x="485" y="19"/>
      <point x="355" y="19" type="curve" smooth="yes"/>
      <point x="229" y="19"/>
      <point x="138" y="99"/>
      <point x="96" y="255" type="curve"/>
      <point x="180" y="229"/>
      <point x="243" y="220"/>
      <point x="345" y="220" type="curve" smooth="yes"/>
      <point x="353" y="220"/>
      <point x="356" y="229"/>
      <point x="356" y="240" type="curve" smooth="yes"/>
      <point x="356" y="253"/>
      <point x="353" y="258"/>
      <point x="345" y="258" type="curve" smooth="yes"/>
      <point x="244" y="258"/>
      <point x="176" y="269"/>
      <point x="98" y="295" type="curve" smooth="yes"/>
      <point x="91" y="298"/>
      <point x="81" y="301"/>
      <point x="68" y="289" type="curve" smooth="yes"/>
      <point x="54" y="276"/>
      <point x="58" y="261"/>
      <point x="59" y="256" type="curve" smooth="yes"/>
      <point x="100" y="78"/>
      <point x="199" y="-17"/>
    </contour>
  </outline>
</glyph>
<glyph name="G.cur_locl.ini" format="2">
  <advance width="849"/>
  <anchor x="384" y="0" name="bottom"/>
  <anchor x="849" y="0" name="cnct"/>
  <anchor x="450" y="838" name="top"/>
  <outline>
    <contour>
      <point x="578" y="-394" type="curve" smooth="yes"/>
      <point x="693" y="-394"/>
      <point x="749" y="-319"/>
      <point x="749" y="-167" type="curve" smooth="yes"/>
      <point x="749" y="409" type="line" smooth="yes"/>
      <point x="749" y="420"/>
      <point x="744" y="424"/>
      <point x="730" y="424" type="curve" smooth="yes"/>
      <point x="716" y="424"/>
      <point x="711" y="420"/>
      <point x="711" y="408" type="curve"/>
      <point x="669" y="194"/>
      <point x="545" y="49"/>
      <point x="405" y="49" type="curve" smooth="yes"/>
      <point x="249" y="49"/>
      <point x="171" y="173"/>
      <point x="171" y="405" type="curve" smooth="yes"/>
      <point x="171" y="621"/>
      <point x="318" y="853"/>
      <point x="494" y="853" type="curve" smooth="yes"/>
      <point x="569" y="853"/>
      <point x="620" y="806"/>
      <point x="620" y="721" type="curve" smooth="yes"/>
      <point x="620" y="519"/>
      <point x="405" y="311"/>
      <point x="69" y="138" type="curve" smooth="yes"/>
      <point x="58" y="131"/>
      <point x="55" y="126"/>
      <point x="61" y="116" type="curve" smooth="yes"/>
      <point x="65" y="105"/>
      <point x="70" y="100"/>
      <point x="81" y="106" type="curve" smooth="yes"/>
      <point x="428" y="286"/>
      <point x="661" y="498"/>
      <point x="661" y="721" type="curve" smooth="yes"/>
      <point x="661" y="830"/>
      <point x="595" y="890"/>
      <point x="494" y="890" type="curve" smooth="yes"/>
      <point x="291" y="890"/>
      <point x="130" y="643"/>
      <point x="130" y="405" type="curve" smooth="yes"/>
      <point x="130" y="151"/>
      <point x="223" y="11"/>
      <point x="401" y="11" type="curve" smooth="yes"/>
      <point x="536" y="11"/>
      <point x="656" y="125"/>
      <point x="711" y="298" type="curve"/>
      <point x="711" y="-170" type="line" smooth="yes"/>
      <point x="711" y="-304"/>
      <point x="664" y="-359"/>
      <point x="581" y="-359" type="curve" smooth="yes"/>
      <point x="520" y="-359"/>
      <point x="485" y="-326"/>
      <point x="485" y="-267" type="curve" smooth="yes"/>
      <point x="485" y="-242"/>
      <point x="445" y="-244"/>
      <point x="445" y="-269" type="curve" smooth="yes"/>
      <point x="445" y="-346"/>
      <point x="495" y="-394"/>
    </contour>
  </outline>
</glyph>
<glyph name="G.cur_ro" format="2">
  <advance width="745"/>
  <outline>
    <contour>
      <point x="370" y="-20" type="curve" smooth="yes"/>
      <point x="536" y="-20"/>
      <point x="632" y="146"/>
      <point x="632" y="461" type="curve" smooth="yes"/>
      <point x="632" y="471"/>
      <point x="627" y="476"/>
      <point x="616" y="476" type="curve" smooth="yes"/>
      <point x="607" y="476"/>
      <point x="601" y="471"/>
      <point x="594" y="467" type="curve" smooth="yes"/>
      <point x="544" y="438"/>
      <point x="460" y="392"/>
      <point x="356" y="392" type="curve" smooth="yes"/>
      <point x="237" y="392"/>
      <point x="176" y="456"/>
      <point x="176" y="583" type="curve" smooth="yes"/>
      <point x="176" y="732"/>
      <point x="261" y="856"/>
      <point x="379" y="856" type="curve" smooth="yes"/>
      <point x="449" y="856"/>
      <point x="492" y="812"/>
      <point x="492" y="735" type="curve" smooth="yes"/>
      <point x="492" y="627"/>
      <point x="397" y="544"/>
      <point x="273" y="544" type="curve" smooth="yes"/>
      <point x="137" y="544"/>
      <point x="69" y="647"/>
      <point x="69" y="854" type="curve" smooth="yes"/>
      <point x="69" y="867"/>
      <point x="60" y="871"/>
      <point x="51" y="871" type="curve" smooth="yes"/>
      <point x="41" y="871"/>
      <point x="32" y="867"/>
      <point x="32" y="854" type="curve" smooth="yes"/>
      <point x="32" y="625"/>
      <point x="113" y="508"/>
      <point x="272" y="508" type="curve" smooth="yes"/>
      <point x="419" y="508"/>
      <point x="530" y="606"/>
      <point x="530" y="736" type="curve" smooth="yes"/>
      <point x="530" y="835"/>
      <point x="472" y="893"/>
      <point x="380" y="893" type="curve" smooth="yes"/>
      <point x="239" y="893"/>
      <point x="138" y="755"/>
      <point x="138" y="585" type="curve" smooth="yes"/>
      <point x="138" y="437"/>
      <point x="215" y="355"/>
      <point x="353" y="355" type="curve" smooth="yes"/>
      <point x="431" y="355"/>
      <point x="515" y="381"/>
      <point x="594" y="426" type="curve"/>
      <point x="589" y="157"/>
      <point x="509" y="17"/>
      <point x="369" y="17" type="curve" smooth="yes"/>
      <point x="277" y="17"/>
      <point x="232" y="75"/>
      <point x="204" y="147" type="curve" smooth="yes"/>
      <point x="199" y="160"/>
      <point x="191" y="162"/>
      <point x="180" y="158" type="curve" smooth="yes"/>
      <point x="169" y="154"/>
      <point x="164" y="148"/>
      <point x="170" y="133" type="curve" smooth="yes"/>
      <point x="196" y="65"/>
      <point x="246" y="-20"/>
    </contour>
  </outline>
</glyph>
<glyph name="G.dec" format="2">
  <advance width="1049"/>
  <anchor x="563" y="0" name="bottom"/>
  <anchor x="588" y="838" name="top"/>
  <outline>
    <contour>
      <point x="69" y="-12" type="curve" smooth="yes"/>
      <point x="341" y="-12"/>
      <point x="496" y="439"/>
      <point x="496" y="675" type="curve" smooth="yes"/>
      <point x="496" y="825"/>
      <point x="456" y="890"/>
      <point x="381" y="890" type="curve" smooth="yes"/>
      <point x="315" y="890"/>
      <point x="280" y="824"/>
      <point x="280" y="763" type="curve" smooth="yes"/>
      <point x="280" y="628"/>
      <point x="360" y="529"/>
      <point x="511" y="529" type="curve" smooth="yes"/>
      <point x="653" y="529"/>
      <point x="760" y="620"/>
      <point x="841" y="800" type="curve"/>
      <point x="826" y="795" type="line"/>
      <point x="838" y="695"/>
      <point x="848" y="588"/>
      <point x="848" y="485" type="curve" smooth="yes"/>
      <point x="848" y="121"/>
      <point x="731" y="25"/>
      <point x="561" y="25" type="curve" smooth="yes"/>
      <point x="364" y="25"/>
      <point x="218" y="196"/>
      <point x="178" y="435" type="curve"/>
      <point x="163" y="421" type="line"/>
      <point x="419" y="280"/>
      <point x="676" y="225"/>
      <point x="993" y="225" type="curve" smooth="yes"/>
      <point x="1000" y="225"/>
      <point x="1004" y="234"/>
      <point x="1004" y="245" type="curve" smooth="yes"/>
      <point x="1004" y="258"/>
      <point x="1000" y="263"/>
      <point x="993" y="263" type="curve" smooth="yes"/>
      <point x="683" y="263"/>
      <point x="424" y="314"/>
      <point x="183" y="451" type="curve" smooth="yes"/>
      <point x="176" y="455"/>
      <point x="164" y="458"/>
      <point x="150" y="443" type="curve" smooth="yes"/>
      <point x="138" y="430"/>
      <point x="143" y="415"/>
      <point x="144" y="410" type="curve" smooth="yes"/>
      <point x="185" y="175"/>
      <point x="340" y="-12"/>
      <point x="561" y="-12" type="curve" smooth="yes"/>
      <point x="758" y="-12"/>
      <point x="889" y="103"/>
      <point x="889" y="485" type="curve" smooth="yes"/>
      <point x="889" y="590"/>
      <point x="879" y="700"/>
      <point x="866" y="800" type="curve"/>
      <point x="864" y="809"/>
      <point x="861" y="820"/>
      <point x="843" y="825" type="curve" smooth="yes"/>
      <point x="825" y="830"/>
      <point x="811" y="823"/>
      <point x="808" y="814" type="curve" smooth="yes"/>
      <point x="744" y="659"/>
      <point x="634" y="564"/>
      <point x="518" y="564" type="curve" smooth="yes"/>
      <point x="379" y="564"/>
      <point x="319" y="643"/>
      <point x="319" y="764" type="curve" smooth="yes"/>
      <point x="319" y="808"/>
      <point x="339" y="855"/>
      <point x="381" y="855" type="curve" smooth="yes"/>
      <point x="433" y="855"/>
      <point x="456" y="803"/>
      <point x="456" y="673" type="curve" smooth="yes"/>
      <point x="456" y="448"/>
      <point x="306" y="25"/>
      <point x="69" y="25" type="curve" smooth="yes"/>
      <point x="55" y="25"/>
      <point x="48" y="19"/>
      <point x="48" y="5" type="curve" smooth="yes"/>
      <point x="48" y="-7"/>
      <point x="54" y="-12"/>
    </contour>
  </outline>
</glyph>
<glyph name="H.cur" format="2">
  <advance width="1034"/>
  <anchor x="524" y="0" name="bottom"/>
  <anchor x="524" y="656" name="center"/>
  <anchor x="524" y="838" name="top"/>
  <outline>
    <contour>
      <point x="233" y="-17" type="curve" smooth="yes"/>
      <point x="301" y="-17"/>
      <point x="335" y="33"/>
      <point x="335" y="136" type="curve" smooth="yes"/>
      <point x="335" y="326" type="line"/>
      <point x="453" y="375"/>
      <point x="603" y="445"/>
      <point x="710" y="498" type="curve"/>
      <point x="711" y="139" type="line" smooth="yes"/>
      <point x="711" y="38"/>
      <point x="756" y="-17"/>
      <point x="839" y="-17" type="curve" smooth="yes"/>
      <point x="899" y="-17"/>
      <point x="949" y="11"/>
      <point x="981" y="65" type="curve" smooth="yes"/>
      <point x="986" y="73"/>
      <point x="984" y="81"/>
      <point x="975" y="86" type="curve"/>
      <point x="966" y="94"/>
      <point x="956" y="93"/>
      <point x="951" y="85" type="curve" smooth="yes"/>
      <point x="920" y="39"/>
      <point x="886" y="18"/>
      <point x="843" y="18" type="curve" smooth="yes"/>
      <point x="783" y="18"/>
      <point x="749" y="61"/>
      <point x="749" y="139" type="curve" smooth="yes"/>
      <point x="748" y="520" type="line"/>
      <point x="868" y="574"/>
      <point x="923" y="648"/>
      <point x="923" y="753" type="curve" smooth="yes"/>
      <point x="923" y="834"/>
      <point x="878" y="890"/>
      <point x="813" y="890" type="curve" smooth="yes"/>
      <point x="743" y="890"/>
      <point x="710" y="840"/>
      <point x="710" y="733" type="curve" smooth="yes"/>
      <point x="710" y="539" type="line"/>
      <point x="588" y="479"/>
      <point x="463" y="420"/>
      <point x="335" y="368" type="curve"/>
      <point x="335" y="771" type="line" smooth="yes"/>
      <point x="335" y="844"/>
      <point x="304" y="890"/>
      <point x="230" y="890" type="curve" smooth="yes"/>
      <point x="160" y="890"/>
      <point x="113" y="850"/>
      <point x="65" y="788" type="curve" smooth="yes"/>
      <point x="58" y="778"/>
      <point x="59" y="770"/>
      <point x="70" y="763" type="curve" smooth="yes"/>
      <point x="81" y="755"/>
      <point x="88" y="758"/>
      <point x="95" y="768" type="curve" smooth="yes"/>
      <point x="135" y="824"/>
      <point x="173" y="856"/>
      <point x="230" y="856" type="curve" smooth="yes"/>
      <point x="278" y="856"/>
      <point x="298" y="824"/>
      <point x="298" y="771" type="curve" smooth="yes"/>
      <point x="298" y="351" type="line"/>
      <point x="178" y="303"/>
      <point x="123" y="230"/>
      <point x="123" y="126" type="curve" smooth="yes"/>
      <point x="123" y="46"/>
      <point x="171" y="-17"/>
    </contour>
    <contour>
      <point x="234" y="20" type="curve" smooth="yes"/>
      <point x="194" y="20"/>
      <point x="163" y="69"/>
      <point x="163" y="130" type="curve" smooth="yes"/>
      <point x="163" y="219"/>
      <point x="208" y="280"/>
      <point x="298" y="314" type="curve"/>
      <point x="298" y="150" type="line" smooth="yes"/>
      <point x="298" y="59"/>
      <point x="279" y="20"/>
    </contour>
    <contour>
      <point x="748" y="560" type="curve"/>
      <point x="748" y="720" type="line" smooth="yes"/>
      <point x="748" y="816"/>
      <point x="766" y="855"/>
      <point x="813" y="855" type="curve" smooth="yes"/>
      <point x="854" y="855"/>
      <point x="883" y="811"/>
      <point x="883" y="749" type="curve" smooth="yes"/>
      <point x="883" y="660"/>
      <point x="840" y="601"/>
    </contour>
  </outline>
</glyph>
<glyph name="I.cur" format="2">
  <advance width="956"/>
  <anchor x="676" y="0" name="bottom"/>
  <anchor x="496" y="-5" name="ogonek"/>
  <anchor x="676" y="838" name="top"/>
  <outline>
    <contour>
      <point x="854" y="614" type="curve" smooth="yes"/>
      <point x="854" y="778"/>
      <point x="800" y="890"/>
      <point x="680" y="890" type="curve" smooth="yes"/>
      <point x="546" y="890"/>
      <point x="489" y="756"/>
      <point x="489" y="589" type="curve" smooth="yes"/>
      <point x="489" y="446"/>
      <point x="528" y="291"/>
      <point x="644" y="128" type="curve"/>
      <point x="579" y="60"/>
      <point x="498" y="20"/>
      <point x="406" y="20" type="curve" smooth="yes"/>
      <point x="265" y="20"/>
      <point x="168" y="103"/>
      <point x="125" y="259" type="curve"/>
      <point x="208" y="234"/>
      <point x="270" y="225"/>
      <point x="373" y="225" type="curve" smooth="yes"/>
      <point x="380" y="225"/>
      <point x="384" y="234"/>
      <point x="384" y="245" type="curve" smooth="yes"/>
      <point x="384" y="258"/>
      <point x="380" y="263"/>
      <point x="373" y="263" type="curve" smooth="yes"/>
      <point x="271" y="263"/>
      <point x="204" y="274"/>
      <point x="125" y="300" type="curve" smooth="yes"/>
      <point x="119" y="303"/>
      <point x="109" y="306"/>
      <point x="95" y="294" type="curve" smooth="yes"/>
      <point x="81" y="281"/>
      <point x="85" y="266"/>
      <point x="86" y="261" type="curve" smooth="yes"/>
      <point x="128" y="81"/>
      <point x="238" y="-17"/>
      <point x="406" y="-17" type="curve" smooth="yes"/>
      <point x="506" y="-17"/>
      <point x="595" y="25"/>
      <point x="668" y="96" type="curve"/>
      <point x="694" y="61"/>
      <point x="724" y="26"/>
      <point x="758" y="-9" type="curve" smooth="yes"/>
      <point x="766" y="-17"/>
      <point x="776" y="-19"/>
      <point x="788" y="-9" type="curve" smooth="yes"/>
      <point x="796" y="0"/>
      <point x="800" y="10"/>
      <point x="789" y="21" type="curve" smooth="yes"/>
      <point x="754" y="56"/>
      <point x="724" y="93"/>
      <point x="696" y="128" type="curve"/>
      <point x="794" y="244"/>
      <point x="854" y="418"/>
    </contour>
    <contour>
      <point x="530" y="589" type="curve" smooth="yes"/>
      <point x="530" y="734"/>
      <point x="575" y="853"/>
      <point x="680" y="853" type="curve" smooth="yes"/>
      <point x="774" y="853"/>
      <point x="813" y="745"/>
      <point x="813" y="614" type="curve" smooth="yes"/>
      <point x="813" y="435"/>
      <point x="760" y="271"/>
      <point x="673" y="161" type="curve"/>
      <point x="570" y="309"/>
      <point x="530" y="460"/>
    </contour>
  </outline>
</glyph>
<glyph name="I.cur.ini" format="2">
  <advance width="1005"/>
  <anchor x="676" y="0" name="bottom"/>
  <anchor x="1005" y="0" name="cnct"/>
  <anchor x="791" y="-5" name="ogonek"/>
  <anchor x="676" y="838" name="top"/>
  <outline>
    <contour>
      <point x="406" y="-17" type="curve" smooth="yes"/>
      <point x="689" y="-17"/>
      <point x="854" y="300"/>
      <point x="854" y="614" type="curve" smooth="yes"/>
      <point x="854" y="778"/>
      <point x="800" y="890"/>
      <point x="680" y="890" type="curve" smooth="yes"/>
      <point x="545" y="890"/>
      <point x="488" y="776"/>
      <point x="488" y="609" type="curve" smooth="yes"/>
      <point x="488" y="258"/>
      <point x="729" y="-17"/>
      <point x="949" y="-17" type="curve" smooth="yes"/>
      <point x="969" y="-17"/>
      <point x="969" y="18"/>
      <point x="949" y="18" type="curve" smooth="yes"/>
      <point x="753" y="18"/>
      <point x="529" y="278"/>
      <point x="529" y="609" type="curve" smooth="yes"/>
      <point x="529" y="754"/>
      <point x="574" y="853"/>
      <point x="680" y="853" type="curve" smooth="yes"/>
      <point x="774" y="853"/>
      <point x="813" y="745"/>
      <point x="813" y="614" type="curve" smooth="yes"/>
      <point x="813" y="323"/>
      <point x="664" y="20"/>
      <point x="406" y="20" type="curve" smooth="yes"/>
      <point x="265" y="20"/>
      <point x="168" y="103"/>
      <point x="125" y="259" type="curve"/>
      <point x="208" y="234"/>
      <point x="270" y="225"/>
      <point x="373" y="225" type="curve" smooth="yes"/>
      <point x="380" y="225"/>
      <point x="384" y="234"/>
      <point x="384" y="245" type="curve" smooth="yes"/>
      <point x="384" y="258"/>
      <point x="380" y="263"/>
      <point x="373" y="263" type="curve" smooth="yes"/>
      <point x="271" y="263"/>
      <point x="204" y="274"/>
      <point x="125" y="300" type="curve"/>
      <point x="119" y="303"/>
      <point x="109" y="306"/>
      <point x="95" y="294" type="curve" smooth="yes"/>
      <point x="81" y="281"/>
      <point x="85" y="266"/>
      <point x="86" y="261" type="curve" smooth="yes"/>
      <point x="128" y="81"/>
      <point x="238" y="-17"/>
    </contour>
  </outline>
</glyph>
<glyph name="I.dec" format="2">
  <advance width="544"/>
  <anchor x="240" y="0" name="bottom"/>
  <anchor x="304" y="-5" name="ogonek"/>
  <anchor x="244" y="838" name="top"/>
  <outline>
    <contour>
      <point x="233" y="-17" type="curve" smooth="yes"/>
      <point x="333" y="-17"/>
      <point x="396" y="49"/>
      <point x="396" y="154" type="curve" smooth="yes"/>
      <point x="396" y="873" type="line" smooth="yes"/>
      <point x="396" y="883"/>
      <point x="390" y="888"/>
      <point x="379" y="888" type="curve" smooth="yes"/>
      <point x="369" y="888"/>
      <point x="364" y="884"/>
      <point x="356" y="876" type="curve" smooth="yes"/>
      <point x="343" y="861"/>
      <point x="318" y="846"/>
      <point x="293" y="846" type="curve" smooth="yes"/>
      <point x="250" y="846"/>
      <point x="213" y="870"/>
      <point x="158" y="870" type="curve" smooth="yes"/>
      <point x="98" y="870"/>
      <point x="58" y="825"/>
      <point x="58" y="759" type="curve" smooth="yes"/>
      <point x="58" y="750"/>
      <point x="63" y="744"/>
      <point x="76" y="744" type="curve" smooth="yes"/>
      <point x="90" y="744"/>
      <point x="95" y="750"/>
      <point x="95" y="759" type="curve" smooth="yes"/>
      <point x="95" y="809"/>
      <point x="123" y="836"/>
      <point x="159" y="836" type="curve" smooth="yes"/>
      <point x="200" y="836"/>
      <point x="236" y="813"/>
      <point x="284" y="813" type="curve" smooth="yes"/>
      <point x="315" y="813"/>
      <point x="340" y="823"/>
      <point x="359" y="838" type="curve"/>
      <point x="359" y="158" type="line" smooth="yes"/>
      <point x="359" y="71"/>
      <point x="311" y="18"/>
      <point x="235" y="18" type="curve" smooth="yes"/>
      <point x="175" y="18"/>
      <point x="135" y="39"/>
      <point x="98" y="89" type="curve" smooth="yes"/>
      <point x="93" y="96"/>
      <point x="83" y="98"/>
      <point x="74" y="90" type="curve" smooth="yes"/>
      <point x="65" y="84"/>
      <point x="63" y="74"/>
      <point x="68" y="66" type="curve" smooth="yes"/>
      <point x="105" y="10"/>
      <point x="160" y="-17"/>
    </contour>
  </outline>
</glyph>
<glyph name="J.dec" format="2">
  <advance width="515"/>
  <anchor x="210" y="-406" name="bottom"/>
  <anchor x="264" y="838" name="top"/>
  <outline>
    <contour>
      <point x="209" y="-394" type="curve" smooth="yes"/>
      <point x="314" y="-394"/>
      <point x="368" y="-317"/>
      <point x="368" y="-167" type="curve"/>
      <point x="368" y="873" type="line"/>
      <point x="368" y="883"/>
      <point x="361" y="888"/>
      <point x="350" y="888" type="curve" smooth="yes"/>
      <point x="340" y="888"/>
      <point x="335" y="884"/>
      <point x="328" y="876" type="curve" smooth="yes"/>
      <point x="314" y="861"/>
      <point x="289" y="846"/>
      <point x="264" y="846" type="curve" smooth="yes"/>
      <point x="221" y="846"/>
      <point x="184" y="870"/>
      <point x="129" y="870" type="curve" smooth="yes"/>
      <point x="69" y="870"/>
      <point x="29" y="825"/>
      <point x="29" y="759" type="curve" smooth="yes"/>
      <point x="29" y="750"/>
      <point x="34" y="744"/>
      <point x="48" y="744" type="curve" smooth="yes"/>
      <point x="61" y="744"/>
      <point x="66" y="750"/>
      <point x="66" y="759" type="curve" smooth="yes"/>
      <point x="66" y="809"/>
      <point x="94" y="836"/>
      <point x="130" y="836" type="curve" smooth="yes"/>
      <point x="171" y="836"/>
      <point x="208" y="813"/>
      <point x="255" y="813" type="curve" smooth="yes"/>
      <point x="286" y="813"/>
      <point x="311" y="823"/>
      <point x="330" y="838" type="curve"/>
      <point x="330" y="-170" type="line"/>
      <point x="330" y="-291"/>
      <point x="288" y="-359"/>
      <point x="213" y="-359" type="curve" smooth="yes"/>
      <point x="159" y="-359"/>
      <point x="129" y="-326"/>
      <point x="129" y="-267" type="curve" smooth="yes"/>
      <point x="129" y="-211"/>
      <point x="161" y="-147"/>
      <point x="226" y="-79" type="curve" smooth="yes"/>
      <point x="326" y="28"/>
      <point x="433" y="128"/>
      <point x="541" y="215" type="curve" smooth="yes"/>
      <point x="551" y="221"/>
      <point x="553" y="229"/>
      <point x="546" y="238" type="curve" smooth="yes"/>
      <point x="538" y="249"/>
      <point x="533" y="249"/>
      <point x="523" y="241" type="curve" smooth="yes"/>
      <point x="434" y="173"/>
      <point x="331" y="78"/>
      <point x="216" y="-41" type="curve" smooth="yes"/>
      <point x="128" y="-136"/>
      <point x="89" y="-202"/>
      <point x="89" y="-269" type="curve" smooth="yes"/>
      <point x="89" y="-346"/>
      <point x="134" y="-394"/>
    </contour>
  </outline>
</glyph>
<glyph name="K.cur.ini" format="2">
  <advance width="824"/>
  <guideline y="-12"/>
  <anchor x="528" y="0" name="bottom"/>
  <anchor x="824" y="0" name="cnct"/>
  <anchor x="528" y="838" name="top"/>
  <outline>
    <contour>
      <point x="763" y="-17" type="curve" smooth="yes"/>
      <point x="785" y="-17"/>
      <point x="784" y="18"/>
      <point x="764" y="18" type="curve" smooth="yes"/>
      <point x="711" y="18"/>
      <point x="649" y="58"/>
      <point x="541" y="213" type="curve" smooth="yes"/>
      <point x="376" y="449" type="line"/>
      <point x="784" y="850" type="line" smooth="yes"/>
      <point x="793" y="858"/>
      <point x="789" y="866"/>
      <point x="784" y="873" type="curve" smooth="yes"/>
      <point x="778" y="880"/>
      <point x="768" y="885"/>
      <point x="758" y="875" type="curve" smooth="yes"/>
      <point x="334" y="456" type="line"/>
      <point x="334" y="771" type="line" smooth="yes"/>
      <point x="334" y="844"/>
      <point x="303" y="890"/>
      <point x="229" y="890" type="curve" smooth="yes"/>
      <point x="159" y="890"/>
      <point x="111" y="850"/>
      <point x="64" y="788" type="curve" smooth="yes"/>
      <point x="56" y="778"/>
      <point x="58" y="770"/>
      <point x="69" y="763" type="curve" smooth="yes"/>
      <point x="80" y="755"/>
      <point x="86" y="758"/>
      <point x="94" y="768" type="curve" smooth="yes"/>
      <point x="134" y="824"/>
      <point x="171" y="856"/>
      <point x="229" y="856" type="curve" smooth="yes"/>
      <point x="276" y="856"/>
      <point x="296" y="824"/>
      <point x="296" y="771" type="curve" smooth="yes"/>
      <point x="296" y="139" type="line" smooth="yes"/>
      <point x="296" y="58"/>
      <point x="259" y="18"/>
      <point x="204" y="18" type="curve" smooth="yes"/>
      <point x="168" y="18"/>
      <point x="124" y="29"/>
      <point x="85" y="86" type="curve" smooth="yes"/>
      <point x="79" y="95"/>
      <point x="69" y="94"/>
      <point x="61" y="88" type="curve" smooth="yes"/>
      <point x="55" y="83"/>
      <point x="50" y="74"/>
      <point x="55" y="66" type="curve" smooth="yes"/>
      <point x="90" y="9"/>
      <point x="144" y="-17"/>
      <point x="201" y="-17" type="curve" smooth="yes"/>
      <point x="280" y="-17"/>
      <point x="334" y="35"/>
      <point x="334" y="135" type="curve" smooth="yes"/>
      <point x="334" y="443" type="line"/>
      <point x="520" y="179" type="line" smooth="yes"/>
      <point x="614" y="46"/>
      <point x="683" y="-17"/>
    </contour>
  </outline>
</glyph>
<glyph name="L.cur" format="2">
  <advance width="776"/>
  <anchor x="550" y="463" name="CAT"/>
  <anchor x="465" y="0" name="bottom"/>
  <anchor x="251" y="450" name="center"/>
  <anchor x="440" y="838" name="top"/>
  <anchor x="611" y="875" name="topright"/>
  <outline>
    <contour>
      <point x="136" y="-21" type="curve" smooth="yes"/>
      <point x="218" y="-21"/>
      <point x="270" y="50"/>
      <point x="270" y="161" type="curve" smooth="yes"/>
      <point x="270" y="644" type="line" smooth="yes"/>
      <point x="270" y="785"/>
      <point x="326" y="856"/>
      <point x="438" y="856" type="curve" smooth="yes"/>
      <point x="520" y="856"/>
      <point x="565" y="821"/>
      <point x="598" y="729" type="curve" smooth="yes"/>
      <point x="600" y="720"/>
      <point x="608" y="716"/>
      <point x="619" y="720" type="curve" smooth="yes"/>
      <point x="629" y="723"/>
      <point x="633" y="729"/>
      <point x="630" y="739" type="curve" smooth="yes"/>
      <point x="600" y="840"/>
      <point x="538" y="890"/>
      <point x="440" y="890" type="curve" smooth="yes"/>
      <point x="306" y="890"/>
      <point x="233" y="806"/>
      <point x="233" y="654" type="curve" smooth="yes"/>
      <point x="233" y="161" type="line" smooth="yes"/>
      <point x="233" y="74"/>
      <point x="194" y="13"/>
      <point x="139" y="13" type="curve" smooth="yes"/>
      <point x="103" y="13"/>
      <point x="79" y="31"/>
      <point x="79" y="60" type="curve" smooth="yes"/>
      <point x="79" y="88"/>
      <point x="101" y="105"/>
      <point x="139" y="105" type="curve" smooth="yes"/>
      <point x="228" y="105"/>
      <point x="290" y="-11"/>
      <point x="493" y="-11" type="curve" smooth="yes"/>
      <point x="608" y="-11"/>
      <point x="715" y="64"/>
      <point x="738" y="161" type="curve" smooth="yes"/>
      <point x="740" y="171"/>
      <point x="736" y="178"/>
      <point x="726" y="180" type="curve" smooth="yes"/>
      <point x="715" y="184"/>
      <point x="708" y="180"/>
      <point x="705" y="171" type="curve" smooth="yes"/>
      <point x="681" y="83"/>
      <point x="594" y="23"/>
      <point x="488" y="23" type="curve" smooth="yes"/>
      <point x="314" y="23"/>
      <point x="249" y="140"/>
      <point x="136" y="140" type="curve" smooth="yes"/>
      <point x="78" y="140"/>
      <point x="38" y="106"/>
      <point x="38" y="56" type="curve" smooth="yes"/>
      <point x="38" y="10"/>
      <point x="78" y="-21"/>
    </contour>
  </outline>
</glyph>
<glyph name="L.dec.ini" format="2">
  <advance width="768"/>
  <anchor x="575" y="413" name="CAT"/>
  <anchor x="494" y="0" name="bottom"/>
  <anchor x="280" y="350" name="center"/>
  <anchor x="768" y="0" name="cnct"/>
  <anchor x="469" y="838" name="top"/>
  <anchor x="649" y="875" name="topright"/>
  <outline>
    <contour>
      <point x="165" y="-21" type="curve" smooth="yes"/>
      <point x="246" y="-21"/>
      <point x="299" y="50"/>
      <point x="299" y="161" type="curve" smooth="yes"/>
      <point x="299" y="556" type="line" smooth="yes"/>
      <point x="299" y="745"/>
      <point x="366" y="855"/>
      <point x="491" y="855" type="curve" smooth="yes"/>
      <point x="561" y="855"/>
      <point x="611" y="816"/>
      <point x="611" y="745" type="curve" smooth="yes"/>
      <point x="611" y="660"/>
      <point x="533" y="608"/>
      <point x="420" y="608" type="curve" smooth="yes"/>
      <point x="283" y="608"/>
      <point x="186" y="650"/>
      <point x="95" y="716" type="curve" smooth="yes"/>
      <point x="88" y="721"/>
      <point x="81" y="720"/>
      <point x="74" y="710" type="curve" smooth="yes"/>
      <point x="66" y="700"/>
      <point x="66" y="694"/>
      <point x="76" y="688" type="curve" smooth="yes"/>
      <point x="174" y="624"/>
      <point x="273" y="574"/>
      <point x="420" y="574" type="curve" smooth="yes"/>
      <point x="551" y="574"/>
      <point x="653" y="638"/>
      <point x="653" y="749" type="curve" smooth="yes"/>
      <point x="653" y="839"/>
      <point x="579" y="890"/>
      <point x="494" y="890" type="curve" smooth="yes"/>
      <point x="346" y="890"/>
      <point x="261" y="766"/>
      <point x="261" y="566" type="curve" smooth="yes"/>
      <point x="261" y="161" type="line" smooth="yes"/>
      <point x="261" y="74"/>
      <point x="223" y="13"/>
      <point x="168" y="13" type="curve" smooth="yes"/>
      <point x="131" y="13"/>
      <point x="108" y="31"/>
      <point x="108" y="60" type="curve" smooth="yes"/>
      <point x="108" y="93"/>
      <point x="138" y="105"/>
      <point x="200" y="105" type="curve" smooth="yes"/>
      <point x="314" y="105"/>
      <point x="499" y="-17"/>
      <point x="701" y="-17" type="curve" smooth="yes"/>
      <point x="725" y="-17"/>
      <point x="721" y="18"/>
      <point x="701" y="18" type="curve" smooth="yes"/>
      <point x="523" y="18"/>
      <point x="330" y="141"/>
      <point x="198" y="141" type="curve" smooth="yes"/>
      <point x="114" y="141"/>
      <point x="66" y="111"/>
      <point x="66" y="56" type="curve" smooth="yes"/>
      <point x="66" y="10"/>
      <point x="106" y="-21"/>
    </contour>
  </outline>
</glyph>
<glyph name="M.cur" format="2">
  <advance width="1338"/>
  <anchor x="688" y="0" name="bottom"/>
  <anchor x="700" y="838" name="top"/>
  <outline>
    <contour>
      <point x="1188" y="-17" type="curve" smooth="yes"/>
      <point x="1241" y="-17"/>
      <point x="1288" y="13"/>
      <point x="1318" y="65" type="curve" smooth="yes"/>
      <point x="1321" y="71"/>
      <point x="1318" y="80"/>
      <point x="1310" y="86" type="curve" smooth="yes"/>
      <point x="1300" y="93"/>
      <point x="1290" y="91"/>
      <point x="1286" y="84" type="curve" smooth="yes"/>
      <point x="1258" y="38"/>
      <point x="1229" y="18"/>
      <point x="1191" y="18" type="curve" smooth="yes"/>
      <point x="1136" y="18"/>
      <point x="1110" y="55"/>
      <point x="1110" y="135" type="curve" smooth="yes"/>
      <point x="1110" y="686" type="line" smooth="yes"/>
      <point x="1110" y="823"/>
      <point x="1048" y="890"/>
      <point x="919" y="890" type="curve" smooth="yes"/>
      <point x="828" y="890"/>
      <point x="744" y="830"/>
      <point x="707" y="741" type="curve"/>
      <point x="705" y="755"/>
      <point x="701" y="769"/>
      <point x="697" y="781" type="curve" smooth="yes"/>
      <point x="673" y="848"/>
      <point x="619" y="890"/>
      <point x="529" y="890" type="curve" smooth="yes"/>
      <point x="429" y="890"/>
      <point x="352" y="841"/>
      <point x="313" y="755" type="curve"/>
      <point x="313" y="760"/>
      <point x="313" y="766"/>
      <point x="313" y="771" type="curve" smooth="yes"/>
      <point x="313" y="844"/>
      <point x="281" y="890"/>
      <point x="208" y="890" type="curve" smooth="yes"/>
      <point x="138" y="890"/>
      <point x="90" y="850"/>
      <point x="43" y="788" type="curve" smooth="yes"/>
      <point x="35" y="778"/>
      <point x="36" y="770"/>
      <point x="48" y="763" type="curve" smooth="yes"/>
      <point x="59" y="755"/>
      <point x="65" y="758"/>
      <point x="73" y="768" type="curve" smooth="yes"/>
      <point x="113" y="824"/>
      <point x="150" y="856"/>
      <point x="208" y="856" type="curve" smooth="yes"/>
      <point x="255" y="856"/>
      <point x="275" y="824"/>
      <point x="275" y="771" type="curve" smooth="yes"/>
      <point x="275" y="0" type="line" smooth="yes"/>
      <point x="275" y="-10"/>
      <point x="281" y="-15"/>
      <point x="294" y="-15" type="curve" smooth="yes"/>
      <point x="308" y="-15"/>
      <point x="313" y="-10"/>
      <point x="313" y="0" type="curve" smooth="yes"/>
      <point x="313" y="674" type="line"/>
      <point x="340" y="789"/>
      <point x="417" y="855"/>
      <point x="524" y="855" type="curve" smooth="yes"/>
      <point x="624" y="855"/>
      <point x="674" y="798"/>
      <point x="674" y="681" type="curve" smooth="yes"/>
      <point x="674" y="0" type="line" smooth="yes"/>
      <point x="674" y="-10"/>
      <point x="680" y="-15"/>
      <point x="693" y="-15" type="curve" smooth="yes"/>
      <point x="706" y="-15"/>
      <point x="711" y="-10"/>
      <point x="711" y="0" type="curve" smooth="yes"/>
      <point x="711" y="668" type="line"/>
      <point x="734" y="776"/>
      <point x="819" y="855"/>
      <point x="914" y="855" type="curve" smooth="yes"/>
      <point x="1025" y="855"/>
      <point x="1073" y="803"/>
      <point x="1073" y="679" type="curve" smooth="yes"/>
      <point x="1073" y="134" type="line" smooth="yes"/>
      <point x="1073" y="31"/>
      <point x="1109" y="-17"/>
    </contour>
  </outline>
</glyph>
<glyph name="M.cur.ini" format="2">
  <advance width="1294"/>
  <anchor x="687" y="0" name="bottom"/>
  <anchor x="1294" y="0" name="cnct"/>
  <anchor x="700" y="838" name="top"/>
  <outline>
    <contour>
      <point x="1234" y="-17" type="curve" smooth="yes"/>
      <point x="1251" y="-17"/>
      <point x="1251" y="18"/>
      <point x="1234" y="18" type="curve" smooth="yes"/>
      <point x="1151" y="18"/>
      <point x="1110" y="64"/>
      <point x="1110" y="161" type="curve" smooth="yes"/>
      <point x="1110" y="686" type="line" smooth="yes"/>
      <point x="1110" y="823"/>
      <point x="1047" y="890"/>
      <point x="919" y="890" type="curve" smooth="yes"/>
      <point x="816" y="890"/>
      <point x="722" y="813"/>
      <point x="695" y="705" type="curve"/>
      <point x="711" y="668" type="line"/>
      <point x="734" y="776"/>
      <point x="819" y="855"/>
      <point x="914" y="855" type="curve" smooth="yes"/>
      <point x="1025" y="855"/>
      <point x="1072" y="803"/>
      <point x="1072" y="679" type="curve" smooth="yes"/>
      <point x="1072" y="161" type="line" smooth="yes"/>
      <point x="1072" y="41"/>
      <point x="1124" y="-17"/>
    </contour>
    <contour>
      <point x="294" y="-15" type="curve" smooth="yes"/>
      <point x="307" y="-15"/>
      <point x="312" y="-10"/>
      <point x="312" y="0" type="curve" smooth="yes"/>
      <point x="312" y="771" type="line" smooth="yes"/>
      <point x="312" y="844"/>
      <point x="281" y="890"/>
      <point x="207" y="890" type="curve" smooth="yes"/>
      <point x="137" y="890"/>
      <point x="90" y="850"/>
      <point x="42" y="788" type="curve" smooth="yes"/>
      <point x="35" y="778"/>
      <point x="36" y="770"/>
      <point x="47" y="763" type="curve" smooth="yes"/>
      <point x="59" y="755"/>
      <point x="65" y="758"/>
      <point x="72" y="768" type="curve" smooth="yes"/>
      <point x="112" y="824"/>
      <point x="150" y="856"/>
      <point x="207" y="856" type="curve" smooth="yes"/>
      <point x="255" y="856"/>
      <point x="275" y="824"/>
      <point x="275" y="771" type="curve" smooth="yes"/>
      <point x="275" y="0" type="line" smooth="yes"/>
      <point x="275" y="-10"/>
      <point x="281" y="-15"/>
    </contour>
    <contour>
      <point x="692" y="-15" type="curve" smooth="yes"/>
      <point x="706" y="-15"/>
      <point x="711" y="-10"/>
      <point x="711" y="0" type="curve" smooth="yes"/>
      <point x="711" y="689" type="line" smooth="yes"/>
      <point x="711" y="818"/>
      <point x="645" y="890"/>
      <point x="529" y="890" type="curve" smooth="yes"/>
      <point x="410" y="890"/>
      <point x="325" y="821"/>
      <point x="295" y="703" type="curve"/>
      <point x="311" y="665" type="line"/>
      <point x="336" y="786"/>
      <point x="414" y="855"/>
      <point x="524" y="855" type="curve" smooth="yes"/>
      <point x="624" y="855"/>
      <point x="674" y="798"/>
      <point x="674" y="681" type="curve" smooth="yes"/>
      <point x="674" y="0" type="line" smooth="yes"/>
      <point x="674" y="-10"/>
      <point x="680" y="-15"/>
    </contour>
  </outline>
</glyph>
<glyph name="N.cur.ini" format="2">
  <advance width="957"/>
  <anchor x="519" y="0" name="bottom"/>
  <anchor x="957" y="0" name="cnct"/>
  <anchor x="520" y="838" name="top"/>
  <outline>
    <contour>
      <point x="897" y="-17" type="curve" smooth="yes"/>
      <point x="915" y="-17"/>
      <point x="915" y="18"/>
      <point x="897" y="18" type="curve" smooth="yes"/>
      <point x="815" y="18"/>
      <point x="774" y="64"/>
      <point x="774" y="161" type="curve" smooth="yes"/>
      <point x="774" y="655" type="line" smooth="yes"/>
      <point x="774" y="806"/>
      <point x="696" y="890"/>
      <point x="557" y="890" type="curve" smooth="yes"/>
      <point x="441" y="890"/>
      <point x="354" y="839"/>
      <point x="312" y="751" type="curve"/>
      <point x="312" y="771" type="line" smooth="yes"/>
      <point x="312" y="844"/>
      <point x="281" y="890"/>
      <point x="207" y="890" type="curve" smooth="yes"/>
      <point x="137" y="890"/>
      <point x="90" y="850"/>
      <point x="42" y="788" type="curve" smooth="yes"/>
      <point x="35" y="778"/>
      <point x="36" y="770"/>
      <point x="47" y="763" type="curve" smooth="yes"/>
      <point x="59" y="755"/>
      <point x="65" y="758"/>
      <point x="72" y="768" type="curve" smooth="yes"/>
      <point x="112" y="824"/>
      <point x="150" y="856"/>
      <point x="207" y="856" type="curve" smooth="yes"/>
      <point x="255" y="856"/>
      <point x="275" y="824"/>
      <point x="275" y="771" type="curve" smooth="yes"/>
      <point x="275" y="0" type="line" smooth="yes"/>
      <point x="275" y="-10"/>
      <point x="281" y="-15"/>
      <point x="294" y="-15" type="curve" smooth="yes"/>
      <point x="307" y="-15"/>
      <point x="312" y="-10"/>
      <point x="312" y="0" type="curve" smooth="yes"/>
      <point x="312" y="670" type="line"/>
      <point x="338" y="786"/>
      <point x="428" y="855"/>
      <point x="552" y="855" type="curve" smooth="yes"/>
      <point x="675" y="855"/>
      <point x="736" y="786"/>
      <point x="736" y="648" type="curve" smooth="yes"/>
      <point x="736" y="161" type="line" smooth="yes"/>
      <point x="736" y="41"/>
      <point x="787" y="-17"/>
    </contour>
  </outline>
</glyph>
<glyph name="O.cur" format="2">
  <advance width="929"/>
  <anchor x="463" y="0" name="bottom"/>
  <anchor x="463" y="438" name="center"/>
  <anchor x="591" y="6" name="ogonek"/>
  <anchor x="463" y="838" name="top"/>
  <anchor x="620" y="875" name="topright"/>
  <outline>
    <contour>
      <point x="459" y="-19" type="curve" smooth="yes"/>
      <point x="683" y="-19"/>
      <point x="835" y="171"/>
      <point x="835" y="448" type="curve" smooth="yes"/>
      <point x="835" y="720"/>
      <point x="718" y="890"/>
      <point x="529" y="890" type="curve" smooth="yes"/>
      <point x="414" y="890"/>
      <point x="323" y="820"/>
      <point x="285" y="704" type="curve" smooth="yes"/>
      <point x="281" y="691"/>
      <point x="283" y="684"/>
      <point x="291" y="678" type="curve" smooth="yes"/>
      <point x="301" y="671"/>
      <point x="313" y="674"/>
      <point x="316" y="684" type="curve" smooth="yes"/>
      <point x="368" y="804"/>
      <point x="428" y="854"/>
      <point x="521" y="854" type="curve" smooth="yes"/>
      <point x="693" y="854"/>
      <point x="794" y="703"/>
      <point x="794" y="448" type="curve" smooth="yes"/>
      <point x="794" y="194"/>
      <point x="658" y="19"/>
      <point x="459" y="19" type="curve" smooth="yes"/>
      <point x="264" y="19"/>
      <point x="135" y="185"/>
      <point x="135" y="436" type="curve" smooth="yes"/>
      <point x="135" y="598"/>
      <point x="190" y="728"/>
      <point x="289" y="798" type="curve" smooth="yes"/>
      <point x="299" y="805"/>
      <point x="299" y="815"/>
      <point x="291" y="825" type="curve" smooth="yes"/>
      <point x="283" y="836"/>
      <point x="275" y="836"/>
      <point x="261" y="826" type="curve" smooth="yes"/>
      <point x="154" y="746"/>
      <point x="94" y="606"/>
      <point x="94" y="436" type="curve" smooth="yes"/>
      <point x="94" y="164"/>
      <point x="240" y="-19"/>
    </contour>
  </outline>
</glyph>
<glyph name="O.dec" format="2">
  <advance width="988"/>
  <anchor x="463" y="0" name="bottom"/>
  <anchor x="463" y="438" name="center"/>
  <anchor x="591" y="6" name="ogonek"/>
  <anchor x="463" y="838" name="top"/>
  <anchor x="631" y="855" name="topright"/>
  <outline>
    <contour>
      <point x="475" y="890" type="curve" smooth="yes"/>
      <point x="326" y="890"/>
      <point x="256" y="773"/>
      <point x="256" y="674" type="curve" smooth="yes"/>
      <point x="256" y="538"/>
      <point x="334" y="456"/>
      <point x="491" y="456" type="curve" smooth="yes"/>
      <point x="636" y="456"/>
      <point x="791" y="514"/>
      <point x="973" y="613" type="curve" smooth="yes"/>
      <point x="984" y="619"/>
      <point x="990" y="628"/>
      <point x="981" y="639" type="curve" smooth="yes"/>
      <point x="976" y="651"/>
      <point x="966" y="653"/>
      <point x="955" y="646" type="curve" smooth="yes"/>
      <point x="791" y="555"/>
      <point x="630" y="494"/>
      <point x="491" y="494" type="curve" smooth="yes"/>
      <point x="356" y="494"/>
      <point x="298" y="565"/>
      <point x="298" y="674" type="curve" smooth="yes"/>
      <point x="298" y="764"/>
      <point x="340" y="854"/>
      <point x="475" y="854" type="curve" smooth="yes"/>
      <point x="665" y="854"/>
      <point x="794" y="703"/>
      <point x="794" y="448" type="curve" smooth="yes"/>
      <point x="794" y="194"/>
      <point x="655" y="19"/>
      <point x="454" y="19" type="curve" smooth="yes"/>
      <point x="256" y="19"/>
      <point x="135" y="185"/>
      <point x="135" y="436" type="curve" smooth="yes"/>
      <point x="135" y="700"/>
      <point x="249" y="796"/>
      <point x="404" y="849" type="curve" smooth="yes"/>
      <point x="415" y="853"/>
      <point x="423" y="863"/>
      <point x="418" y="875" type="curve" smooth="yes"/>
      <point x="413" y="889"/>
      <point x="406" y="891"/>
      <point x="389" y="885" type="curve" smooth="yes"/>
      <point x="223" y="831"/>
      <point x="94" y="716"/>
      <point x="94" y="436" type="curve" smooth="yes"/>
      <point x="94" y="164"/>
      <point x="233" y="-19"/>
      <point x="454" y="-19" type="curve" smooth="yes"/>
      <point x="680" y="-19"/>
      <point x="835" y="171"/>
      <point x="835" y="448" type="curve" smooth="yes"/>
      <point x="835" y="720"/>
      <point x="694" y="890"/>
    </contour>
  </outline>
</glyph>
<glyph name="OE.cur.ini" format="2">
  <advance width="1319"/>
  <anchor x="1319" y="0" name="cnct"/>
  <anchor x="729" y="838" name="top"/>
  <outline>
    <contour>
      <point x="429" y="-19" type="curve" smooth="yes"/>
      <point x="640" y="-19"/>
      <point x="785" y="171"/>
      <point x="785" y="448" type="curve" smooth="yes"/>
      <point x="785" y="720"/>
      <point x="666" y="890"/>
      <point x="505" y="890" type="curve" smooth="yes"/>
      <point x="400" y="890"/>
      <point x="336" y="820"/>
      <point x="291" y="704" type="curve" smooth="yes"/>
      <point x="286" y="691"/>
      <point x="289" y="684"/>
      <point x="298" y="678" type="curve" smooth="yes"/>
      <point x="308" y="671"/>
      <point x="319" y="674"/>
      <point x="323" y="684" type="curve" smooth="yes"/>
      <point x="370" y="804"/>
      <point x="420" y="854"/>
      <point x="501" y="854" type="curve" smooth="yes"/>
      <point x="643" y="854"/>
      <point x="744" y="703"/>
      <point x="744" y="448" type="curve" smooth="yes"/>
      <point x="744" y="194"/>
      <point x="615" y="19"/>
      <point x="429" y="19" type="curve" smooth="yes"/>
      <point x="241" y="19"/>
      <point x="135" y="185"/>
      <point x="135" y="436" type="curve" smooth="yes"/>
      <point x="135" y="598"/>
      <point x="190" y="728"/>
      <point x="289" y="798" type="curve" smooth="yes"/>
      <point x="299" y="805"/>
      <point x="299" y="815"/>
      <point x="291" y="825" type="curve" smooth="yes"/>
      <point x="283" y="836"/>
      <point x="275" y="836"/>
      <point x="261" y="826" type="curve" smooth="yes"/>
      <point x="154" y="746"/>
      <point x="94" y="606"/>
      <point x="94" y="436" type="curve" smooth="yes"/>
      <point x="94" y="164"/>
      <point x="218" y="-19"/>
    </contour>
    <contour>
      <point x="1021" y="-17" type="curve" smooth="yes"/>
      <point x="1041" y="-17"/>
      <point x="1042" y="16"/>
      <point x="1022" y="16" type="curve" smooth="yes"/>
      <point x="868" y="16"/>
      <point x="770" y="90"/>
      <point x="770" y="233" type="curve" smooth="yes"/>
      <point x="770" y="369"/>
      <point x="883" y="441"/>
      <point x="1024" y="441" type="curve" smooth="yes"/>
      <point x="1121" y="441" type="line" smooth="yes"/>
      <point x="1129" y="441"/>
      <point x="1133" y="448"/>
      <point x="1133" y="459" type="curve" smooth="yes"/>
      <point x="1133" y="470"/>
      <point x="1129" y="476"/>
      <point x="1121" y="476" type="curve" smooth="yes"/>
      <point x="1020" y="476" type="line" smooth="yes"/>
      <point x="901" y="476"/>
      <point x="831" y="554"/>
      <point x="831" y="671" type="curve" smooth="yes"/>
      <point x="831" y="780"/>
      <point x="914" y="853"/>
      <point x="1023" y="853" type="curve" smooth="yes"/>
      <point x="1091" y="853"/>
      <point x="1149" y="829"/>
      <point x="1215" y="771" type="curve" smooth="yes"/>
      <point x="1226" y="763"/>
      <point x="1235" y="760"/>
      <point x="1244" y="769" type="curve" smooth="yes"/>
      <point x="1258" y="783"/>
      <point x="1249" y="789"/>
      <point x="1244" y="795" type="curve" smooth="yes"/>
      <point x="1186" y="855"/>
      <point x="1103" y="890"/>
      <point x="1025" y="890" type="curve" smooth="yes"/>
      <point x="894" y="890"/>
      <point x="791" y="800"/>
      <point x="791" y="670" type="curve" smooth="yes"/>
      <point x="791" y="569"/>
      <point x="843" y="490"/>
      <point x="940" y="460" type="curve"/>
      <point x="821" y="435"/>
      <point x="729" y="356"/>
      <point x="729" y="229" type="curve" smooth="yes"/>
      <point x="729" y="68"/>
      <point x="843" y="-17"/>
    </contour>
  </outline>
</glyph>
<glyph name="P.dec" format="2">
  <advance width="788"/>
  <outline>
    <contour>
      <point x="350" y="350" type="curve" smooth="yes"/>
      <point x="581" y="361"/>
      <point x="738" y="481"/>
      <point x="738" y="676" type="curve" smooth="yes"/>
      <point x="738" y="810"/>
      <point x="658" y="890"/>
      <point x="536" y="890" type="curve" smooth="yes"/>
      <point x="421" y="890"/>
      <point x="324" y="816"/>
      <point x="276" y="674" type="curve"/>
      <point x="276" y="873" type="line" smooth="yes"/>
      <point x="276" y="883"/>
      <point x="270" y="888"/>
      <point x="259" y="888" type="curve" smooth="yes"/>
      <point x="248" y="888"/>
      <point x="238" y="883"/>
      <point x="236" y="875" type="curve" smooth="yes"/>
      <point x="209" y="750"/>
      <point x="155" y="663"/>
      <point x="43" y="606" type="curve" smooth="yes"/>
      <point x="35" y="603"/>
      <point x="33" y="596"/>
      <point x="39" y="584" type="curve" smooth="yes"/>
      <point x="44" y="574"/>
      <point x="49" y="571"/>
      <point x="59" y="576" type="curve" smooth="yes"/>
      <point x="153" y="626"/>
      <point x="205" y="685"/>
      <point x="239" y="776" type="curve"/>
      <point x="239" y="1" type="line" smooth="yes"/>
      <point x="239" y="-9"/>
      <point x="245" y="-14"/>
      <point x="258" y="-14" type="curve" smooth="yes"/>
      <point x="271" y="-14"/>
      <point x="276" y="-9"/>
      <point x="276" y="1" type="curve" smooth="yes"/>
      <point x="276" y="465" type="line" smooth="yes"/>
      <point x="276" y="713"/>
      <point x="393" y="856"/>
      <point x="531" y="856" type="curve" smooth="yes"/>
      <point x="634" y="856"/>
      <point x="698" y="794"/>
      <point x="698" y="675" type="curve" smooth="yes"/>
      <point x="698" y="503"/>
      <point x="553" y="393"/>
      <point x="349" y="385" type="curve" smooth="yes"/>
      <point x="338" y="385"/>
      <point x="331" y="380"/>
      <point x="331" y="368" type="curve" smooth="yes"/>
      <point x="331" y="355"/>
      <point x="338" y="350"/>
    </contour>
  </outline>
</glyph>
<glyph name="Q.cur" format="2">
  <advance width="954"/>
  <outline>
    <contour>
      <point x="764" y="-100" type="curve" smooth="yes"/>
      <point x="826" y="-100"/>
      <point x="876" y="-61"/>
      <point x="926" y="28" type="curve"/>
      <point x="933" y="36"/>
      <point x="929" y="46"/>
      <point x="918" y="50" type="curve" smooth="yes"/>
      <point x="909" y="54"/>
      <point x="904" y="53"/>
      <point x="896" y="41" type="curve" smooth="yes"/>
      <point x="845" y="-40"/>
      <point x="813" y="-66"/>
      <point x="765" y="-66" type="curve" smooth="yes"/>
      <point x="643" y="-66"/>
      <point x="563" y="259"/>
      <point x="399" y="259" type="curve" smooth="yes"/>
      <point x="328" y="259"/>
      <point x="266" y="203"/>
      <point x="266" y="138" type="curve" smooth="yes"/>
      <point x="266" y="40"/>
      <point x="340" y="-19"/>
      <point x="460" y="-19" type="curve" smooth="yes"/>
      <point x="673" y="-19"/>
      <point x="819" y="165"/>
      <point x="819" y="430" type="curve" smooth="yes"/>
      <point x="819" y="714"/>
      <point x="681" y="890"/>
      <point x="460" y="890" type="curve" smooth="yes"/>
      <point x="243" y="890"/>
      <point x="94" y="704"/>
      <point x="94" y="430" type="curve" smooth="yes"/>
      <point x="94" y="340"/>
      <point x="118" y="248"/>
      <point x="158" y="181" type="curve" smooth="yes"/>
      <point x="169" y="163"/>
      <point x="201" y="181"/>
      <point x="191" y="200" type="curve" smooth="yes"/>
      <point x="155" y="269"/>
      <point x="135" y="353"/>
      <point x="135" y="430" type="curve" smooth="yes"/>
      <point x="135" y="681"/>
      <point x="266" y="853"/>
      <point x="460" y="853" type="curve" smooth="yes"/>
      <point x="656" y="853"/>
      <point x="778" y="691"/>
      <point x="778" y="430" type="curve" smooth="yes"/>
      <point x="778" y="195"/>
      <point x="643" y="16"/>
      <point x="465" y="16" type="curve" smooth="yes"/>
      <point x="364" y="16"/>
      <point x="308" y="60"/>
      <point x="308" y="138" type="curve" smooth="yes"/>
      <point x="308" y="188"/>
      <point x="345" y="223"/>
      <point x="398" y="223" type="curve" smooth="yes"/>
      <point x="524" y="223"/>
      <point x="614" y="-100"/>
    </contour>
  </outline>
</glyph>
<glyph name="Q.cur.ini" format="2">
  <advance width="941"/>
  <anchor x="941" y="0" name="cnct"/>
  <outline>
    <contour>
      <point x="883" y="-17" type="curve" smooth="yes"/>
      <point x="909" y="-17"/>
      <point x="910" y="18"/>
      <point x="883" y="18" type="curve" smooth="yes"/>
      <point x="656" y="18"/>
      <point x="556" y="259"/>
      <point x="399" y="259" type="curve" smooth="yes"/>
      <point x="328" y="259"/>
      <point x="266" y="203"/>
      <point x="266" y="138" type="curve" smooth="yes"/>
      <point x="266" y="40"/>
      <point x="340" y="-19"/>
      <point x="460" y="-19" type="curve" smooth="yes"/>
      <point x="673" y="-19"/>
      <point x="819" y="165"/>
      <point x="819" y="430" type="curve" smooth="yes"/>
      <point x="819" y="714"/>
      <point x="681" y="890"/>
      <point x="460" y="890" type="curve" smooth="yes"/>
      <point x="243" y="890"/>
      <point x="94" y="704"/>
      <point x="94" y="430" type="curve" smooth="yes"/>
      <point x="94" y="340"/>
      <point x="118" y="248"/>
      <point x="158" y="181" type="curve" smooth="yes"/>
      <point x="169" y="163"/>
      <point x="201" y="181"/>
      <point x="191" y="200" type="curve" smooth="yes"/>
      <point x="155" y="269"/>
      <point x="135" y="353"/>
      <point x="135" y="430" type="curve" smooth="yes"/>
      <point x="135" y="681"/>
      <point x="266" y="853"/>
      <point x="460" y="853" type="curve" smooth="yes"/>
      <point x="656" y="853"/>
      <point x="778" y="691"/>
      <point x="778" y="430" type="curve" smooth="yes"/>
      <point x="778" y="195"/>
      <point x="643" y="16"/>
      <point x="465" y="16" type="curve" smooth="yes"/>
      <point x="364" y="16"/>
      <point x="308" y="60"/>
      <point x="308" y="138" type="curve" smooth="yes"/>
      <point x="308" y="188"/>
      <point x="345" y="223"/>
      <point x="398" y="223" type="curve" smooth="yes"/>
      <point x="524" y="223"/>
      <point x="649" y="-17"/>
    </contour>
  </outline>
</glyph>
<glyph name="Q.dec_pt" format="2">
  <advance width="869"/>
  <outline>
    <contour>
      <point x="618" y="420" type="curve" smooth="yes"/>
      <point x="618" y="726" type="line" smooth="yes"/>
      <point x="618" y="738"/>
      <point x="613" y="741"/>
      <point x="599" y="741" type="curve" smooth="yes"/>
      <point x="585" y="741"/>
      <point x="580" y="738"/>
      <point x="580" y="725" type="curve"/>
      <point x="530" y="501"/>
      <point x="408" y="435"/>
      <point x="320" y="435" type="curve" smooth="yes"/>
      <point x="229" y="435"/>
      <point x="171" y="500"/>
      <point x="171" y="625" type="curve" smooth="yes"/>
      <point x="171" y="741"/>
      <point x="251" y="853"/>
      <point x="346" y="853" type="curve" smooth="yes"/>
      <point x="386" y="853"/>
      <point x="418" y="831"/>
      <point x="418" y="784" type="curve" smooth="yes"/>
      <point x="418" y="711"/>
      <point x="333" y="650"/>
      <point x="229" y="650" type="curve" smooth="yes"/>
      <point x="166" y="650"/>
      <point x="101" y="669"/>
      <point x="65" y="686" type="curve" smooth="yes"/>
      <point x="58" y="690"/>
      <point x="50" y="688"/>
      <point x="45" y="676" type="curve" smooth="yes"/>
      <point x="40" y="664"/>
      <point x="41" y="659"/>
      <point x="53" y="654" type="curve" smooth="yes"/>
      <point x="90" y="636"/>
      <point x="151" y="618"/>
      <point x="226" y="618" type="curve" smooth="yes"/>
      <point x="358" y="618"/>
      <point x="458" y="691"/>
      <point x="458" y="784" type="curve" smooth="yes"/>
      <point x="458" y="853"/>
      <point x="414" y="890"/>
      <point x="346" y="890" type="curve" smooth="yes"/>
      <point x="229" y="890"/>
      <point x="131" y="760"/>
      <point x="131" y="625" type="curve" smooth="yes"/>
      <point x="131" y="479"/>
      <point x="204" y="398"/>
      <point x="316" y="398" type="curve" smooth="yes"/>
      <point x="412" y="398"/>
      <point x="523" y="457"/>
      <point x="580" y="622" type="curve"/>
      <point x="580" y="420" type="line" smooth="yes"/>
      <point x="580" y="163"/>
      <point x="453" y="15"/>
      <point x="343" y="15" type="curve" smooth="yes"/>
      <point x="300" y="15"/>
      <point x="276" y="34"/>
      <point x="276" y="65" type="curve" smooth="yes"/>
      <point x="276" y="95"/>
      <point x="296" y="109"/>
      <point x="329" y="109" type="curve" smooth="yes"/>
      <point x="415" y="109"/>
      <point x="485" y="-17"/>
      <point x="621" y="-17" type="curve" smooth="yes"/>
      <point x="703" y="-17"/>
      <point x="766" y="26"/>
      <point x="816" y="110" type="curve" smooth="yes"/>
      <point x="821" y="119"/>
      <point x="819" y="129"/>
      <point x="808" y="133" type="curve" smooth="yes"/>
      <point x="799" y="136"/>
      <point x="791" y="136"/>
      <point x="784" y="125" type="curve" smooth="yes"/>
      <point x="733" y="53"/>
      <point x="690" y="20"/>
      <point x="624" y="20" type="curve" smooth="yes"/>
      <point x="500" y="20"/>
      <point x="434" y="144"/>
      <point x="326" y="144" type="curve" smooth="yes"/>
      <point x="273" y="144"/>
      <point x="235" y="114"/>
      <point x="235" y="65" type="curve" smooth="yes"/>
      <point x="235" y="8"/>
      <point x="289" y="-20"/>
      <point x="339" y="-20" type="curve" smooth="yes"/>
      <point x="483" y="-20"/>
      <point x="618" y="143"/>
    </contour>
  </outline>
</glyph>
<glyph name="Q.dec_pt.ini" format="2">
  <advance width="775"/>
  <anchor x="781" y="0" name="cnct"/>
  <outline>
    <contour>
      <point x="580" y="622" type="curve"/>
      <point x="580" y="420" type="line" smooth="yes"/>
      <point x="580" y="163"/>
      <point x="453" y="15"/>
      <point x="343" y="15" type="curve" smooth="yes"/>
      <point x="300" y="15"/>
      <point x="276" y="34"/>
      <point x="276" y="65" type="curve" smooth="yes"/>
      <point x="276" y="95"/>
      <point x="296" y="109"/>
      <point x="329" y="109" type="curve" smooth="yes"/>
      <point x="440" y="109"/>
      <point x="541" y="-17"/>
      <point x="720" y="-17" type="curve" smooth="yes"/>
      <point x="740" y="-17"/>
      <point x="741" y="18"/>
      <point x="721" y="18" type="curve" smooth="yes"/>
      <point x="555" y="18"/>
      <point x="459" y="144"/>
      <point x="326" y="144" type="curve" smooth="yes"/>
      <point x="273" y="144"/>
      <point x="236" y="114"/>
      <point x="236" y="65" type="curve" smooth="yes"/>
      <point x="236" y="8"/>
      <point x="289" y="-20"/>
      <point x="339" y="-20" type="curve" smooth="yes"/>
      <point x="483" y="-20"/>
      <point x="618" y="143"/>
      <point x="618" y="420" type="curve" smooth="yes"/>
      <point x="618" y="726" type="line" smooth="yes"/>
      <point x="618" y="738"/>
      <point x="613" y="741"/>
      <point x="599" y="741" type="curve" smooth="yes"/>
      <point x="585" y="741"/>
      <point x="580" y="738"/>
      <point x="580" y="725" type="curve"/>
      <point x="530" y="501"/>
      <point x="408" y="435"/>
      <point x="320" y="435" type="curve" smooth="yes"/>
      <point x="229" y="435"/>
      <point x="171" y="500"/>
      <point x="171" y="625" type="curve" smooth="yes"/>
      <point x="171" y="741"/>
      <point x="251" y="853"/>
      <point x="346" y="853" type="curve" smooth="yes"/>
      <point x="386" y="853"/>
      <point x="418" y="831"/>
      <point x="418" y="784" type="curve" smooth="yes"/>
      <point x="418" y="711"/>
      <point x="333" y="650"/>
      <point x="229" y="650" type="curve" smooth="yes"/>
      <point x="166" y="650"/>
      <point x="101" y="669"/>
      <point x="65" y="686" type="curve" smooth="yes"/>
      <point x="58" y="690"/>
      <point x="50" y="688"/>
      <point x="45" y="676" type="curve" smooth="yes"/>
      <point x="40" y="664"/>
      <point x="41" y="659"/>
      <point x="53" y="654" type="curve" smooth="yes"/>
      <point x="90" y="636"/>
      <point x="151" y="618"/>
      <point x="226" y="618" type="curve" smooth="yes"/>
      <point x="358" y="618"/>
      <point x="458" y="691"/>
      <point x="458" y="784" type="curve" smooth="yes"/>
      <point x="458" y="853"/>
      <point x="414" y="890"/>
      <point x="346" y="890" type="curve" smooth="yes"/>
      <point x="229" y="890"/>
      <point x="131" y="760"/>
      <point x="131" y="625" type="curve" smooth="yes"/>
      <point x="131" y="479"/>
      <point x="204" y="398"/>
      <point x="316" y="398" type="curve" smooth="yes"/>
      <point x="412" y="398"/>
      <point x="523" y="457"/>
    </contour>
  </outline>
</glyph>
<glyph name="S.cur" format="2">
  <advance width="893"/>
  <anchor x="594" y="0" name="bottom"/>
  <anchor x="453" y="875" name="top"/>
  <outline>
    <contour>
      <point x="580" y="-19" type="curve" smooth="yes"/>
      <point x="730" y="-19"/>
      <point x="830" y="88"/>
      <point x="830" y="248" type="curve" smooth="yes"/>
      <point x="830" y="438"/>
      <point x="643" y="515"/>
      <point x="496" y="679" type="curve"/>
      <point x="531" y="767"/>
      <point x="541" y="809"/>
      <point x="541" y="851" type="curve" smooth="yes"/>
      <point x="541" y="906"/>
      <point x="508" y="941"/>
      <point x="456" y="941" type="curve" smooth="yes"/>
      <point x="406" y="941"/>
      <point x="370" y="899"/>
      <point x="370" y="843" type="curve" smooth="yes"/>
      <point x="370" y="794"/>
      <point x="388" y="752"/>
      <point x="453" y="670" type="curve"/>
      <point x="250" y="176"/>
      <point x="218" y="25"/>
      <point x="53" y="25" type="curve" smooth="yes"/>
      <point x="39" y="25"/>
      <point x="31" y="19"/>
      <point x="31" y="5" type="curve" smooth="yes"/>
      <point x="31" y="-7"/>
      <point x="38" y="-12"/>
      <point x="53" y="-12" type="curve" smooth="yes"/>
      <point x="234" y="-12"/>
      <point x="272" y="112"/>
      <point x="480" y="638" type="curve"/>
      <point x="620" y="482"/>
      <point x="791" y="420"/>
      <point x="791" y="246" type="curve" smooth="yes"/>
      <point x="791" y="113"/>
      <point x="706" y="18"/>
      <point x="585" y="18" type="curve" smooth="yes"/>
      <point x="513" y="18"/>
      <point x="459" y="36"/>
      <point x="406" y="79" type="curve" smooth="yes"/>
      <point x="391" y="91"/>
      <point x="385" y="93"/>
      <point x="375" y="84" type="curve" smooth="yes"/>
      <point x="361" y="73"/>
      <point x="361" y="61"/>
      <point x="374" y="50" type="curve" smooth="yes"/>
      <point x="428" y="6"/>
      <point x="503" y="-19"/>
    </contour>
    <contour>
      <point x="469" y="710" type="curve"/>
      <point x="432" y="755"/>
      <point x="409" y="806"/>
      <point x="409" y="844" type="curve" smooth="yes"/>
      <point x="409" y="884"/>
      <point x="426" y="906"/>
      <point x="456" y="906" type="curve" smooth="yes"/>
      <point x="484" y="906"/>
      <point x="501" y="884"/>
      <point x="501" y="849" type="curve" smooth="yes"/>
      <point x="501" y="813"/>
      <point x="491" y="767"/>
    </contour>
  </outline>
</glyph>
<glyph name="T.cur" format="2">
  <advance width="721"/>
  <anchor x="453" y="0" name="bottom"/>
  <anchor x="265" y="438" name="center"/>
  <anchor x="386" y="838" name="top"/>
  <outline>
    <contour>
      <point x="459" y="-17" type="curve" smooth="yes"/>
      <point x="536" y="-17"/>
      <point x="616" y="26"/>
      <point x="660" y="94" type="curve" smooth="yes"/>
      <point x="665" y="101"/>
      <point x="663" y="110"/>
      <point x="654" y="115" type="curve" smooth="yes"/>
      <point x="645" y="123"/>
      <point x="635" y="121"/>
      <point x="630" y="114" type="curve" smooth="yes"/>
      <point x="586" y="53"/>
      <point x="526" y="18"/>
      <point x="463" y="18" type="curve" smooth="yes"/>
      <point x="335" y="18"/>
      <point x="258" y="129"/>
      <point x="258" y="309" type="curve" smooth="yes"/>
      <point x="258" y="461"/>
      <point x="324" y="641"/>
      <point x="455" y="840" type="curve"/>
      <point x="698" y="840" type="line" smooth="yes"/>
      <point x="705" y="840"/>
      <point x="709" y="848"/>
      <point x="709" y="859" type="curve" smooth="yes"/>
      <point x="709" y="870"/>
      <point x="705" y="875"/>
      <point x="698" y="875" type="curve" smooth="yes"/>
      <point x="213" y="875" type="line" smooth="yes"/>
      <point x="104" y="875"/>
      <point x="35" y="828"/>
      <point x="14" y="739" type="curve" smooth="yes"/>
      <point x="11" y="729"/>
      <point x="15" y="723"/>
      <point x="25" y="720" type="curve" smooth="yes"/>
      <point x="36" y="716"/>
      <point x="44" y="720"/>
      <point x="46" y="729" type="curve" smooth="yes"/>
      <point x="68" y="808"/>
      <point x="118" y="840"/>
      <point x="218" y="840" type="curve" smooth="yes"/>
      <point x="415" y="840" type="line"/>
      <point x="288" y="648"/>
      <point x="220" y="465"/>
      <point x="220" y="309" type="curve" smooth="yes"/>
      <point x="220" y="109"/>
      <point x="313" y="-17"/>
    </contour>
  </outline>
</glyph>
<glyph name="T.cur.ini" format="2">
  <advance width="671"/>
  <anchor x="453" y="0" name="bottom"/>
  <anchor x="265" y="438" name="center"/>
  <anchor x="671" y="0" name="cnct"/>
  <anchor x="386" y="838" name="top"/>
  <outline>
    <contour>
      <point x="465" y="-17" type="curve" smooth="yes"/>
      <point x="490" y="-17"/>
      <point x="491" y="16"/>
      <point x="466" y="16" type="curve" smooth="yes"/>
      <point x="336" y="16"/>
      <point x="258" y="128"/>
      <point x="258" y="309" type="curve" smooth="yes"/>
      <point x="258" y="461"/>
      <point x="324" y="641"/>
      <point x="455" y="840" type="curve"/>
      <point x="698" y="840" type="line" smooth="yes"/>
      <point x="705" y="840"/>
      <point x="709" y="848"/>
      <point x="709" y="859" type="curve" smooth="yes"/>
      <point x="709" y="870"/>
      <point x="705" y="875"/>
      <point x="698" y="875" type="curve" smooth="yes"/>
      <point x="213" y="875" type="line" smooth="yes"/>
      <point x="104" y="875"/>
      <point x="35" y="828"/>
      <point x="14" y="739" type="curve" smooth="yes"/>
      <point x="11" y="729"/>
      <point x="15" y="723"/>
      <point x="25" y="720" type="curve" smooth="yes"/>
      <point x="36" y="716"/>
      <point x="44" y="720"/>
      <point x="46" y="729" type="curve" smooth="yes"/>
      <point x="68" y="808"/>
      <point x="118" y="840"/>
      <point x="218" y="840" type="curve" smooth="yes"/>
      <point x="415" y="840" type="line"/>
      <point x="288" y="648"/>
      <point x="220" y="465"/>
      <point x="220" y="309" type="curve" smooth="yes"/>
      <point x="220" y="110"/>
      <point x="310" y="-17"/>
    </contour>
  </outline>
</glyph>
<glyph name="T.cur_locl.ini" format="2">
  <advance width="850"/>
  <anchor x="511" y="0" name="bottom"/>
  <anchor x="349" y="387" name="center"/>
  <anchor x="850" y="0" name="cnct"/>
  <anchor x="511" y="838" name="top"/>
  <outline>
    <contour>
      <point x="636" y="-17" type="curve" smooth="yes"/>
      <point x="656" y="-17"/>
      <point x="660" y="16"/>
      <point x="640" y="16" type="curve" smooth="yes"/>
      <point x="443" y="16"/>
      <point x="340" y="151"/>
      <point x="340" y="333" type="curve" smooth="yes"/>
      <point x="340" y="345"/>
      <point x="341" y="358"/>
      <point x="343" y="369" type="curve"/>
      <point x="576" y="369" type="line" smooth="yes"/>
      <point x="584" y="369"/>
      <point x="588" y="376"/>
      <point x="588" y="388" type="curve" smooth="yes"/>
      <point x="588" y="399"/>
      <point x="584" y="404"/>
      <point x="576" y="404" type="curve" smooth="yes"/>
      <point x="348" y="404" type="line"/>
      <point x="395" y="599"/>
      <point x="634" y="671"/>
      <point x="840" y="846" type="curve" smooth="yes"/>
      <point x="848" y="853"/>
      <point x="848" y="861"/>
      <point x="839" y="871" type="curve" smooth="yes"/>
      <point x="830" y="881"/>
      <point x="823" y="881"/>
      <point x="815" y="875" type="curve" smooth="yes"/>
      <point x="773" y="841"/>
      <point x="689" y="816"/>
      <point x="614" y="816" type="curve" smooth="yes"/>
      <point x="470" y="816"/>
      <point x="389" y="890"/>
      <point x="260" y="890" type="curve" smooth="yes"/>
      <point x="129" y="890"/>
      <point x="68" y="798"/>
      <point x="68" y="699" type="curve" smooth="yes"/>
      <point x="68" y="689"/>
      <point x="74" y="684"/>
      <point x="86" y="684" type="curve" smooth="yes"/>
      <point x="100" y="684"/>
      <point x="105" y="689"/>
      <point x="105" y="699" type="curve" smooth="yes"/>
      <point x="105" y="781"/>
      <point x="151" y="856"/>
      <point x="259" y="856" type="curve" smooth="yes"/>
      <point x="379" y="856"/>
      <point x="460" y="783"/>
      <point x="608" y="783" type="curve" smooth="yes"/>
      <point x="656" y="783"/>
      <point x="706" y="794"/>
      <point x="749" y="811" type="curve"/>
      <point x="565" y="681"/>
      <point x="353" y="595"/>
      <point x="310" y="404" type="curve"/>
      <point x="188" y="404" type="line" smooth="yes"/>
      <point x="180" y="404"/>
      <point x="176" y="399"/>
      <point x="176" y="388" type="curve" smooth="yes"/>
      <point x="176" y="376"/>
      <point x="180" y="369"/>
      <point x="188" y="369" type="curve" smooth="yes"/>
      <point x="304" y="369" type="line"/>
      <point x="304" y="358"/>
      <point x="303" y="345"/>
      <point x="303" y="333" type="curve" smooth="yes"/>
      <point x="303" y="131"/>
      <point x="420" y="-17"/>
    </contour>
  </outline>
</glyph>
<glyph name="T.dec" format="2">
  <advance width="721"/>
  <anchor x="281" y="0" name="bottom"/>
  <anchor x="391" y="438" name="center"/>
  <anchor x="390" y="838" name="top"/>
  <outline>
    <contour>
      <point x="278" y="-17" type="curve" smooth="yes"/>
      <point x="356" y="-17"/>
      <point x="410" y="35"/>
      <point x="410" y="135" type="curve" smooth="yes"/>
      <point x="410" y="840" type="line"/>
      <point x="698" y="840" type="line" smooth="yes"/>
      <point x="705" y="840"/>
      <point x="709" y="848"/>
      <point x="709" y="859" type="curve" smooth="yes"/>
      <point x="709" y="870"/>
      <point x="705" y="875"/>
      <point x="698" y="875" type="curve" smooth="yes"/>
      <point x="213" y="875" type="line" smooth="yes"/>
      <point x="104" y="875"/>
      <point x="35" y="828"/>
      <point x="14" y="739" type="curve" smooth="yes"/>
      <point x="11" y="729"/>
      <point x="15" y="723"/>
      <point x="25" y="720" type="curve" smooth="yes"/>
      <point x="36" y="716"/>
      <point x="44" y="720"/>
      <point x="46" y="729" type="curve" smooth="yes"/>
      <point x="68" y="808"/>
      <point x="118" y="840"/>
      <point x="218" y="840" type="curve" smooth="yes"/>
      <point x="373" y="840" type="line"/>
      <point x="373" y="139" type="line" smooth="yes"/>
      <point x="373" y="58"/>
      <point x="335" y="18"/>
      <point x="280" y="18" type="curve" smooth="yes"/>
      <point x="244" y="18"/>
      <point x="200" y="29"/>
      <point x="161" y="86" type="curve" smooth="yes"/>
      <point x="155" y="95"/>
      <point x="145" y="94"/>
      <point x="138" y="88" type="curve" smooth="yes"/>
      <point x="131" y="83"/>
      <point x="126" y="74"/>
      <point x="131" y="66" type="curve" smooth="yes"/>
      <point x="166" y="9"/>
      <point x="220" y="-17"/>
    </contour>
  </outline>
</glyph>
<glyph name="U.cur" format="2">
  <advance width="976"/>
  <anchor x="488" y="0" name="bottom"/>
  <anchor x="881" y="13" name="ogonek"/>
  <anchor x="500" y="838" name="top"/>
  <anchor x="730" y="888" name="topright"/>
  <outline>
    <contour>
      <point x="476" y="-17" type="curve" smooth="yes"/>
      <point x="586" y="-17"/>
      <point x="670" y="34"/>
      <point x="711" y="120" type="curve"/>
      <point x="711" y="118"/>
      <point x="711" y="116"/>
      <point x="711" y="114" type="curve" smooth="yes"/>
      <point x="716" y="25"/>
      <point x="753" y="-17"/>
      <point x="826" y="-17" type="curve" smooth="yes"/>
      <point x="880" y="-17"/>
      <point x="926" y="13"/>
      <point x="956" y="65" type="curve" smooth="yes"/>
      <point x="960" y="73"/>
      <point x="956" y="81"/>
      <point x="949" y="86" type="curve" smooth="yes"/>
      <point x="940" y="93"/>
      <point x="929" y="91"/>
      <point x="925" y="84" type="curve" smooth="yes"/>
      <point x="896" y="38"/>
      <point x="868" y="18"/>
      <point x="830" y="18" type="curve" smooth="yes"/>
      <point x="775" y="18"/>
      <point x="749" y="55"/>
      <point x="749" y="135" type="curve" smooth="yes"/>
      <point x="749" y="873" type="line" smooth="yes"/>
      <point x="749" y="884"/>
      <point x="744" y="888"/>
      <point x="730" y="888" type="curve" smooth="yes"/>
      <point x="716" y="888"/>
      <point x="711" y="884"/>
      <point x="711" y="873" type="curve" smooth="yes"/>
      <point x="711" y="199" type="line"/>
      <point x="684" y="85"/>
      <point x="598" y="18"/>
      <point x="481" y="18" type="curve" smooth="yes"/>
      <point x="364" y="18"/>
      <point x="300" y="86"/>
      <point x="300" y="213" type="curve" smooth="yes"/>
      <point x="300" y="771" type="line" smooth="yes"/>
      <point x="300" y="844"/>
      <point x="269" y="890"/>
      <point x="195" y="890" type="curve" smooth="yes"/>
      <point x="125" y="890"/>
      <point x="78" y="850"/>
      <point x="30" y="788" type="curve" smooth="yes"/>
      <point x="23" y="778"/>
      <point x="24" y="770"/>
      <point x="35" y="763" type="curve" smooth="yes"/>
      <point x="46" y="755"/>
      <point x="53" y="758"/>
      <point x="60" y="768" type="curve" smooth="yes"/>
      <point x="100" y="824"/>
      <point x="138" y="856"/>
      <point x="195" y="856" type="curve" smooth="yes"/>
      <point x="243" y="856"/>
      <point x="263" y="824"/>
      <point x="263" y="771" type="curve" smooth="yes"/>
      <point x="263" y="205" type="line" smooth="yes"/>
      <point x="263" y="65"/>
      <point x="343" y="-17"/>
    </contour>
  </outline>
</glyph>
<glyph name="U.cur.ini" format="2">
  <advance width="909"/>
  <anchor x="464" y="0" name="bottom"/>
  <anchor x="909" y="0" name="cnct"/>
  <anchor x="858" y="13" name="ogonek"/>
  <anchor x="476" y="838" name="top"/>
  <anchor x="706" y="888" name="topright"/>
  <outline>
    <contour>
      <point x="453" y="-17" type="curve" smooth="yes"/>
      <point x="581" y="-17"/>
      <point x="675" y="53"/>
      <point x="705" y="170" type="curve"/>
      <point x="689" y="208" type="line"/>
      <point x="664" y="89"/>
      <point x="578" y="18"/>
      <point x="458" y="18" type="curve" smooth="yes"/>
      <point x="340" y="18"/>
      <point x="276" y="86"/>
      <point x="276" y="213" type="curve" smooth="yes"/>
      <point x="276" y="771" type="line" smooth="yes"/>
      <point x="276" y="844"/>
      <point x="245" y="890"/>
      <point x="171" y="890" type="curve" smooth="yes"/>
      <point x="101" y="890"/>
      <point x="54" y="850"/>
      <point x="6" y="788" type="curve" smooth="yes"/>
      <point x="-1" y="778"/>
      <point x="0" y="770"/>
      <point x="11" y="763" type="curve" smooth="yes"/>
      <point x="23" y="755"/>
      <point x="29" y="758"/>
      <point x="36" y="768" type="curve" smooth="yes"/>
      <point x="76" y="824"/>
      <point x="114" y="856"/>
      <point x="171" y="856" type="curve" smooth="yes"/>
      <point x="219" y="856"/>
      <point x="239" y="824"/>
      <point x="239" y="771" type="curve" smooth="yes"/>
      <point x="239" y="205" type="line" smooth="yes"/>
      <point x="239" y="65"/>
      <point x="319" y="-17"/>
    </contour>
    <contour>
      <point x="849" y="-17" type="curve" smooth="yes"/>
      <point x="866" y="-17"/>
      <point x="866" y="18"/>
      <point x="849" y="18" type="curve" smooth="yes"/>
      <point x="766" y="18"/>
      <point x="725" y="64"/>
      <point x="725" y="161" type="curve" smooth="yes"/>
      <point x="725" y="873" type="line" smooth="yes"/>
      <point x="725" y="884"/>
      <point x="720" y="888"/>
      <point x="706" y="888" type="curve" smooth="yes"/>
      <point x="693" y="888"/>
      <point x="688" y="884"/>
      <point x="688" y="873" type="curve" smooth="yes"/>
      <point x="688" y="161" type="line" smooth="yes"/>
      <point x="688" y="41"/>
      <point x="739" y="-17"/>
    </contour>
  </outline>
</glyph>
<glyph name="V.cur" format="2">
  <advance width="944"/>
  <outline>
    <contour>
      <point x="496" y="-19" type="curve" smooth="yes"/>
      <point x="670" y="-19"/>
      <point x="774" y="221"/>
      <point x="774" y="556" type="curve" smooth="yes"/>
      <point x="774" y="650"/>
      <point x="769" y="725"/>
      <point x="758" y="800" type="curve"/>
      <point x="779" y="785"/>
      <point x="871" y="760"/>
      <point x="911" y="758" type="curve" smooth="yes"/>
      <point x="926" y="756"/>
      <point x="930" y="786"/>
      <point x="915" y="789" type="curve" smooth="yes"/>
      <point x="846" y="799"/>
      <point x="779" y="821"/>
      <point x="758" y="841" type="curve"/>
      <point x="746" y="865"/>
      <point x="721" y="884"/>
      <point x="698" y="884" type="curve" smooth="yes"/>
      <point x="680" y="884"/>
      <point x="666" y="871"/>
      <point x="666" y="854" type="curve" smooth="yes"/>
      <point x="666" y="833"/>
      <point x="689" y="813"/>
      <point x="721" y="805" type="curve"/>
      <point x="731" y="749"/>
      <point x="736" y="670"/>
      <point x="736" y="560" type="curve" smooth="yes"/>
      <point x="736" y="244"/>
      <point x="644" y="15"/>
      <point x="498" y="15" type="curve" smooth="yes"/>
      <point x="409" y="15"/>
      <point x="355" y="89"/>
      <point x="333" y="230" type="curve" smooth="yes"/>
      <point x="311" y="364"/>
      <point x="299" y="516"/>
      <point x="286" y="766" type="curve" smooth="yes"/>
      <point x="283" y="844"/>
      <point x="245" y="890"/>
      <point x="170" y="890" type="curve" smooth="yes"/>
      <point x="100" y="890"/>
      <point x="49" y="840"/>
      <point x="19" y="755" type="curve" smooth="yes"/>
      <point x="16" y="746"/>
      <point x="15" y="739"/>
      <point x="30" y="734" type="curve" smooth="yes"/>
      <point x="44" y="729"/>
      <point x="49" y="735"/>
      <point x="53" y="745" type="curve" smooth="yes"/>
      <point x="79" y="820"/>
      <point x="118" y="856"/>
      <point x="171" y="856" type="curve" smooth="yes"/>
      <point x="223" y="856"/>
      <point x="246" y="815"/>
      <point x="249" y="763" type="curve" smooth="yes"/>
      <point x="263" y="515"/>
      <point x="275" y="359"/>
      <point x="296" y="223" type="curve" smooth="yes"/>
      <point x="321" y="63"/>
      <point x="386" y="-19"/>
    </contour>
  </outline>
</glyph>
<glyph name="W.cur" format="2">
  <advance width="1309"/>
  <anchor x="684" y="0" name="bottom"/>
  <anchor x="696" y="838" name="top"/>
  <outline>
    <contour>
      <point x="471" y="-19" type="curve" smooth="yes"/>
      <point x="609" y="-19"/>
      <point x="681" y="136"/>
      <point x="703" y="475" type="curve"/>
      <point x="705" y="475" type="line"/>
      <point x="711" y="384"/>
      <point x="720" y="303"/>
      <point x="738" y="215" type="curve" smooth="yes"/>
      <point x="770" y="54"/>
      <point x="826" y="-19"/>
      <point x="925" y="-19" type="curve" smooth="yes"/>
      <point x="1059" y="-19"/>
      <point x="1149" y="188"/>
      <point x="1149" y="491" type="curve" smooth="yes"/>
      <point x="1149" y="624"/>
      <point x="1141" y="728"/>
      <point x="1125" y="800" type="curve"/>
      <point x="1146" y="785"/>
      <point x="1238" y="760"/>
      <point x="1276" y="758" type="curve" smooth="yes"/>
      <point x="1284" y="756"/>
      <point x="1290" y="764"/>
      <point x="1290" y="773" type="curve" smooth="yes"/>
      <point x="1290" y="781"/>
      <point x="1286" y="788"/>
      <point x="1280" y="789" type="curve" smooth="yes"/>
      <point x="1211" y="799"/>
      <point x="1144" y="821"/>
      <point x="1123" y="841" type="curve"/>
      <point x="1111" y="865"/>
      <point x="1086" y="884"/>
      <point x="1063" y="884" type="curve" smooth="yes"/>
      <point x="1045" y="884"/>
      <point x="1031" y="871"/>
      <point x="1031" y="854" type="curve" smooth="yes"/>
      <point x="1031" y="833"/>
      <point x="1054" y="813"/>
      <point x="1086" y="805" type="curve"/>
      <point x="1104" y="714"/>
      <point x="1113" y="606"/>
      <point x="1113" y="500" type="curve" smooth="yes"/>
      <point x="1113" y="209"/>
      <point x="1039" y="14"/>
      <point x="929" y="14" type="curve" smooth="yes"/>
      <point x="845" y="14"/>
      <point x="800" y="73"/>
      <point x="770" y="223" type="curve" smooth="yes"/>
      <point x="744" y="354"/>
      <point x="738" y="419"/>
      <point x="721" y="545" type="curve"/>
      <point x="728" y="560"/>
      <point x="730" y="576"/>
      <point x="730" y="595" type="curve" smooth="yes"/>
      <point x="730" y="624"/>
      <point x="718" y="643"/>
      <point x="698" y="643" type="curve" smooth="yes"/>
      <point x="681" y="643"/>
      <point x="669" y="625"/>
      <point x="669" y="603" type="curve" smooth="yes"/>
      <point x="669" y="585"/>
      <point x="675" y="563"/>
      <point x="684" y="544" type="curve"/>
      <point x="645" y="149"/>
      <point x="591" y="14"/>
      <point x="473" y="14" type="curve" smooth="yes"/>
      <point x="395" y="14"/>
      <point x="349" y="84"/>
      <point x="330" y="230" type="curve" smooth="yes"/>
      <point x="310" y="386"/>
      <point x="295" y="565"/>
      <point x="284" y="766" type="curve" smooth="yes"/>
      <point x="280" y="844"/>
      <point x="243" y="890"/>
      <point x="168" y="890" type="curve" smooth="yes"/>
      <point x="98" y="890"/>
      <point x="46" y="840"/>
      <point x="16" y="755" type="curve" smooth="yes"/>
      <point x="14" y="746"/>
      <point x="13" y="739"/>
      <point x="28" y="734" type="curve" smooth="yes"/>
      <point x="41" y="729"/>
      <point x="46" y="735"/>
      <point x="50" y="745" type="curve" smooth="yes"/>
      <point x="76" y="820"/>
      <point x="115" y="856"/>
      <point x="169" y="856" type="curve" smooth="yes"/>
      <point x="220" y="856"/>
      <point x="244" y="815"/>
      <point x="246" y="763" type="curve" smooth="yes"/>
      <point x="258" y="534"/>
      <point x="273" y="368"/>
      <point x="294" y="223" type="curve" smooth="yes"/>
      <point x="319" y="54"/>
      <point x="370" y="-19"/>
    </contour>
  </outline>
</glyph>
<glyph name="X.cur.ini" format="2">
  <advance width="773"/>
  <guideline y="-11"/>
  <anchor x="773" y="0" name="cnct"/>
  <outline>
    <contour>
      <point x="710" y="-17" type="curve" smooth="yes"/>
      <point x="733" y="-17"/>
      <point x="730" y="18"/>
      <point x="710" y="18" type="curve" smooth="yes"/>
      <point x="660" y="18"/>
      <point x="621" y="48"/>
      <point x="555" y="175" type="curve" smooth="yes"/>
      <point x="414" y="446" type="line"/>
      <point x="671" y="865" type="line" smooth="yes"/>
      <point x="678" y="875"/>
      <point x="676" y="880"/>
      <point x="665" y="888" type="curve" smooth="yes"/>
      <point x="654" y="894"/>
      <point x="649" y="893"/>
      <point x="643" y="883" type="curve" smooth="yes"/>
      <point x="396" y="481" type="line"/>
      <point x="268" y="736" type="line" smooth="yes"/>
      <point x="205" y="860"/>
      <point x="176" y="890"/>
      <point x="118" y="890" type="curve" smooth="yes"/>
      <point x="80" y="890"/>
      <point x="46" y="880"/>
      <point x="14" y="858" type="curve" smooth="yes"/>
      <point x="6" y="853"/>
      <point x="5" y="844"/>
      <point x="10" y="835" type="curve" smooth="yes"/>
      <point x="16" y="826"/>
      <point x="25" y="825"/>
      <point x="35" y="830" type="curve" smooth="yes"/>
      <point x="68" y="846"/>
      <point x="91" y="854"/>
      <point x="111" y="854" type="curve" smooth="yes"/>
      <point x="155" y="854"/>
      <point x="180" y="828"/>
      <point x="229" y="730" type="curve" smooth="yes"/>
      <point x="370" y="449" type="line"/>
      <point x="100" y="11" type="line" smooth="yes"/>
      <point x="94" y="1"/>
      <point x="95" y="-4"/>
      <point x="106" y="-11" type="curve" smooth="yes"/>
      <point x="116" y="-17"/>
      <point x="124" y="-16"/>
      <point x="130" y="-6" type="curve" smooth="yes"/>
      <point x="389" y="413" type="line"/>
      <point x="531" y="143" type="line" smooth="yes"/>
      <point x="583" y="46"/>
      <point x="626" y="-17"/>
    </contour>
  </outline>
</glyph>
<glyph name="X.dec_locl.ini" format="2">
  <advance width="971"/>
  <anchor x="971" y="0" name="cnct"/>
  <outline>
    <contour>
      <point x="768" y="-17" type="curve" smooth="yes"/>
      <point x="788" y="-17"/>
      <point x="789" y="16"/>
      <point x="769" y="16" type="curve" smooth="yes"/>
      <point x="573" y="16"/>
      <point x="525" y="213"/>
      <point x="525" y="436" type="curve" smooth="yes"/>
      <point x="525" y="666"/>
      <point x="599" y="853"/>
      <point x="741" y="853" type="curve" smooth="yes"/>
      <point x="833" y="853"/>
      <point x="876" y="786"/>
      <point x="876" y="694" type="curve" smooth="yes"/>
      <point x="876" y="343"/>
      <point x="95" y="580"/>
      <point x="95" y="179" type="curve" smooth="yes"/>
      <point x="95" y="60"/>
      <point x="161" y="-17"/>
      <point x="261" y="-17" type="curve" smooth="yes"/>
      <point x="429" y="-17"/>
      <point x="520" y="191"/>
      <point x="520" y="436" type="curve" smooth="yes"/>
      <point x="520" y="689"/>
      <point x="460" y="890"/>
      <point x="289" y="890" type="curve" smooth="yes"/>
      <point x="219" y="890"/>
      <point x="169" y="859"/>
      <point x="123" y="805" type="curve" smooth="yes"/>
      <point x="109" y="789"/>
      <point x="111" y="778"/>
      <point x="124" y="771" type="curve" smooth="yes"/>
      <point x="135" y="764"/>
      <point x="143" y="764"/>
      <point x="155" y="780" type="curve" smooth="yes"/>
      <point x="196" y="830"/>
      <point x="234" y="853"/>
      <point x="289" y="853" type="curve" smooth="yes"/>
      <point x="430" y="853"/>
      <point x="488" y="666"/>
      <point x="488" y="436" type="curve" smooth="yes"/>
      <point x="488" y="213"/>
      <point x="403" y="20"/>
      <point x="263" y="20" type="curve" smooth="yes"/>
      <point x="181" y="20"/>
      <point x="135" y="80"/>
      <point x="135" y="183" type="curve" smooth="yes"/>
      <point x="135" y="544"/>
      <point x="916" y="299"/>
      <point x="916" y="698" type="curve" smooth="yes"/>
      <point x="916" y="810"/>
      <point x="854" y="890"/>
      <point x="741" y="890" type="curve" smooth="yes"/>
      <point x="571" y="890"/>
      <point x="493" y="689"/>
      <point x="493" y="436" type="curve" smooth="yes"/>
      <point x="493" y="191"/>
      <point x="546" y="-17"/>
    </contour>
  </outline>
</glyph>
<glyph name="X.dec_ro.ini" format="2">
  <advance width="908"/>
  <anchor x="908" y="0" name="cnct"/>
  <outline>
    <contour>
      <point x="292" y="431" type="curve" smooth="yes"/>
      <point x="674" y="431" type="line" smooth="yes"/>
      <point x="682" y="431"/>
      <point x="685" y="439"/>
      <point x="685" y="450" type="curve" smooth="yes"/>
      <point x="685" y="461"/>
      <point x="682" y="466"/>
      <point x="674" y="466" type="curve" smooth="yes"/>
      <point x="292" y="466" type="line" smooth="yes"/>
      <point x="284" y="466"/>
      <point x="280" y="461"/>
      <point x="280" y="450" type="curve" smooth="yes"/>
      <point x="280" y="439"/>
      <point x="284" y="431"/>
    </contour>
    <component base="X.dec.ini"/>
  </outline>
</glyph>
